MerriweatherSans-Black.ufo
<glyph name="exclam" format="2">
  <advance width="654.0"/>
  <unicode hex="0021"/>
  <outline>
    <contour>
      <point x="182.0" y="576.0" type="line"/>
      <point x="488.0" y="576.0" type="line"/>
      <point x="528.0" y="1738.0" type="line"/>
      <point x="130.0" y="1738.0" type="line"/>
    </contour>
    <contour>
      <point x="318.0" y="-22.0" type="curve" smooth="yes"/>
      <point x="442.0" y="-22.0"/>
      <point x="536.0" y="84.0"/>
      <point x="536.0" y="202.0" type="curve" smooth="yes"/>
      <point x="536.0" y="318.0"/>
      <point x="458.0" y="406.0"/>
      <point x="336.0" y="406.0" type="curve" smooth="yes"/>
      <point x="212.0" y="406.0"/>
      <point x="116.0" y="302.0"/>
      <point x="118.0" y="184.0" type="curve" smooth="yes"/>
      <point x="118.0" y="68.0"/>
      <point x="200.0" y="-22.0"/>
    </contour>
  </outline>
</glyph>
<glyph name="numbersign" format="2">
  <advance width="777.0"/>
  <unicode hex="0023"/>
  <outline>
    <contour>
      <point x="142.0" y="0.0" type="line"/>
      <point x="288.0" y="0.0" type="line"/>
      <point x="354.0" y="670.0" type="line"/>
      <point x="206.0" y="670.0" type="line"/>
    </contour>
    <contour>
      <point x="419.0" y="0.0" type="line"/>
      <point x="563.0" y="0.0" type="line"/>
      <point x="628.0" y="670.0" type="line"/>
      <point x="482.0" y="670.0" type="line"/>
    </contour>
    <contour>
      <point x="707.0" y="409.0" type="line"/>
      <point x="707.0" y="525.0" type="line"/>
      <point x="90.0" y="525.0" type="line"/>
      <point x="90.0" y="409.0" type="line"/>
    </contour>
    <contour>
      <point x="685.0" y="149.0" type="line"/>
      <point x="685.0" y="270.0" type="line"/>
      <point x="70.0" y="270.0" type="line"/>
      <point x="70.0" y="149.0" type="line"/>
    </contour>
  </outline>
</glyph>
<glyph name="dollar" format="2">
  <advance width="1376.0"/>
  <unicode hex="0024"/>
  <anchor x="668.0" y="0.0" name="bottom"/>
  <anchor x="660.0" y="-166.0" name="btm"/>
  <anchor x="716.0" y="1660.0" name="top"/>
  <outline>
    <contour>
      <point x="602.0" y="1420.0" type="line"/>
      <point x="800.0" y="1420.0" type="line"/>
      <point x="812.0" y="1722.0" type="line"/>
      <point x="614.0" y="1722.0" type="line"/>
    </contour>
    <contour>
      <point x="544.0" y="-220.0" type="line"/>
      <point x="744.0" y="-220.0" type="line"/>
      <point x="754.0" y="82.0" type="line"/>
      <point x="556.0" y="82.0" type="line"/>
    </contour>
    <component base="S" xOffset="84.0"/>
  </outline>
</glyph>
<glyph name="percent" format="2">
  <advance width="2234.0"/>
  <unicode hex="0025"/>
  <outline>
    <contour>
      <point x="508.0" y="576.0" type="curve" smooth="yes"/>
      <point x="742.0" y="576.0"/>
      <point x="956.0" y="742.0"/>
      <point x="956.0" y="1038.0" type="curve" smooth="yes"/>
      <point x="956.0" y="1292.0"/>
      <point x="832.0" y="1498.0"/>
      <point x="544.0" y="1496.0" type="curve" smooth="yes"/>
      <point x="310.0" y="1496.0"/>
      <point x="96.0" y="1330.0"/>
      <point x="96.0" y="1032.0" type="curve" smooth="yes"/>
      <point x="96.0" y="778.0"/>
      <point x="224.0" y="574.0"/>
    </contour>
    <contour>
      <point x="710.0" y="0.0" type="line"/>
      <point x="986.0" y="0.0" type="line"/>
      <point x="1530.0" y="1494.0" type="line"/>
      <point x="1252.0" y="1494.0" type="line"/>
    </contour>
    <contour>
      <point x="524.0" y="802.0" type="curve" smooth="yes"/>
      <point x="428.0" y="802.0"/>
      <point x="374.0" y="898.0"/>
      <point x="374.0" y="1042.0" type="curve" smooth="yes"/>
      <point x="374.0" y="1184.0"/>
      <point x="428.0" y="1270.0"/>
      <point x="528.0" y="1270.0" type="curve" smooth="yes"/>
      <point x="624.0" y="1270.0"/>
      <point x="678.0" y="1174.0"/>
      <point x="678.0" y="1030.0" type="curve" smooth="yes"/>
      <point x="678.0" y="888.0"/>
      <point x="624.0" y="802.0"/>
    </contour>
    <contour>
      <point x="1690.0" y="-4.0" type="curve" smooth="yes"/>
      <point x="1922.0" y="-2.0"/>
      <point x="2136.0" y="162.0"/>
      <point x="2136.0" y="460.0" type="curve" smooth="yes"/>
      <point x="2136.0" y="714.0"/>
      <point x="2012.0" y="918.0"/>
      <point x="1724.0" y="916.0" type="curve" smooth="yes"/>
      <point x="1492.0" y="916.0"/>
      <point x="1278.0" y="752.0"/>
      <point x="1278.0" y="454.0" type="curve" smooth="yes"/>
      <point x="1278.0" y="200.0"/>
      <point x="1406.0" y="-4.0"/>
    </contour>
    <contour>
      <point x="1706.0" y="224.0" type="curve" smooth="yes"/>
      <point x="1610.0" y="224.0"/>
      <point x="1554.0" y="320.0"/>
      <point x="1554.0" y="464.0" type="curve" smooth="yes"/>
      <point x="1554.0" y="606.0"/>
      <point x="1610.0" y="692.0"/>
      <point x="1708.0" y="692.0" type="curve" smooth="yes"/>
      <point x="1804.0" y="692.0"/>
      <point x="1858.0" y="596.0"/>
      <point x="1858.0" y="452.0" type="curve" smooth="yes"/>
      <point x="1858.0" y="310.0"/>
      <point x="1804.0" y="224.0"/>
    </contour>
  </outline>
</glyph>
<glyph name="quotesingle" format="2">
  <advance width="355.0"/>
  <unicode hex="0027"/>
  <outline>
    <contour>
      <point x="116.0" y="454.0" type="line"/>
      <point x="239.0" y="454.0" type="line"/>
      <point x="259.0" y="832.0" type="line"/>
      <point x="96.0" y="832.0" type="line"/>
    </contour>
  </outline>
</glyph>
<glyph name="asterisk" format="2">
  <advance width="1376.0"/>
  <unicode hex="002A"/>
  <outline>
    <contour>
      <point x="562.0" y="570.0" type="line"/>
      <point x="828.0" y="570.0" type="line"/>
      <point x="790.0" y="886.0" type="line"/>
      <point x="788.0" y="904.0"/>
      <point x="748.0" y="1030.0"/>
      <point x="746.0" y="1042.0" type="curve"/>
      <point x="866.0" y="924.0" type="line"/>
      <point x="1114.0" y="742.0" type="line"/>
      <point x="1248.0" y="986.0" type="line"/>
      <point x="962.0" y="1108.0" type="line"/>
      <point x="800.0" y="1146.0" type="line"/>
      <point x="960.0" y="1190.0" type="line"/>
      <point x="1240.0" y="1322.0" type="line"/>
      <point x="1116.0" y="1558.0" type="line"/>
      <point x="856.0" y="1370.0" type="line"/>
      <point x="842.0" y="1358.0"/>
      <point x="752.0" y="1256.0"/>
      <point x="744.0" y="1248.0" type="curve"/>
      <point x="786.0" y="1408.0" type="line"/>
      <point x="812.0" y="1716.0" type="line"/>
      <point x="546.0" y="1716.0" type="line"/>
      <point x="586.0" y="1404.0" type="line"/>
      <point x="588.0" y="1384.0"/>
      <point x="628.0" y="1258.0"/>
      <point x="630.0" y="1246.0" type="curve"/>
      <point x="516.0" y="1364.0" type="line"/>
      <point x="248.0" y="1548.0" type="line"/>
      <point x="128.0" y="1310.0" type="line"/>
      <point x="414.0" y="1182.0" type="line"/>
      <point x="432.0" y="1176.0"/>
      <point x="562.0" y="1150.0"/>
      <point x="574.0" y="1146.0" type="curve"/>
      <point x="416.0" y="1104.0" type="line"/>
      <point x="134.0" y="968.0" type="line"/>
      <point x="266.0" y="730.0" type="line"/>
      <point x="520.0" y="918.0" type="line"/>
      <point x="632.0" y="1042.0" type="line"/>
      <point x="590.0" y="884.0" type="line"/>
    </contour>
  </outline>
</glyph>
<glyph name="comma" format="2">
  <advance width="684.0"/>
  <unicode hex="002C"/>
  <outline>
    <contour>
      <point x="170.0" y="-398.0" type="line"/>
      <point x="298.0" y="-500.0" type="line"/>
      <point x="448.0" y="-444.0"/>
      <point x="568.0" y="-232.0"/>
      <point x="568.0" y="-10.0" type="curve" smooth="yes"/>
      <point x="568.0" y="104.0"/>
      <point x="516.0" y="268.0"/>
      <point x="404.0" y="310.0" type="curve"/>
      <point x="148.0" y="178.0" type="line"/>
      <point x="148.0" y="74.0" type="line"/>
      <point x="192.0" y="66.0"/>
      <point x="250.0" y="-30.0"/>
      <point x="250.0" y="-118.0" type="curve" smooth="yes"/>
      <point x="250.0" y="-246.0"/>
      <point x="208.0" y="-344.0"/>
      <point x="170.0" y="-374.0" type="curve"/>
    </contour>
  </outline>
</glyph>
<glyph name="period" format="2">
  <advance width="654.0"/>
  <unicode hex="002E"/>
  <outline>
    <contour>
      <point x="320.0" y="-22.0" type="curve" smooth="yes"/>
      <point x="442.0" y="-22.0"/>
      <point x="536.0" y="84.0"/>
      <point x="536.0" y="202.0" type="curve" smooth="yes"/>
      <point x="536.0" y="318.0"/>
      <point x="458.0" y="406.0"/>
      <point x="336.0" y="406.0" type="curve" smooth="yes"/>
      <point x="212.0" y="406.0"/>
      <point x="118.0" y="302.0"/>
      <point x="118.0" y="184.0" type="curve" smooth="yes"/>
      <point x="118.0" y="68.0"/>
      <point x="200.0" y="-22.0"/>
    </contour>
  </outline>
</glyph>
<glyph name="one" format="2">
  <advance width="480.0"/>
  <unicode hex="0031"/>
  <outline>
    <contour>
      <point x="173.0" y="0.0" type="line"/>
      <point x="359.0" y="0.0" type="line"/>
      <point x="360.0" y="737.0" type="line"/>
      <point x="270.0" y="749.0" type="line"/>
      <point x="227.0" y="714.0"/>
      <point x="109.0" y="660.0"/>
      <point x="45.0" y="645.0" type="curve"/>
      <point x="60.0" y="535.0" type="line"/>
      <point x="97.0" y="541.0"/>
      <point x="134.0" y="547.0"/>
      <point x="173.0" y="556.0" type="curve"/>
    </contour>
  </outline>
</glyph>
<glyph name="three" format="2">
  <advance width="1172.0"/>
  <unicode hex="0033"/>
  <outline>
    <contour>
      <point x="122.0" y="30.0" type="line"/>
      <point x="192.0" y="8.0"/>
      <point x="296.0" y="-22.0"/>
      <point x="430.0" y="-22.0" type="curve" smooth="yes"/>
      <point x="826.0" y="-22.0"/>
      <point x="1088.0" y="186.0"/>
      <point x="1088.0" y="430.0" type="curve" smooth="yes"/>
      <point x="1088.0" y="602.0"/>
      <point x="984.0" y="770.0"/>
      <point x="706.0" y="780.0" type="curve"/>
      <point x="706.0" y="746.0" type="line"/>
      <point x="884.0" y="826.0"/>
      <point x="1010.0" y="954.0"/>
      <point x="1010.0" y="1154.0" type="curve" smooth="yes"/>
      <point x="1010.0" y="1376.0"/>
      <point x="838.0" y="1506.0"/>
      <point x="540.0" y="1506.0" type="curve" smooth="yes"/>
      <point x="342.0" y="1506.0"/>
      <point x="122.0" y="1418.0"/>
      <point x="66.0" y="1358.0" type="curve"/>
      <point x="170.0" y="1132.0" type="line"/>
      <point x="238.0" y="1180.0"/>
      <point x="332.0" y="1232.0"/>
      <point x="464.0" y="1232.0" type="curve" smooth="yes"/>
      <point x="574.0" y="1232.0"/>
      <point x="646.0" y="1178.0"/>
      <point x="640.0" y="1084.0" type="curve" smooth="yes"/>
      <point x="636.0" y="1012.0"/>
      <point x="600.0" y="950.0"/>
      <point x="512.0" y="900.0" type="curve" smooth="yes"/>
      <point x="460.0" y="870.0"/>
      <point x="378.0" y="846.0"/>
      <point x="288.0" y="830.0" type="curve"/>
      <point x="336.0" y="606.0" type="line"/>
      <point x="468.0" y="636.0" type="line"/>
      <point x="642.0" y="644.0"/>
      <point x="702.0" y="550.0"/>
      <point x="702.0" y="470.0" type="curve" smooth="yes"/>
      <point x="702.0" y="322.0"/>
      <point x="554.0" y="236.0"/>
      <point x="340.0" y="236.0" type="curve" smooth="yes"/>
      <point x="274.0" y="236.0"/>
      <point x="192.0" y="250.0"/>
      <point x="120.0" y="266.0" type="curve"/>
    </contour>
  </outline>
</glyph>
<glyph name="four" format="2">
  <advance width="1422.0"/>
  <unicode hex="0034"/>
  <outline>
    <contour>
      <point x="148.0" y="296.0" type="line"/>
      <point x="1352.0" y="296.0" type="line"/>
      <point x="1352.0" y="552.0" type="line"/>
      <point x="444.0" y="552.0" type="line"/>
      <point x="554.0" y="730.0" type="line"/>
      <point x="690.0" y="982.0"/>
      <point x="776.0" y="1114.0"/>
      <point x="912.0" y="1366.0" type="curve"/>
      <point x="668.0" y="1500.0" type="line"/>
      <point x="554.0" y="1500.0" type="line"/>
      <point x="374.0" y="1106.0"/>
      <point x="244.0" y="818.0"/>
      <point x="64.0" y="424.0" type="curve"/>
    </contour>
    <contour>
      <point x="794.0" y="0.0" type="line"/>
      <point x="1136.0" y="0.0" type="line"/>
      <point x="1136.0" y="930.0" type="line"/>
      <point x="830.0" y="930.0" type="line"/>
      <point x="794.0" y="552.0" type="line"/>
    </contour>
  </outline>
</glyph>
<glyph name="five" format="2">
  <advance width="1290.0"/>
  <unicode hex="0035"/>
  <outline>
    <contour>
      <point x="314.0" y="-18.0" type="curve" smooth="yes"/>
      <point x="830.0" y="-18.0"/>
      <point x="1152.0" y="188.0"/>
      <point x="1152.0" y="542.0" type="curve" smooth="yes"/>
      <point x="1152.0" y="810.0"/>
      <point x="1000.0" y="972.0"/>
      <point x="716.0" y="972.0" type="curve" smooth="yes"/>
      <point x="640.0" y="972.0"/>
      <point x="554.0" y="958.0"/>
      <point x="472.0" y="932.0" type="curve"/>
      <point x="502.0" y="1192.0" type="line"/>
      <point x="1076.0" y="1192.0" type="line"/>
      <point x="1108.0" y="1486.0" type="line"/>
      <point x="244.0" y="1486.0" type="line"/>
      <point x="182.0" y="684.0" type="line"/>
      <point x="246.0" y="650.0" type="line"/>
      <point x="334.0" y="682.0"/>
      <point x="442.0" y="714.0"/>
      <point x="530.0" y="714.0" type="curve" smooth="yes"/>
      <point x="706.0" y="714.0"/>
      <point x="780.0" y="650.0"/>
      <point x="780.0" y="528.0" type="curve" smooth="yes"/>
      <point x="780.0" y="342.0"/>
      <point x="588.0" y="254.0"/>
      <point x="248.0" y="254.0" type="curve" smooth="yes"/>
      <point x="222.0" y="254.0"/>
      <point x="196.0" y="254.0"/>
      <point x="168.0" y="256.0" type="curve"/>
      <point x="168.0" y="-4.0" type="line"/>
      <point x="210.0" y="-14.0"/>
      <point x="280.0" y="-18.0"/>
    </contour>
  </outline>
</glyph>
<glyph name="six" format="2">
  <advance width="1422.0"/>
  <unicode hex="0036"/>
  <outline>
    <contour>
      <point x="116.0" y="608.0" type="curve" smooth="yes"/>
      <point x="116.0" y="246.0"/>
      <point x="360.0" y="-16.0"/>
      <point x="698.0" y="-16.0" type="curve" smooth="yes"/>
      <point x="1110.0" y="-16.0"/>
      <point x="1306.0" y="246.0"/>
      <point x="1306.0" y="554.0" type="curve" smooth="yes"/>
      <point x="1306.0" y="824.0"/>
      <point x="1134.0" y="1014.0"/>
      <point x="888.0" y="1014.0" type="curve" smooth="yes"/>
      <point x="720.0" y="1014.0"/>
      <point x="610.0" y="940.0"/>
      <point x="580.0" y="900.0" type="curve"/>
      <point x="646.0" y="712.0" type="line"/>
      <point x="674.0" y="724.0"/>
      <point x="708.0" y="744.0"/>
      <point x="776.0" y="744.0" type="curve" smooth="yes"/>
      <point x="868.0" y="744.0"/>
      <point x="948.0" y="676.0"/>
      <point x="948.0" y="486.0" type="curve" smooth="yes"/>
      <point x="948.0" y="326.0"/>
      <point x="874.0" y="232.0"/>
      <point x="730.0" y="232.0" type="curve" smooth="yes"/>
      <point x="562.0" y="232.0"/>
      <point x="498.0" y="414.0"/>
      <point x="500.0" y="672.0" type="curve" smooth="yes"/>
      <point x="502.0" y="966.0"/>
      <point x="698.0" y="1308.0"/>
      <point x="1070.0" y="1400.0" type="curve"/>
      <point x="988.0" y="1614.0" type="line"/>
      <point x="632.0" y="1570.0"/>
      <point x="116.0" y="1202.0"/>
    </contour>
  </outline>
</glyph>
<glyph name="seven" format="2">
  <advance width="641.0"/>
  <unicode hex="0037"/>
  <outline>
    <contour>
      <point x="143.0" y="0.0" type="curve"/>
      <point x="345.0" y="0.0" type="line"/>
      <point x="596.0" y="686.0" type="line"/>
      <point x="557.0" y="743.0" type="line"/>
      <point x="60.0" y="743.0" type="line"/>
      <point x="60.0" y="576.0" type="line"/>
      <point x="392.0" y="575.0" type="line"/>
      <point x="353.0" y="478.0"/>
      <point x="205.0" y="130.0"/>
    </contour>
  </outline>
</glyph>
<glyph name="eight" format="2">
  <advance width="1370.0"/>
  <unicode hex="0038"/>
  <outline>
    <contour>
      <point x="700.0" y="-16.0" type="curve" smooth="yes"/>
      <point x="1024.0" y="-16.0"/>
      <point x="1264.0" y="142.0"/>
      <point x="1262.0" y="416.0" type="curve" smooth="yes"/>
      <point x="1258.0" y="838.0"/>
      <point x="498.0" y="858.0"/>
      <point x="498.0" y="1148.0" type="curve" smooth="yes"/>
      <point x="498.0" y="1224.0"/>
      <point x="570.0" y="1298.0"/>
      <point x="688.0" y="1298.0" type="curve" smooth="yes"/>
      <point x="810.0" y="1298.0"/>
      <point x="878.0" y="1228.0"/>
      <point x="878.0" y="1142.0" type="curve" smooth="yes"/>
      <point x="878.0" y="1024.0"/>
      <point x="824.0" y="932.0"/>
      <point x="680.0" y="888.0" type="curve"/>
      <point x="802.0" y="748.0" type="line"/>
      <point x="1086.0" y="812.0"/>
      <point x="1196.0" y="982.0"/>
      <point x="1196.0" y="1156.0" type="curve" smooth="yes"/>
      <point x="1196.0" y="1360.0"/>
      <point x="1018.0" y="1510.0"/>
      <point x="682.0" y="1510.0" type="curve" smooth="yes"/>
      <point x="346.0" y="1510.0"/>
      <point x="162.0" y="1334.0"/>
      <point x="162.0" y="1118.0" type="curve" smooth="yes"/>
      <point x="162.0" y="614.0"/>
      <point x="898.0" y="638.0"/>
      <point x="898.0" y="378.0" type="curve" smooth="yes"/>
      <point x="898.0" y="282.0"/>
      <point x="806.0" y="196.0"/>
      <point x="696.0" y="196.0" type="curve" smooth="yes"/>
      <point x="524.0" y="196.0"/>
      <point x="456.0" y="306.0"/>
      <point x="456.0" y="404.0" type="curve" smooth="yes"/>
      <point x="456.0" y="530.0"/>
      <point x="544.0" y="600.0"/>
      <point x="666.0" y="656.0" type="curve"/>
      <point x="542.0" y="804.0" type="line"/>
      <point x="228.0" y="714.0"/>
      <point x="116.0" y="550.0"/>
      <point x="116.0" y="388.0" type="curve" smooth="yes"/>
      <point x="116.0" y="142.0"/>
      <point x="334.0" y="-16.0"/>
    </contour>
  </outline>
</glyph>
<glyph name="less" format="2">
  <advance width="1344.0"/>
  <unicode hex="003C"/>
  <outline>
    <contour>
      <point x="206.0" y="682.0" type="line"/>
      <point x="1128.0" y="208.0" type="line"/>
      <point x="1128.0" y="534.0" type="line"/>
      <point x="586.0" y="774.0" type="line"/>
      <point x="586.0" y="736.0" type="line"/>
      <point x="1128.0" y="1008.0" type="line"/>
      <point x="1128.0" y="1324.0" type="line"/>
      <point x="206.0" y="834.0" type="line"/>
    </contour>
  </outline>
</glyph>
<glyph name="equal" format="2">
  <advance width="1396.0"/>
  <unicode hex="003D"/>
  <outline>
    <contour>
      <point x="248.0" y="882.0" type="line"/>
      <point x="1150.0" y="882.0" type="line"/>
      <point x="1150.0" y="1128.0" type="line"/>
      <point x="248.0" y="1128.0" type="line"/>
    </contour>
    <contour>
      <point x="248.0" y="386.0" type="line"/>
      <point x="1150.0" y="386.0" type="line"/>
      <point x="1150.0" y="632.0" type="line"/>
      <point x="248.0" y="632.0" type="line"/>
    </contour>
  </outline>
</glyph>
<glyph name="question" format="2">
  <advance width="1108.0"/>
  <unicode hex="003F"/>
  <outline>
    <contour>
      <point x="322.0" y="522.0" type="curve"/>
      <point x="598.0" y="522.0" type="line"/>
      <point x="580.0" y="596.0"/>
      <point x="560.0" y="650.0"/>
      <point x="564.0" y="708.0" type="curve" smooth="yes"/>
      <point x="576.0" y="1012.0"/>
      <point x="988.0" y="994.0"/>
      <point x="988.0" y="1384.0" type="curve" smooth="yes"/>
      <point x="992.0" y="1636.0"/>
      <point x="808.0" y="1802.0"/>
      <point x="424.0" y="1802.0" type="curve" smooth="yes"/>
      <point x="300.0" y="1802.0"/>
      <point x="152.0" y="1774.0"/>
      <point x="104.0" y="1742.0" type="curve"/>
      <point x="104.0" y="1480.0" type="line"/>
      <point x="146.0" y="1498.0"/>
      <point x="226.0" y="1528.0"/>
      <point x="334.0" y="1528.0" type="curve" smooth="yes"/>
      <point x="530.0" y="1528.0"/>
      <point x="600.0" y="1458.0"/>
      <point x="600.0" y="1346.0" type="curve" smooth="yes"/>
      <point x="600.0" y="1104.0"/>
      <point x="248.0" y="1076.0"/>
      <point x="250.0" y="768.0" type="curve" smooth="yes"/>
      <point x="250.0" y="646.0"/>
      <point x="290.0" y="576.0"/>
    </contour>
    <contour>
      <point x="472.0" y="-22.0" type="curve" smooth="yes"/>
      <point x="590.0" y="-22.0"/>
      <point x="682.0" y="78.0"/>
      <point x="682.0" y="190.0" type="curve" smooth="yes"/>
      <point x="682.0" y="302.0"/>
      <point x="606.0" y="384.0"/>
      <point x="490.0" y="384.0" type="curve" smooth="yes"/>
      <point x="372.0" y="384.0"/>
      <point x="276.0" y="286.0"/>
      <point x="278.0" y="174.0" type="curve" smooth="yes"/>
      <point x="278.0" y="62.0"/>
      <point x="358.0" y="-22.0"/>
    </contour>
  </outline>
</glyph>
<glyph name="at" format="2">
  <advance width="2192.0"/>
  <unicode hex="0040"/>
  <outline>
    <contour>
      <point x="1016.0" y="-450.0" type="curve" smooth="yes"/>
      <point x="1294.0" y="-450.0"/>
      <point x="1448.0" y="-376.0"/>
      <point x="1542.0" y="-312.0" type="curve"/>
      <point x="1498.0" y="-150.0" type="line"/>
      <point x="1414.0" y="-196.0"/>
      <point x="1294.0" y="-264.0"/>
      <point x="1036.0" y="-264.0" type="curve" smooth="yes"/>
      <point x="710.0" y="-264.0"/>
      <point x="360.0" y="-104.0"/>
      <point x="360.0" y="416.0" type="curve" smooth="yes"/>
      <point x="360.0" y="992.0"/>
      <point x="772.0" y="1320.0"/>
      <point x="1220.0" y="1320.0" type="curve" smooth="yes"/>
      <point x="1506.0" y="1320.0"/>
      <point x="1826.0" y="1196.0"/>
      <point x="1826.0" y="752.0" type="curve" smooth="yes"/>
      <point x="1826.0" y="396.0"/>
      <point x="1656.0" y="202.0"/>
      <point x="1514.0" y="202.0" type="curve" smooth="yes"/>
      <point x="1462.0" y="202.0"/>
      <point x="1446.0" y="258.0"/>
      <point x="1478.0" y="412.0" type="curve" smooth="yes"/>
      <point x="1518.0" y="592.0"/>
      <point x="1574.0" y="890.0"/>
      <point x="1604.0" y="1032.0" type="curve"/>
      <point x="1412.0" y="1000.0" type="line"/>
      <point x="1356.0" y="1036.0"/>
      <point x="1264.0" y="1054.0"/>
      <point x="1188.0" y="1054.0" type="curve" smooth="yes"/>
      <point x="772.0" y="1054.0"/>
      <point x="596.0" y="700.0"/>
      <point x="590.0" y="432.0" type="curve" smooth="yes"/>
      <point x="584.0" y="140.0"/>
      <point x="740.0" y="-4.0"/>
      <point x="884.0" y="-4.0" type="curve" smooth="yes"/>
      <point x="1148.0" y="-4.0"/>
      <point x="1288.0" y="312.0"/>
      <point x="1360.0" y="520.0" type="curve"/>
      <point x="1358.0" y="520.0"/>
      <point x="1288.0" y="520.0"/>
      <point x="1284.0" y="520.0" type="curve"/>
      <point x="1236.0" y="336.0"/>
      <point x="1230.0" y="240.0"/>
      <point x="1234.0" y="178.0" type="curve" smooth="yes"/>
      <point x="1242.0" y="44.0"/>
      <point x="1310.0" y="-4.0"/>
      <point x="1442.0" y="-4.0" type="curve" smooth="yes"/>
      <point x="1730.0" y="-4.0"/>
      <point x="2042.0" y="242.0"/>
      <point x="2042.0" y="778.0" type="curve" smooth="yes"/>
      <point x="2042.0" y="1250.0"/>
      <point x="1690.0" y="1506.0"/>
      <point x="1226.0" y="1506.0" type="curve" smooth="yes"/>
      <point x="638.0" y="1506.0"/>
      <point x="140.0" y="1072.0"/>
      <point x="140.0" y="418.0" type="curve" smooth="yes"/>
      <point x="140.0" y="-188.0"/>
      <point x="544.0" y="-450.0"/>
    </contour>
    <contour>
      <point x="960.0" y="248.0" type="curve" smooth="yes"/>
      <point x="904.0" y="248.0"/>
      <point x="864.0" y="314.0"/>
      <point x="866.0" y="450.0" type="curve" smooth="yes"/>
      <point x="868.0" y="648.0"/>
      <point x="994.0" y="840.0"/>
      <point x="1152.0" y="840.0" type="curve" smooth="yes"/>
      <point x="1216.0" y="840.0"/>
      <point x="1266.0" y="822.0"/>
      <point x="1290.0" y="794.0" type="curve"/>
      <point x="1262.0" y="570.0"/>
      <point x="1090.0" y="248.0"/>
    </contour>
  </outline>
</glyph>
<glyph name="B" format="2">
  <advance width="1428.0"/>
  <unicode hex="0042"/>
  <anchor x="714.0" y="0.0" name="bottom"/>
  <anchor x="828.0" y="-166.0" name="btm"/>
  <anchor x="708.0" y="1662.0" name="top"/>
  <outline>
    <contour>
      <point x="168.0" y="0.0" type="line"/>
      <point x="356.0" y="0.0" type="line"/>
      <point x="438.0" y="-4.0"/>
      <point x="600.0" y="-14.0"/>
      <point x="738.0" y="-14.0" type="curve" smooth="yes"/>
      <point x="1214.0" y="-14.0"/>
      <point x="1354.0" y="178.0"/>
      <point x="1354.0" y="450.0" type="curve" smooth="yes"/>
      <point x="1354.0" y="638.0"/>
      <point x="1224.0" y="764.0"/>
      <point x="1052.0" y="786.0" type="curve"/>
      <point x="1202.0" y="828.0"/>
      <point x="1276.0" y="960.0"/>
      <point x="1276.0" y="1118.0" type="curve" smooth="yes"/>
      <point x="1276.0" y="1354.0"/>
      <point x="1118.0" y="1500.0"/>
      <point x="704.0" y="1500.0" type="curve" smooth="yes"/>
      <point x="552.0" y="1500.0"/>
      <point x="452.0" y="1486.0"/>
      <point x="350.0" y="1486.0" type="curve"/>
      <point x="168.0" y="1488.0" type="line"/>
    </contour>
    <contour>
      <point x="538.0" y="882.0" type="curve"/>
      <point x="538.0" y="1238.0" type="line"/>
      <point x="556.0" y="1248.0"/>
      <point x="638.0" y="1250.0"/>
      <point x="666.0" y="1250.0" type="curve" smooth="yes"/>
      <point x="830.0" y="1250.0"/>
      <point x="920.0" y="1208.0"/>
      <point x="920.0" y="1084.0" type="curve" smooth="yes"/>
      <point x="920.0" y="928.0"/>
      <point x="840.0" y="874.0"/>
      <point x="682.0" y="874.0" type="curve" smooth="yes"/>
      <point x="648.0" y="874.0"/>
      <point x="570.0" y="876.0"/>
    </contour>
    <contour>
      <point x="538.0" y="252.0" type="curve"/>
      <point x="538.0" y="636.0" type="line"/>
      <point x="562.0" y="642.0"/>
      <point x="660.0" y="644.0"/>
      <point x="708.0" y="644.0" type="curve" smooth="yes"/>
      <point x="896.0" y="644.0"/>
      <point x="974.0" y="576.0"/>
      <point x="974.0" y="448.0" type="curve" smooth="yes"/>
      <point x="974.0" y="292.0"/>
      <point x="890.0" y="230.0"/>
      <point x="720.0" y="230.0" type="curve" smooth="yes"/>
      <point x="660.0" y="230.0"/>
      <point x="564.0" y="236.0"/>
    </contour>
  </outline>
</glyph>
<glyph name="C" format="2">
  <advance width="1288.0"/>
  <unicode hex="0043"/>
  <anchor x="638.0" y="0.0" name="bottom"/>
  <anchor x="772.0" y="-166.0" name="btm"/>
  <anchor x="820.0" y="1660.0" name="top"/>
  <outline>
    <contour>
      <point x="84.0" y="740.0" type="curve" smooth="yes"/>
      <point x="84.0" y="280.0"/>
      <point x="356.0" y="-16.0"/>
      <point x="848.0" y="-16.0" type="curve" smooth="yes"/>
      <point x="1022.0" y="-16.0"/>
      <point x="1136.0" y="30.0"/>
      <point x="1212.0" y="62.0" type="curve"/>
      <point x="1212.0" y="368.0" type="line"/>
      <point x="1162.0" y="326.0"/>
      <point x="1016.0" y="272.0"/>
      <point x="890.0" y="272.0" type="curve" smooth="yes"/>
      <point x="612.0" y="272.0"/>
      <point x="468.0" y="468.0"/>
      <point x="468.0" y="762.0" type="curve" smooth="yes"/>
      <point x="468.0" y="1050.0"/>
      <point x="646.0" y="1208.0"/>
      <point x="874.0" y="1208.0" type="curve" smooth="yes"/>
      <point x="1052.0" y="1208.0"/>
      <point x="1142.0" y="1150.0"/>
      <point x="1184.0" y="1122.0" type="curve"/>
      <point x="1232.0" y="1442.0" type="line"/>
      <point x="1142.0" y="1460.0"/>
      <point x="1050.0" y="1502.0"/>
      <point x="844.0" y="1502.0" type="curve" smooth="yes"/>
      <point x="418.0" y="1502.0"/>
      <point x="84.0" y="1244.0"/>
    </contour>
  </outline>
</glyph>
<glyph name="D" format="2">
  <advance width="1516.0"/>
  <unicode hex="0044"/>
  <anchor x="754.0" y="0.0" name="bottom"/>
  <anchor x="704.0" y="-166.0" name="btm"/>
  <anchor x="754.0" y="744.0" name="center"/>
  <anchor x="750.0" y="1660.0" name="top"/>
  <outline>
    <contour>
      <point x="160.0" y="0.0" type="line"/>
      <point x="204.0" y="0.0"/>
      <point x="248.0" y="0.0"/>
      <point x="292.0" y="0.0" type="curve" smooth="yes"/>
      <point x="406.0" y="0.0"/>
      <point x="536.0" y="-14.0"/>
      <point x="682.0" y="-16.0" type="curve" smooth="yes"/>
      <point x="1158.0" y="-18.0"/>
      <point x="1434.0" y="274.0"/>
      <point x="1434.0" y="780.0" type="curve" smooth="yes"/>
      <point x="1434.0" y="1238.0"/>
      <point x="1208.0" y="1502.0"/>
      <point x="704.0" y="1502.0" type="curve" smooth="yes"/>
      <point x="566.0" y="1502.0"/>
      <point x="372.0" y="1486.0"/>
      <point x="298.0" y="1486.0" type="curve" smooth="yes"/>
      <point x="252.0" y="1486.0"/>
      <point x="206.0" y="1486.0"/>
      <point x="160.0" y="1486.0" type="curve"/>
    </contour>
    <contour>
      <point x="534.0" y="274.0" type="curve"/>
      <point x="534.0" y="1220.0" type="line"/>
      <point x="570.0" y="1226.0"/>
      <point x="640.0" y="1234.0"/>
      <point x="690.0" y="1234.0" type="curve" smooth="yes"/>
      <point x="932.0" y="1234.0"/>
      <point x="1048.0" y="1106.0"/>
      <point x="1048.0" y="748.0" type="curve" smooth="yes"/>
      <point x="1048.0" y="410.0"/>
      <point x="912.0" y="260.0"/>
      <point x="704.0" y="258.0" type="curve" smooth="yes"/>
      <point x="638.0" y="258.0"/>
      <point x="572.0" y="262.0"/>
    </contour>
  </outline>
</glyph>
<glyph name="E" format="2">
  <advance width="1232.0"/>
  <unicode hex="0045"/>
  <anchor x="612.0" y="0.0" name="bottom"/>
  <anchor x="658.0" y="-166.0" name="btm"/>
  <anchor x="1080.0" y="20.0" name="ogonek"/>
  <anchor x="636.0" y="1660.0" name="top"/>
  <anchor x="32.0" y="1486.0" name="topleft"/>
  <outline>
    <contour>
      <point x="160.0" y="0.0" type="line"/>
      <point x="1158.0" y="0.0" type="line"/>
      <point x="1158.0" y="284.0" type="line"/>
      <point x="530.0" y="284.0" type="line"/>
      <point x="530.0" y="624.0" type="line"/>
      <point x="970.0" y="624.0" type="line"/>
      <point x="970.0" y="894.0" type="line"/>
      <point x="530.0" y="894.0" type="line"/>
      <point x="530.0" y="1208.0" type="line"/>
      <point x="1100.0" y="1208.0" type="line"/>
      <point x="1100.0" y="1486.0" type="line"/>
      <point x="160.0" y="1486.0" type="line"/>
    </contour>
  </outline>
</glyph>
<glyph name="F" format="2">
  <advance width="564.0"/>
  <unicode hex="0046"/>
  <anchor x="280.0" y="0.0" name="bottom"/>
  <anchor x="320.0" y="-83.0" name="btm"/>
  <anchor x="324.0" y="831.0" name="top"/>
  <outline>
    <contour>
      <point x="80.0" y="0.0" type="line"/>
      <point x="266.0" y="0.0" type="line"/>
      <point x="266.0" y="289.0" type="line"/>
      <point x="477.0" y="289.0" type="line"/>
      <point x="477.0" y="427.0" type="line"/>
      <point x="266.0" y="427.0" type="line"/>
      <point x="266.0" y="604.0" type="line"/>
      <point x="544.0" y="604.0" type="line"/>
      <point x="544.0" y="743.0" type="line"/>
      <point x="80.0" y="743.0" type="line"/>
    </contour>
  </outline>
</glyph>
<glyph name="G" format="2">
  <advance width="1472.0"/>
  <unicode hex="0047"/>
  <anchor x="736.0" y="0.0" name="bottom"/>
  <anchor x="788.0" y="-166.0" name="btm"/>
  <anchor x="822.0" y="1662.0" name="top"/>
  <outline>
    <contour>
      <point x="84.0" y="736.0" type="curve" smooth="yes"/>
      <point x="84.0" y="262.0"/>
      <point x="368.0" y="-16.0"/>
      <point x="810.0" y="-16.0" type="curve" smooth="yes"/>
      <point x="1148.0" y="-16.0"/>
      <point x="1244.0" y="80.0"/>
      <point x="1360.0" y="84.0" type="curve"/>
      <point x="1360.0" y="834.0" type="line"/>
      <point x="808.0" y="834.0" type="line"/>
      <point x="808.0" y="568.0" type="line"/>
      <point x="1056.0" y="550.0" type="line"/>
      <point x="1020.0" y="594.0" type="line"/>
      <point x="1020.0" y="292.0" type="line"/>
      <point x="972.0" y="274.0"/>
      <point x="908.0" y="262.0"/>
      <point x="804.0" y="262.0" type="curve" smooth="yes"/>
      <point x="582.0" y="262.0"/>
      <point x="462.0" y="474.0"/>
      <point x="462.0" y="762.0" type="curve" smooth="yes"/>
      <point x="462.0" y="1042.0"/>
      <point x="610.0" y="1210.0"/>
      <point x="868.0" y="1210.0" type="curve" smooth="yes"/>
      <point x="1066.0" y="1210.0"/>
      <point x="1192.0" y="1172.0"/>
      <point x="1270.0" y="1132.0" type="curve"/>
      <point x="1280.0" y="1444.0" type="line"/>
      <point x="1166.0" y="1464.0"/>
      <point x="1070.0" y="1502.0"/>
      <point x="852.0" y="1502.0" type="curve" smooth="yes"/>
      <point x="422.0" y="1502.0"/>
      <point x="84.0" y="1286.0"/>
    </contour>
  </outline>
</glyph>
<glyph name="H" format="2">
  <advance width="788.0"/>
  <unicode hex="0048"/>
  <anchor x="394.0" y="0.0" name="bottom"/>
  <anchor x="395.0" y="-83.0" name="btm"/>
  <anchor x="394.0" y="372.0" name="center"/>
  <anchor x="394.0" y="830.0" name="top"/>
  <anchor x="16.0" y="743.0" name="topleft"/>
  <outline>
    <contour>
      <point x="80.0" y="0.0" type="line"/>
      <point x="267.0" y="0.0" type="line"/>
      <point x="267.0" y="308.0" type="line"/>
      <point x="522.0" y="308.0" type="line"/>
      <point x="522.0" y="0.0" type="line"/>
      <point x="708.0" y="0.0" type="line"/>
      <point x="708.0" y="743.0" type="line"/>
      <point x="522.0" y="743.0" type="line"/>
      <point x="522.0" y="442.0" type="line"/>
      <point x="267.0" y="442.0" type="line"/>
      <point x="267.0" y="743.0" type="line"/>
      <point x="80.0" y="743.0" type="line"/>
    </contour>
  </outline>
</glyph>
<glyph name="I" format="2">
  <advance width="736.0"/>
  <unicode hex="0049"/>
  <anchor x="368.0" y="0.0" name="bottom"/>
  <anchor x="368.0" y="-166.0" name="btm"/>
  <anchor x="516.0" y="20.0" name="ogonek"/>
  <anchor x="370.0" y="1660.0" name="top"/>
  <anchor x="40.0" y="1486.0" name="topleft"/>
  <outline>
    <contour>
      <point x="180.0" y="0.0" type="line"/>
      <point x="556.0" y="0.0" type="line"/>
      <point x="556.0" y="1486.0" type="line"/>
      <point x="180.0" y="1486.0" type="line"/>
    </contour>
  </outline>
</glyph>
<glyph name="J" format="2">
  <advance width="782.0"/>
  <unicode hex="004A"/>
  <anchor x="392.0" y="0.0" name="bottom"/>
  <anchor x="230.0" y="-166.0" name="btm"/>
  <anchor x="412.0" y="1662.0" name="top"/>
  <outline>
    <contour>
      <point x="46.0" y="-324.0" type="line"/>
      <point x="214.0" y="-332.0"/>
      <point x="532.0" y="-196.0"/>
      <point x="588.0" y="92.0" type="curve" smooth="yes"/>
      <point x="616.0" y="232.0"/>
      <point x="606.0" y="404.0"/>
      <point x="606.0" y="598.0" type="curve" smooth="yes"/>
      <point x="606.0" y="1486.0" type="line"/>
      <point x="232.0" y="1486.0" type="line"/>
      <point x="232.0" y="594.0" type="line" smooth="yes"/>
      <point x="232.0" y="340.0"/>
      <point x="230.0" y="212.0"/>
      <point x="200.0" y="108.0" type="curve" smooth="yes"/>
      <point x="160.0" y="-38.0"/>
      <point x="62.0" y="-100.0"/>
      <point x="-34.0" y="-138.0" type="curve"/>
    </contour>
  </outline>
</glyph>
<glyph name="K" format="2">
  <advance width="713.0"/>
  <unicode hex="004B"/>
  <anchor x="355.0" y="0.0" name="bottom"/>
  <anchor x="371.0" y="-83.0" name="btm"/>
  <anchor x="371.0" y="831.0" name="top"/>
  <outline>
    <contour>
      <point x="80.0" y="0.0" type="line"/>
      <point x="262.0" y="0.0" type="line"/>
      <point x="262.0" y="297.0" type="line"/>
      <point x="242.0" y="187.0" type="line"/>
      <point x="381.0" y="352.0" type="line"/>
      <point x="424.0" y="385.0" type="line"/>
      <point x="699.0" y="743.0" type="line"/>
      <point x="497.0" y="743.0" type="line"/>
      <point x="262.0" y="427.0" type="line"/>
      <point x="262.0" y="743.0" type="line"/>
      <point x="80.0" y="743.0" type="line"/>
    </contour>
    <contour>
      <point x="472.0" y="59.0" type="curve" smooth="yes"/>
      <point x="488.0" y="28.0"/>
      <point x="495.0" y="13.0"/>
      <point x="503.0" y="0.0" type="curve"/>
      <point x="712.0" y="0.0" type="line"/>
      <point x="701.0" y="18.0"/>
      <point x="691.0" y="36.0"/>
      <point x="680.0" y="54.0" type="curve"/>
      <point x="604.0" y="184.0"/>
      <point x="488.0" y="385.0"/>
      <point x="440.0" y="444.0" type="curve"/>
      <point x="387.0" y="384.0" type="line"/>
      <point x="320.0" y="311.0" type="line"/>
      <point x="372.0" y="235.0"/>
      <point x="422.0" y="153.0"/>
    </contour>
  </outline>
</glyph>
<glyph name="L" format="2">
  <advance width="1088.0"/>
  <unicode hex="004C"/>
  <anchor x="540.0" y="0.0" name="bottom"/>
  <anchor x="582.0" y="-166.0" name="btm"/>
  <anchor x="540.0" y="744.0" name="center"/>
  <anchor x="348.0" y="1660.0" name="top"/>
  <anchor x="1048.0" y="1486.0" name="topright"/>
  <outline>
    <contour>
      <point x="160.0" y="0.0" type="line"/>
      <point x="1030.0" y="0.0" type="line"/>
      <point x="1030.0" y="300.0" type="line"/>
      <point x="528.0" y="300.0" type="line"/>
      <point x="528.0" y="1486.0" type="line"/>
      <point x="160.0" y="1486.0" type="line"/>
    </contour>
  </outline>
</glyph>
<glyph name="M" format="2">
  <advance width="971.0"/>
  <unicode hex="004D"/>
  <anchor x="487.0" y="0.0" name="bottom"/>
  <anchor x="492.0" y="-83.0" name="btm"/>
  <anchor x="492.0" y="800.0" name="top"/>
  <outline>
    <contour>
      <point x="34.0" y="0.0" type="line"/>
      <point x="206.0" y="0.0" type="line"/>
      <point x="235.0" y="391.0" type="line"/>
      <point x="248.0" y="605.0" type="line"/>
      <point x="297.0" y="385.0" type="line"/>
      <point x="405.0" y="-4.0" type="line"/>
      <point x="570.0" y="-4.0" type="line"/>
      <point x="670.0" y="385.0" type="line"/>
      <point x="716.0" y="605.0" type="line"/>
      <point x="727.0" y="391.0" type="line"/>
      <point x="758.0" y="0.0" type="line"/>
      <point x="937.0" y="0.0" type="line"/>
      <point x="845.0" y="743.0" type="line"/>
      <point x="602.0" y="743.0" type="line"/>
      <point x="522.0" y="362.0" type="line"/>
      <point x="495.0" y="188.0" type="line"/>
      <point x="461.0" y="362.0" type="line"/>
      <point x="371.0" y="743.0" type="line"/>
      <point x="120.0" y="743.0" type="line"/>
    </contour>
  </outline>
</glyph>
<glyph name="N" format="2">
  <advance width="1576.0"/>
  <unicode hex="004E"/>
  <anchor x="788.0" y="0.0" name="bottom"/>
  <anchor x="754.0" y="-166.0" name="btm"/>
  <anchor x="794.0" y="1660.0" name="top"/>
  <outline>
    <contour>
      <point x="160.0" y="0.0" type="line"/>
      <point x="498.0" y="0.0" type="line"/>
      <point x="498.0" y="642.0" type="line"/>
      <point x="424.0" y="1252.0" type="line"/>
      <point x="342.0" y="1252.0" type="line"/>
      <point x="560.0" y="796.0" type="line"/>
      <point x="1042.0" y="0.0" type="line"/>
      <point x="1416.0" y="0.0" type="line"/>
      <point x="1416.0" y="1486.0" type="line"/>
      <point x="1078.0" y="1486.0" type="line"/>
      <point x="1078.0" y="832.0" type="line"/>
      <point x="1138.0" y="270.0" type="line"/>
      <point x="1206.0" y="270.0" type="line"/>
      <point x="1016.0" y="670.0" type="line"/>
      <point x="508.0" y="1486.0" type="line"/>
      <point x="160.0" y="1486.0" type="line"/>
    </contour>
  </outline>
</glyph>
<glyph name="O" format="2">
  <advance width="1552.0"/>
  <unicode hex="004F"/>
  <anchor x="778.0" y="0.0" name="bottom"/>
  <anchor x="774.0" y="-166.0" name="btm"/>
  <anchor x="778.0" y="744.0" name="center"/>
  <anchor x="992.0" y="20.0" name="ogonek"/>
  <anchor x="790.0" y="1660.0" name="top"/>
  <anchor x="34.0" y="1486.0" name="topleft"/>
  <anchor x="1022.0" y="1442.0" name="topright"/>
  <outline>
    <contour>
      <point x="772.0" y="-16.0" type="curve" smooth="yes"/>
      <point x="1178.0" y="-8.0"/>
      <point x="1458.0" y="218.0"/>
      <point x="1468.0" y="746.0" type="curve" smooth="yes"/>
      <point x="1476.0" y="1216.0"/>
      <point x="1222.0" y="1514.0"/>
      <point x="800.0" y="1502.0" type="curve" smooth="yes"/>
      <point x="388.0" y="1490.0"/>
      <point x="94.0" y="1278.0"/>
      <point x="84.0" y="750.0" type="curve" smooth="yes"/>
      <point x="76.0" y="278.0"/>
      <point x="332.0" y="-24.0"/>
    </contour>
    <contour>
      <point x="778.0" y="252.0" type="curve" smooth="yes"/>
      <point x="568.0" y="252.0"/>
      <point x="464.0" y="456.0"/>
      <point x="464.0" y="740.0" type="curve" smooth="yes"/>
      <point x="464.0" y="1108.0"/>
      <point x="612.0" y="1226.0"/>
      <point x="794.0" y="1226.0" type="curve" smooth="yes"/>
      <point x="994.0" y="1226.0"/>
      <point x="1088.0" y="1036.0"/>
      <point x="1088.0" y="756.0" type="curve" smooth="yes"/>
      <point x="1088.0" y="394.0"/>
      <point x="970.0" y="252.0"/>
    </contour>
  </outline>
</glyph>
<glyph name="P" format="2">
  <advance width="1352.0"/>
  <unicode hex="0050"/>
  <anchor x="672.0" y="0.0" name="bottom"/>
  <anchor x="678.0" y="-166.0" name="btm"/>
  <anchor x="742.0" y="1662.0" name="top"/>
  <outline>
    <contour>
      <point x="160.0" y="0.0" type="line"/>
      <point x="534.0" y="0.0" type="line"/>
      <point x="534.0" y="430.0" type="line"/>
      <point x="566.0" y="430.0"/>
      <point x="608.0" y="428.0"/>
      <point x="686.0" y="428.0" type="curve" smooth="yes"/>
      <point x="1082.0" y="428.0"/>
      <point x="1296.0" y="626.0"/>
      <point x="1296.0" y="978.0" type="curve" smooth="yes"/>
      <point x="1296.0" y="1364.0"/>
      <point x="1082.0" y="1502.0"/>
      <point x="724.0" y="1502.0" type="curve" smooth="yes"/>
      <point x="576.0" y="1502.0"/>
      <point x="442.0" y="1486.0"/>
      <point x="306.0" y="1486.0" type="curve" smooth="yes"/>
      <point x="160.0" y="1486.0" type="line"/>
    </contour>
    <contour>
      <point x="534.0" y="704.0" type="curve"/>
      <point x="534.0" y="1232.0" type="line"/>
      <point x="576.0" y="1238.0"/>
      <point x="632.0" y="1242.0"/>
      <point x="678.0" y="1242.0" type="curve" smooth="yes"/>
      <point x="852.0" y="1248.0"/>
      <point x="932.0" y="1140.0"/>
      <point x="932.0" y="980.0" type="curve" smooth="yes"/>
      <point x="932.0" y="772.0"/>
      <point x="826.0" y="696.0"/>
      <point x="686.0" y="696.0" type="curve" smooth="yes"/>
      <point x="624.0" y="696.0"/>
      <point x="576.0" y="700.0"/>
    </contour>
  </outline>
</glyph>
<glyph name="Q" format="2">
  <advance width="1566.0"/>
  <unicode hex="0051"/>
  <anchor x="784.0" y="0.0" name="bottom"/>
  <anchor x="784.0" y="-166.0" name="btm"/>
  <anchor x="784.0" y="1660.0" name="top"/>
  <anchor x="778.0" y="744.0" name="center"/>
  <anchor x="992.0" y="20.0" name="ogonek"/>
  <anchor x="34.0" y="1486.0" name="topleft"/>
  <anchor x="1022.0" y="1442.0" name="topright"/>
  <outline>
    <contour>
      <point x="1192.0" y="-346.0" type="curve" smooth="yes"/>
      <point x="1286.0" y="-346.0"/>
      <point x="1352.0" y="-320.0"/>
      <point x="1388.0" y="-302.0" type="curve"/>
      <point x="1388.0" y="-52.0" type="line"/>
      <point x="1348.0" y="-66.0"/>
      <point x="1290.0" y="-80.0"/>
      <point x="1234.0" y="-80.0" type="curve" smooth="yes"/>
      <point x="1052.0" y="-80.0"/>
      <point x="986.0" y="-64.0"/>
      <point x="952.0" y="54.0" type="curve"/>
      <point x="850.0" y="54.0" type="line"/>
      <point x="672.0" y="8.0" type="line"/>
      <point x="746.0" y="-254.0"/>
      <point x="862.0" y="-346.0"/>
    </contour>
    <component base="O"/>
  </outline>
</glyph>
<glyph name="R" format="2">
  <advance width="1428.0"/>
  <unicode hex="0052"/>
  <anchor x="710.0" y="0.0" name="bottom"/>
  <anchor x="724.0" y="-166.0" name="btm"/>
  <anchor x="686.0" y="1660.0" name="top"/>
  <outline>
    <contour>
      <point x="532.0" y="0.0" type="line"/>
      <point x="532.0" y="526.0" type="line"/>
      <point x="764.0" y="526.0"/>
      <point x="816.0" y="542.0"/>
      <point x="894.0" y="556.0" type="curve" smooth="yes"/>
      <point x="1128.0" y="592.0"/>
      <point x="1290.0" y="726.0"/>
      <point x="1290.0" y="1030.0" type="curve" smooth="yes"/>
      <point x="1290.0" y="1404.0"/>
      <point x="998.0" y="1502.0"/>
      <point x="736.0" y="1502.0" type="curve" smooth="yes"/>
      <point x="524.0" y="1502.0"/>
      <point x="394.0" y="1486.0"/>
      <point x="288.0" y="1486.0" type="curve" smooth="yes"/>
      <point x="246.0" y="1486.0"/>
      <point x="202.0" y="1486.0"/>
      <point x="160.0" y="1486.0" type="curve"/>
      <point x="160.0" y="0.0" type="line"/>
    </contour>
    <contour>
      <point x="532.0" y="784.0" type="curve"/>
      <point x="532.0" y="1222.0" type="line"/>
      <point x="578.0" y="1234.0"/>
      <point x="636.0" y="1240.0"/>
      <point x="690.0" y="1240.0" type="curve" smooth="yes"/>
      <point x="886.0" y="1240.0"/>
      <point x="932.0" y="1134.0"/>
      <point x="932.0" y="1024.0" type="curve" smooth="yes"/>
      <point x="932.0" y="886.0"/>
      <point x="866.0" y="776.0"/>
      <point x="714.0" y="776.0" type="curve" smooth="yes"/>
      <point x="666.0" y="776.0"/>
      <point x="572.0" y="778.0"/>
    </contour>
    <contour>
      <point x="980.0" y="0.0" type="curve"/>
      <point x="1390.0" y="0.0" type="line"/>
      <point x="1370.0" y="36.0"/>
      <point x="1348.0" y="72.0"/>
      <point x="1328.0" y="108.0" type="curve" smooth="yes"/>
      <point x="1216.0" y="302.0"/>
      <point x="1160.0" y="562.0"/>
      <point x="1010.0" y="630.0" type="curve"/>
      <point x="774.0" y="598.0" type="line"/>
      <point x="688.0" y="530.0" type="line"/>
      <point x="812.0" y="528.0"/>
      <point x="846.0" y="284.0"/>
      <point x="926.0" y="106.0" type="curve" smooth="yes"/>
      <point x="954.0" y="42.0"/>
      <point x="964.0" y="20.0"/>
    </contour>
  </outline>
</glyph>
<glyph name="S" format="2">
  <advance width="1198.0"/>
  <unicode hex="0053"/>
  <anchor x="584.0" y="0.0" name="bottom"/>
  <anchor x="576.0" y="-166.0" name="btm"/>
  <anchor x="632.0" y="1660.0" name="top"/>
  <outline>
    <contour>
      <point x="580.0" y="-16.0" type="curve" smooth="yes"/>
      <point x="930.0" y="-16.0"/>
      <point x="1122.0" y="158.0"/>
      <point x="1122.0" y="424.0" type="curve" smooth="yes"/>
      <point x="1122.0" y="658.0"/>
      <point x="970.0" y="772.0"/>
      <point x="714.0" y="886.0" type="curve" smooth="yes"/>
      <point x="534.0" y="968.0"/>
      <point x="458.0" y="1018.0"/>
      <point x="458.0" y="1108.0" type="curve" smooth="yes"/>
      <point x="458.0" y="1182.0"/>
      <point x="522.0" y="1232.0"/>
      <point x="662.0" y="1232.0" type="curve" smooth="yes"/>
      <point x="792.0" y="1232.0"/>
      <point x="932.0" y="1184.0"/>
      <point x="992.0" y="1138.0" type="curve"/>
      <point x="1050.0" y="1416.0" type="line"/>
      <point x="996.0" y="1448.0"/>
      <point x="854.0" y="1502.0"/>
      <point x="630.0" y="1502.0" type="curve" smooth="yes"/>
      <point x="316.0" y="1502.0"/>
      <point x="100.0" y="1366.0"/>
      <point x="100.0" y="1094.0" type="curve" smooth="yes"/>
      <point x="100.0" y="856.0"/>
      <point x="260.0" y="724.0"/>
      <point x="448.0" y="634.0" type="curve" smooth="yes"/>
      <point x="670.0" y="528.0"/>
      <point x="750.0" y="492.0"/>
      <point x="750.0" y="396.0" type="curve" smooth="yes"/>
      <point x="750.0" y="308.0"/>
      <point x="690.0" y="270.0"/>
      <point x="550.0" y="270.0" type="curve" smooth="yes"/>
      <point x="394.0" y="270.0"/>
      <point x="230.0" y="324.0"/>
      <point x="156.0" y="366.0" type="curve"/>
      <point x="110.0" y="76.0" type="line"/>
      <point x="168.0" y="40.0"/>
      <point x="368.0" y="-16.0"/>
    </contour>
  </outline>
</glyph>
<glyph name="T" format="2">
  <advance width="1224.0"/>
  <unicode hex="0054"/>
  <anchor x="612.0" y="0.0" name="bottom"/>
  <anchor x="612.0" y="744.0" name="center"/>
  <anchor x="610.0" y="1660.0" name="top"/>
  <outline>
    <contour>
      <point x="424.0" y="0.0" type="line"/>
      <point x="800.0" y="0.0" type="line"/>
      <point x="800.0" y="1200.0" type="line"/>
      <point x="1196.0" y="1200.0" type="line"/>
      <point x="1196.0" y="1486.0" type="line"/>
      <point x="28.0" y="1486.0" type="line"/>
      <point x="28.0" y="1200.0" type="line"/>
      <point x="424.0" y="1200.0" type="line"/>
    </contour>
  </outline>
</glyph>
<glyph name="U" format="2">
  <advance width="753.0"/>
  <unicode hex="0055"/>
  <anchor x="376.0" y="0.0" name="bottom"/>
  <anchor x="374.0" y="-83.0" name="btm"/>
  <anchor x="678.0" y="10.0" name="ogonek"/>
  <anchor x="376.0" y="830.0" name="top"/>
  <anchor x="567.0" y="743.0" name="topright"/>
  <outline>
    <contour>
      <point x="380.0" y="-8.0" type="curve" smooth="yes"/>
      <point x="594.0" y="-8.0"/>
      <point x="687.0" y="110.0"/>
      <point x="687.0" y="309.0" type="curve" smooth="yes"/>
      <point x="687.0" y="743.0" type="line"/>
      <point x="503.0" y="743.0" type="line"/>
      <point x="503.0" y="334.0" type="line" smooth="yes"/>
      <point x="503.0" y="182.0"/>
      <point x="461.0" y="139.0"/>
      <point x="377.0" y="139.0" type="curve" smooth="yes"/>
      <point x="294.0" y="139.0"/>
      <point x="250.0" y="178.0"/>
      <point x="251.0" y="334.0" type="curve" smooth="yes"/>
      <point x="253.0" y="743.0" type="line"/>
      <point x="68.0" y="743.0" type="line"/>
      <point x="66.0" y="312.0" type="line" smooth="yes"/>
      <point x="66.0" y="120.0"/>
      <point x="150.0" y="-8.0"/>
    </contour>
  </outline>
</glyph>
<glyph name="V" format="2">
  <advance width="1376.0"/>
  <unicode hex="0056"/>
  <anchor x="688.0" y="0.0" name="bottom"/>
  <anchor x="690.0" y="-166.0" name="btm"/>
  <anchor x="690.0" y="1662.0" name="top"/>
  <outline>
    <contour>
      <point x="528.0" y="-4.0" type="line"/>
      <point x="852.0" y="-4.0" type="line"/>
      <point x="1388.0" y="1486.0" type="line"/>
      <point x="992.0" y="1486.0" type="line"/>
      <point x="770.0" y="736.0" type="line"/>
      <point x="696.0" y="446.0" type="line"/>
      <point x="622.0" y="736.0" type="line"/>
      <point x="384.0" y="1486.0" type="line"/>
      <point x="-12.0" y="1486.0" type="line"/>
    </contour>
  </outline>
</glyph>
<glyph name="W" format="2">
  <advance width="1952.0"/>
  <unicode hex="0057"/>
  <anchor x="976.0" y="0.0" name="bottom"/>
  <anchor x="964.0" y="-166.0" name="btm"/>
  <anchor x="964.0" y="1660.0" name="top"/>
  <outline>
    <contour>
      <point x="378.0" y="-10.0" type="line"/>
      <point x="738.0" y="-10.0" type="line"/>
      <point x="926.0" y="766.0" type="line"/>
      <point x="1014.0" y="1410.0" type="line"/>
      <point x="918.0" y="1410.0" type="line"/>
      <point x="1016.0" y="766.0" type="line"/>
      <point x="1206.0" y="-10.0" type="line"/>
      <point x="1572.0" y="-10.0" type="line"/>
      <point x="1964.0" y="1486.0" type="line"/>
      <point x="1606.0" y="1486.0" type="line"/>
      <point x="1452.0" y="656.0" type="line"/>
      <point x="1388.0" y="168.0" type="line"/>
      <point x="1432.0" y="168.0" type="line"/>
      <point x="1352.0" y="656.0" type="line"/>
      <point x="1150.0" y="1486.0" type="line"/>
      <point x="812.0" y="1486.0" type="line"/>
      <point x="616.0" y="656.0" type="line"/>
      <point x="542.0" y="170.0" type="line"/>
      <point x="580.0" y="170.0" type="line"/>
      <point x="516.0" y="656.0" type="line"/>
      <point x="360.0" y="1486.0" type="line"/>
      <point x="-12.0" y="1486.0" type="line"/>
    </contour>
  </outline>
</glyph>
<glyph name="Z" format="2">
  <advance width="627.0"/>
  <unicode hex="005A"/>
  <anchor x="309.0" y="0.0" name="bottom"/>
  <anchor x="300.0" y="-83.0" name="btm"/>
  <anchor x="309.0" y="372.0" name="center"/>
  <anchor x="315.0" y="830.0" name="top"/>
  <outline>
    <contour>
      <point x="40.0" y="0.0" type="line"/>
      <point x="591.0" y="0.0" type="line"/>
      <point x="591.0" y="139.0" type="line"/>
      <point x="274.0" y="139.0" type="line"/>
      <point x="310.0" y="190.0" type="line"/>
      <point x="609.0" y="704.0" type="line"/>
      <point x="589.0" y="743.0" type="line"/>
      <point x="55.0" y="743.0" type="line"/>
      <point x="55.0" y="607.0" type="line"/>
      <point x="357.0" y="607.0" type="line"/>
      <point x="325.0" y="560.0" type="line"/>
      <point x="20.0" y="41.0" type="line"/>
    </contour>
  </outline>
</glyph>
<glyph name="bracketleft" format="2">
  <advance width="414.0"/>
  <unicode hex="005B"/>
  <outline>
    <contour>
      <point x="80.0" y="33.0" type="line"/>
      <point x="80.0" y="-63.0"/>
      <point x="103.0" y="-105.0"/>
      <point x="178.0" y="-105.0" type="curve" smooth="yes"/>
      <point x="257.0" y="-105.0"/>
      <point x="307.0" y="-98.0"/>
      <point x="359.0" y="-91.0" type="curve"/>
      <point x="359.0" y="-6.0" type="line"/>
      <point x="236.0" y="-6.0" type="line"/>
      <point x="236.0" y="753.0" type="line"/>
      <point x="359.0" y="753.0" type="line"/>
      <point x="359.0" y="842.0" type="line"/>
      <point x="307.0" y="847.0"/>
      <point x="257.0" y="854.0"/>
      <point x="178.0" y="854.0" type="curve" smooth="yes"/>
      <point x="103.0" y="854.0"/>
      <point x="80.0" y="822.0"/>
      <point x="80.0" y="726.0" type="curve" smooth="yes"/>
    </contour>
  </outline>
</glyph>
<glyph name="underscore" format="2">
  <advance width="1660.0"/>
  <unicode hex="005F"/>
  <outline>
    <contour>
      <point x="-36.0" y="-398.0" type="line"/>
      <point x="1696.0" y="-398.0" type="line"/>
      <point x="1696.0" y="-228.0" type="line"/>
      <point x="-36.0" y="-228.0" type="line"/>
    </contour>
  </outline>
</glyph>
<glyph name="grave" format="2">
  <advance width="684.0"/>
  <unicode hex="0060"/>
  <anchor x="508.0" y="1662.0" name="_top"/>
  <outline>
    <contour>
      <point x="636.0" y="1348.0" type="line"/>
      <point x="536.0" y="1440.0"/>
      <point x="384.0" y="1646.0"/>
      <point x="302.0" y="1782.0" type="curve"/>
      <point x="64.0" y="1598.0" type="line"/>
      <point x="132.0" y="1446.0"/>
      <point x="382.0" y="1238.0"/>
      <point x="472.0" y="1194.0" type="curve"/>
    </contour>
  </outline>
</glyph>
<glyph name="b" format="2">
  <advance width="1324.0"/>
  <unicode hex="0062"/>
  <anchor x="658.0" y="0.0" name="bottom"/>
  <anchor x="760.0" y="-166.0" name="btm"/>
  <anchor x="852.0" y="1662.0" name="top"/>
  <outline>
    <contour>
      <point x="140.0" y="1622.0" type="line"/>
      <point x="140.0" y="62.0" type="line"/>
      <point x="496.0" y="170.0" type="line"/>
      <point x="496.0" y="966.0" type="line"/>
      <point x="486.0" y="972.0" type="line"/>
      <point x="496.0" y="1220.0" type="line"/>
      <point x="496.0" y="1622.0" type="line"/>
    </contour>
    <contour>
      <point x="654.0" y="-20.0" type="curve" smooth="yes"/>
      <point x="1012.0" y="-20.0"/>
      <point x="1240.0" y="220.0"/>
      <point x="1240.0" y="598.0" type="curve" smooth="yes"/>
      <point x="1240.0" y="958.0"/>
      <point x="1040.0" y="1128.0"/>
      <point x="802.0" y="1128.0" type="curve" smooth="yes"/>
      <point x="604.0" y="1128.0"/>
      <point x="504.0" y="1038.0"/>
      <point x="458.0" y="988.0" type="curve"/>
      <point x="496.0" y="802.0" type="line"/>
      <point x="530.0" y="828.0"/>
      <point x="602.0" y="860.0"/>
      <point x="678.0" y="860.0" type="curve" smooth="yes"/>
      <point x="788.0" y="860.0"/>
      <point x="866.0" y="796.0"/>
      <point x="866.0" y="576.0" type="curve" smooth="yes"/>
      <point x="866.0" y="350.0"/>
      <point x="772.0" y="222.0"/>
      <point x="648.0" y="222.0" type="curve" smooth="yes"/>
      <point x="570.0" y="222.0"/>
      <point x="516.0" y="232.0"/>
      <point x="496.0" y="256.0" type="curve"/>
      <point x="140.0" y="62.0" type="line"/>
      <point x="166.0" y="40.0"/>
      <point x="420.0" y="-20.0"/>
    </contour>
  </outline>
</glyph>
<glyph name="c" format="2">
  <advance width="504.0"/>
  <unicode hex="0063"/>
  <anchor x="248.0" y="0.0" name="bottom"/>
  <anchor x="288.0" y="-83.0" name="btm"/>
  <anchor x="298.0" y="831.0" name="top"/>
  <outline>
    <contour>
      <point x="34.0" y="273.0" type="curve" smooth="yes"/>
      <point x="34.0" y="112.0"/>
      <point x="119.0" y="-8.0"/>
      <point x="303.0" y="-8.0" type="curve" smooth="yes"/>
      <point x="375.0" y="-8.0"/>
      <point x="448.0" y="5.0"/>
      <point x="479.0" y="37.0" type="curve"/>
      <point x="456.0" y="151.0" type="line"/>
      <point x="432.0" y="140.0"/>
      <point x="389.0" y="131.0"/>
      <point x="342.0" y="131.0" type="curve" smooth="yes"/>
      <point x="272.0" y="131.0"/>
      <point x="215.0" y="171.0"/>
      <point x="217.0" y="286.0" type="curve" smooth="yes"/>
      <point x="219.0" y="391.0"/>
      <point x="283.0" y="424.0"/>
      <point x="341.0" y="424.0" type="curve" smooth="yes"/>
      <point x="394.0" y="424.0"/>
      <point x="428.0" y="413.0"/>
      <point x="450.0" y="401.0" type="curve"/>
      <point x="470.0" y="537.0" type="line"/>
      <point x="452.0" y="550.0"/>
      <point x="391.0" y="564.0"/>
      <point x="316.0" y="564.0" type="curve" smooth="yes"/>
      <point x="121.0" y="564.0"/>
      <point x="34.0" y="436.0"/>
    </contour>
  </outline>
</glyph>
<glyph name="d" format="2">
  <advance width="672.0"/>
  <unicode hex="0064"/>
  <anchor x="335.0" y="0.0" name="bottom"/>
  <anchor x="328.0" y="-83.0" name="btm"/>
  <anchor x="335.0" y="279.0" name="center"/>
  <anchor x="216.0" y="831.0" name="top"/>
  <anchor x="652.0" y="557.0" name="topright"/>
  <outline>
    <contour>
      <point x="431.0" y="0.0" type="line"/>
      <point x="594.0" y="0.0" type="line"/>
      <point x="594.0" y="812.0" type="line"/>
      <point x="416.0" y="812.0" type="line"/>
      <point x="416.0" y="610.0" type="line"/>
      <point x="420.0" y="446.0" type="line"/>
      <point x="416.0" y="442.0" type="line"/>
      <point x="416.0" y="77.0" type="line"/>
      <point x="431.0" y="66.0" type="line"/>
    </contour>
    <contour>
      <point x="260.0" y="-8.0" type="curve" smooth="yes"/>
      <point x="359.0" y="-8.0"/>
      <point x="412.0" y="38.0"/>
      <point x="435.0" y="63.0" type="curve"/>
      <point x="417.0" y="154.0" type="line"/>
      <point x="397.0" y="140.0"/>
      <point x="357.0" y="127.0"/>
      <point x="322.0" y="127.0" type="curve" smooth="yes"/>
      <point x="265.0" y="127.0"/>
      <point x="228.0" y="164.0"/>
      <point x="229.0" y="268.0" type="curve" smooth="yes"/>
      <point x="229.0" y="383.0"/>
      <point x="274.0" y="439.0"/>
      <point x="337.0" y="439.0" type="curve" smooth="yes"/>
      <point x="371.0" y="439.0"/>
      <point x="402.0" y="435.0"/>
      <point x="417.0" y="423.0" type="curve"/>
      <point x="448.0" y="537.0" type="line"/>
      <point x="436.0" y="546.0"/>
      <point x="392.0" y="564.0"/>
      <point x="323.0" y="564.0" type="curve" smooth="yes"/>
      <point x="153.0" y="564.0"/>
      <point x="42.0" y="448.0"/>
      <point x="42.0" y="259.0" type="curve" smooth="yes"/>
      <point x="42.0" y="79.0"/>
      <point x="142.0" y="-8.0"/>
    </contour>
  </outline>
</glyph>
<glyph name="f" format="2">
  <advance width="860.0"/>
  <unicode hex="0066"/>
  <anchor x="430.0" y="0.0" name="bottom"/>
  <anchor x="410.0" y="-166.0" name="btm"/>
  <anchor x="304.0" y="2064.0" name="top"/>
  <outline>
    <contour>
      <point x="216.0" y="0.0" type="line"/>
      <point x="580.0" y="0.0" type="line"/>
      <point x="580.0" y="876.0" type="line"/>
      <point x="822.0" y="876.0" type="line"/>
      <point x="822.0" y="1114.0" type="line"/>
      <point x="580.0" y="1114.0" type="line"/>
      <point x="580.0" y="1214.0" type="line" smooth="yes"/>
      <point x="580.0" y="1344.0"/>
      <point x="636.0" y="1398.0"/>
      <point x="720.0" y="1398.0" type="curve" smooth="yes"/>
      <point x="790.0" y="1398.0"/>
      <point x="838.0" y="1386.0"/>
      <point x="864.0" y="1374.0" type="curve"/>
      <point x="864.0" y="1622.0" type="line"/>
      <point x="838.0" y="1628.0"/>
      <point x="762.0" y="1644.0"/>
      <point x="648.0" y="1644.0" type="curve" smooth="yes"/>
      <point x="444.0" y="1644.0"/>
      <point x="216.0" y="1548.0"/>
      <point x="216.0" y="1228.0" type="curve" smooth="yes"/>
      <point x="216.0" y="1114.0" type="line"/>
      <point x="78.0" y="1086.0" type="line"/>
      <point x="78.0" y="876.0" type="line"/>
      <point x="216.0" y="876.0" type="line"/>
    </contour>
  </outline>
</glyph>
<glyph name="k" format="2">
  <advance width="1240.0"/>
  <unicode hex="006B"/>
  <anchor x="612.0" y="0.0" name="bottom"/>
  <anchor x="640.0" y="-166.0" name="btm"/>
  <anchor x="816.0" y="1660.0" name="top"/>
  <outline>
    <contour>
      <point x="1234.0" y="1114.0" type="line"/>
      <point x="822.0" y="1114.0" type="line"/>
      <point x="438.0" y="648.0" type="line"/>
      <point x="480.0" y="598.0" type="line"/>
      <point x="496.0" y="1008.0" type="line"/>
      <point x="496.0" y="1622.0" type="line"/>
      <point x="140.0" y="1622.0" type="line"/>
      <point x="140.0" y="662.0" type="line"/>
      <point x="140.0" y="0.0" type="line"/>
      <point x="496.0" y="0.0" type="line"/>
      <point x="496.0" y="184.0" type="line"/>
      <point x="492.0" y="378.0" type="line"/>
      <point x="482.0" y="304.0" type="line"/>
    </contour>
    <contour>
      <point x="582.0" y="466.0" type="line"/>
      <point x="858.0" y="0.0" type="line"/>
      <point x="1260.0" y="0.0" type="line"/>
      <point x="818.0" y="716.0" type="line"/>
    </contour>
  </outline>
</glyph>
<glyph name="l" format="2">
  <advance width="630.0"/>
  <unicode hex="006C"/>
  <anchor x="316.0" y="0.0" name="bottom"/>
  <anchor x="308.0" y="-166.0" name="btm"/>
  <anchor x="316.0" y="984.0" name="center"/>
  <anchor x="314.0" y="1808.0" name="top"/>
  <anchor x="612.0" y="1966.0" name="topright"/>
  <outline>
    <contour>
      <point x="134.0" y="0.0" type="line"/>
      <point x="496.0" y="0.0" type="line"/>
      <point x="496.0" y="1624.0" type="line"/>
      <point x="134.0" y="1624.0" type="line"/>
    </contour>
  </outline>
</glyph>
<glyph name="n" format="2">
  <advance width="1314.0"/>
  <unicode hex="006E"/>
  <anchor x="660.0" y="0.0" name="bottom"/>
  <anchor x="644.0" y="-166.0" name="btm"/>
  <anchor x="674.0" y="1660.0" name="top"/>
  <outline>
    <contour>
      <point x="144.0" y="0.0" type="line"/>
      <point x="504.0" y="0.0" type="line"/>
      <point x="504.0" y="774.0" type="line"/>
      <point x="554.0" y="822.0"/>
      <point x="630.0" y="846.0"/>
      <point x="682.0" y="846.0" type="curve" smooth="yes"/>
      <point x="788.0" y="850.0"/>
      <point x="824.0" y="798.0"/>
      <point x="824.0" y="636.0" type="curve" smooth="yes"/>
      <point x="824.0" y="0.0" type="line"/>
      <point x="1186.0" y="0.0" type="line"/>
      <point x="1186.0" y="702.0" type="line" smooth="yes"/>
      <point x="1186.0" y="1022.0"/>
      <point x="1072.0" y="1134.0"/>
      <point x="846.0" y="1130.0" type="curve" smooth="yes"/>
      <point x="696.0" y="1128.0"/>
      <point x="552.0" y="1054.0"/>
      <point x="482.0" y="984.0" type="curve"/>
      <point x="474.0" y="1114.0" type="line"/>
      <point x="144.0" y="1114.0" type="line"/>
    </contour>
  </outline>
</glyph>
<glyph name="o" format="2">
  <advance width="1250.0"/>
  <unicode hex="006F"/>
  <anchor x="626.0" y="0.0" name="bottom"/>
  <anchor x="608.0" y="-166.0" name="btm"/>
  <anchor x="626.0" y="558.0" name="center"/>
  <anchor x="736.0" y="0.0" name="ogonek"/>
  <anchor x="632.0" y="1660.0" name="top"/>
  <anchor x="876.0" y="1054.0" name="topright"/>
  <outline>
    <contour>
      <point x="616.0" y="-16.0" type="curve" smooth="yes"/>
      <point x="950.0" y="-16.0"/>
      <point x="1186.0" y="176.0"/>
      <point x="1190.0" y="534.0" type="curve" smooth="yes"/>
      <point x="1196.0" y="854.0"/>
      <point x="1048.0" y="1128.0"/>
      <point x="636.0" y="1128.0" type="curve" smooth="yes"/>
      <point x="302.0" y="1128.0"/>
      <point x="66.0" y="936.0"/>
      <point x="60.0" y="580.0" type="curve" smooth="yes"/>
      <point x="56.0" y="260.0"/>
      <point x="204.0" y="-16.0"/>
    </contour>
    <contour>
      <point x="624.0" y="234.0" type="curve" smooth="yes"/>
      <point x="482.0" y="234.0"/>
      <point x="436.0" y="384.0"/>
      <point x="436.0" y="568.0" type="curve" smooth="yes"/>
      <point x="436.0" y="770.0"/>
      <point x="484.0" y="878.0"/>
      <point x="630.0" y="878.0" type="curve" smooth="yes"/>
      <point x="770.0" y="878.0"/>
      <point x="814.0" y="730.0"/>
      <point x="814.0" y="550.0" type="curve" smooth="yes"/>
      <point x="814.0" y="338.0"/>
      <point x="766.0" y="234.0"/>
    </contour>
  </outline>
</glyph>
<glyph name="q" format="2">
  <advance width="1350.0"/>
  <unicode hex="0071"/>
  <anchor x="676.0" y="0.0" name="bottom"/>
  <anchor x="578.0" y="-166.0" name="btm"/>
  <anchor x="584.0" y="1662.0" name="top"/>
  <outline>
    <contour>
      <point x="834.0" y="-136.0" type="line"/>
      <point x="834.0" y="-494.0" type="line"/>
      <point x="1194.0" y="-494.0" type="line"/>
      <point x="1194.0" y="1114.0" type="line"/>
      <point x="882.0" y="1072.0" type="line"/>
      <point x="856.0" y="978.0" type="line"/>
      <point x="834.0" y="954.0" type="line"/>
      <point x="834.0" y="192.0" type="line"/>
      <point x="838.0" y="106.0" type="line"/>
    </contour>
    <contour>
      <point x="526.0" y="-16.0" type="curve" smooth="yes"/>
      <point x="724.0" y="-16.0"/>
      <point x="826.0" y="76.0"/>
      <point x="872.0" y="126.0" type="curve"/>
      <point x="834.0" y="308.0" type="line"/>
      <point x="796.0" y="280.0"/>
      <point x="720.0" y="254.0"/>
      <point x="650.0" y="254.0" type="curve" smooth="yes"/>
      <point x="536.0" y="254.0"/>
      <point x="462.0" y="328.0"/>
      <point x="464.0" y="536.0" type="curve" smooth="yes"/>
      <point x="464.0" y="766.0"/>
      <point x="554.0" y="878.0"/>
      <point x="680.0" y="878.0" type="curve" smooth="yes"/>
      <point x="748.0" y="878.0"/>
      <point x="804.0" y="870.0"/>
      <point x="834.0" y="846.0" type="curve"/>
      <point x="968.0" y="1062.0" type="line"/>
      <point x="908.0" y="1094.0"/>
      <point x="786.0" y="1128.0"/>
      <point x="652.0" y="1128.0" type="curve" smooth="yes"/>
      <point x="312.0" y="1128.0"/>
      <point x="84.0" y="896.0"/>
      <point x="84.0" y="518.0" type="curve" smooth="yes"/>
      <point x="84.0" y="158.0"/>
      <point x="290.0" y="-16.0"/>
    </contour>
  </outline>
</glyph>
<glyph name="t" format="2">
  <advance width="920.0"/>
  <unicode hex="0074"/>
  <anchor x="444.0" y="0.0" name="bottom"/>
  <anchor x="488.0" y="-166.0" name="btm"/>
  <anchor x="444.0" y="558.0" name="center"/>
  <anchor x="424.0" y="1826.0" name="top"/>
  <anchor x="856.0" y="1114.0" name="topright"/>
  <outline>
    <contour>
      <point x="502.0" y="-16.0" type="curve" smooth="yes"/>
      <point x="664.0" y="-16.0"/>
      <point x="820.0" y="46.0"/>
      <point x="872.0" y="98.0" type="curve"/>
      <point x="830.0" y="298.0" type="line"/>
      <point x="796.0" y="276.0"/>
      <point x="716.0" y="254.0"/>
      <point x="666.0" y="254.0" type="curve" smooth="yes"/>
      <point x="568.0" y="254.0"/>
      <point x="538.0" y="272.0"/>
      <point x="538.0" y="480.0" type="curve" smooth="yes"/>
      <point x="538.0" y="876.0" type="line"/>
      <point x="826.0" y="876.0" type="line"/>
      <point x="826.0" y="1114.0" type="line"/>
      <point x="538.0" y="1114.0" type="line"/>
      <point x="538.0" y="1368.0" type="line"/>
      <point x="318.0" y="1368.0" type="line"/>
      <point x="292.0" y="1306.0"/>
      <point x="262.0" y="1226.0"/>
      <point x="240.0" y="1180.0" type="curve" smooth="yes"/>
      <point x="210.0" y="1118.0"/>
      <point x="146.0" y="1096.0"/>
      <point x="48.0" y="1068.0" type="curve"/>
      <point x="48.0" y="876.0" type="line"/>
      <point x="176.0" y="876.0" type="line"/>
      <point x="176.0" y="346.0" type="line" smooth="yes"/>
      <point x="176.0" y="104.0"/>
      <point x="262.0" y="-16.0"/>
    </contour>
  </outline>
</glyph>
<glyph name="u" format="2">
  <advance width="1296.0"/>
  <unicode hex="0075"/>
  <anchor x="646.0" y="0.0" name="bottom"/>
  <anchor x="628.0" y="-166.0" name="btm"/>
  <anchor x="1178.0" y="20.0" name="ogonek"/>
  <anchor x="650.0" y="1660.0" name="top"/>
  <anchor x="1008.0" y="1114.0" name="topright"/>
  <outline>
    <contour>
      <point x="498.0" y="-16.0" type="curve" smooth="yes"/>
      <point x="606.0" y="-16.0"/>
      <point x="752.0" y="30.0"/>
      <point x="830.0" y="94.0" type="curve"/>
      <point x="822.0" y="112.0" type="line"/>
      <point x="822.0" y="42.0" type="line" smooth="yes"/>
      <point x="822.0" y="-6.0"/>
      <point x="844.0" y="-16.0"/>
      <point x="890.0" y="-16.0" type="curve" smooth="yes"/>
      <point x="1152.0" y="-16.0" type="line"/>
      <point x="1152.0" y="1114.0" type="line"/>
      <point x="790.0" y="1114.0" type="line"/>
      <point x="790.0" y="296.0" type="line"/>
      <point x="764.0" y="274.0"/>
      <point x="698.0" y="244.0"/>
      <point x="632.0" y="244.0" type="curve" smooth="yes"/>
      <point x="532.0" y="244.0"/>
      <point x="484.0" y="282.0"/>
      <point x="484.0" y="450.0" type="curve" smooth="yes"/>
      <point x="484.0" y="1114.0" type="line"/>
      <point x="124.0" y="1114.0" type="line"/>
      <point x="124.0" y="458.0" type="line" smooth="yes"/>
      <point x="124.0" y="184.0"/>
      <point x="172.0" y="-16.0"/>
    </contour>
  </outline>
</glyph>
<glyph name="v" format="2">
  <advance width="586.0"/>
  <unicode hex="0076"/>
  <anchor x="293.0" y="0.0" name="bottom"/>
  <anchor x="293.0" y="557.0" name="top"/>
  <outline>
    <contour>
      <point x="207.0" y="-8.0" type="line"/>
      <point x="380.0" y="-8.0" type="line"/>
      <point x="589.0" y="557.0" type="line"/>
      <point x="399.0" y="557.0" type="line"/>
      <point x="330.0" y="314.0" type="line"/>
      <point x="282.0" y="104.0" type="line"/>
      <point x="314.0" y="104.0" type="line"/>
      <point x="262.0" y="314.0" type="line"/>
      <point x="190.0" y="557.0" type="line"/>
      <point x="-3.0" y="557.0" type="line"/>
    </contour>
  </outline>
</glyph>
<glyph name="w" format="2">
  <advance width="1730.0"/>
  <unicode hex="0077"/>
  <anchor x="866.0" y="0.0" name="bottom"/>
  <anchor x="870.0" y="-166.0" name="btm"/>
  <anchor x="870.0" y="1662.0" name="top"/>
  <outline>
    <contour>
      <point x="332.0" y="-16.0" type="line"/>
      <point x="660.0" y="-16.0" type="line"/>
      <point x="816.0" y="532.0" type="line"/>
      <point x="890.0" y="888.0" type="line"/>
      <point x="830.0" y="888.0" type="line"/>
      <point x="902.0" y="532.0" type="line"/>
      <point x="1064.0" y="-16.0" type="line"/>
      <point x="1380.0" y="-16.0" type="line"/>
      <point x="1732.0" y="1114.0" type="line"/>
      <point x="1396.0" y="1114.0" type="line"/>
      <point x="1290.0" y="664.0" type="line"/>
      <point x="1196.0" y="202.0" type="line"/>
      <point x="1268.0" y="202.0" type="line"/>
      <point x="1168.0" y="664.0" type="line"/>
      <point x="1036.0" y="1114.0" type="line"/>
      <point x="712.0" y="1114.0" type="line"/>
      <point x="580.0" y="664.0" type="line"/>
      <point x="472.0" y="200.0" type="line"/>
      <point x="548.0" y="200.0" type="line"/>
      <point x="452.0" y="664.0" type="line"/>
      <point x="350.0" y="1114.0" type="line"/>
      <point x="-2.0" y="1114.0" type="line"/>
    </contour>
  </outline>
</glyph>
<glyph name="x" format="2">
  <advance width="1198.0"/>
  <unicode hex="0078"/>
  <anchor x="594.0" y="0.0" name="bottom"/>
  <anchor x="606.0" y="-166.0" name="btm"/>
  <anchor x="606.0" y="1660.0" name="top"/>
  <outline>
    <contour>
      <point x="8.0" y="0.0" type="line"/>
      <point x="408.0" y="0.0" type="line"/>
      <point x="566.0" y="284.0" type="line"/>
      <point x="630.0" y="414.0" type="line"/>
      <point x="544.0" y="414.0" type="line"/>
      <point x="618.0" y="284.0" type="line"/>
      <point x="794.0" y="0.0" type="line"/>
      <point x="1190.0" y="0.0" type="line"/>
      <point x="768.0" y="610.0" type="line"/>
      <point x="768.0" y="530.0" type="line"/>
      <point x="1182.0" y="1114.0" type="line"/>
      <point x="792.0" y="1114.0" type="line"/>
      <point x="644.0" y="860.0" type="line"/>
      <point x="570.0" y="716.0" type="line"/>
      <point x="648.0" y="716.0" type="line"/>
      <point x="562.0" y="860.0" type="line"/>
      <point x="402.0" y="1114.0" type="line"/>
      <point x="10.0" y="1114.0" type="line"/>
      <point x="418.0" y="522.0" type="line"/>
      <point x="410.0" y="588.0" type="line"/>
    </contour>
  </outline>
</glyph>
<glyph name="y" format="2">
  <advance width="1180.0"/>
  <unicode hex="0079"/>
  <anchor x="1046.0" y="0.0" name="bottom"/>
  <anchor x="606.0" y="1660.0" name="top"/>
  <outline>
    <contour>
      <point x="118.0" y="-476.0" type="line"/>
      <point x="130.0" y="-484.0"/>
      <point x="254.0" y="-496.0"/>
      <point x="284.0" y="-496.0" type="curve" smooth="yes"/>
      <point x="342.0" y="-496.0"/>
      <point x="426.0" y="-484.0"/>
      <point x="476.0" y="-464.0" type="curve" smooth="yes"/>
      <point x="618.0" y="-412.0"/>
      <point x="750.0" y="-292.0"/>
      <point x="832.0" y="-26.0" type="curve" smooth="yes"/>
      <point x="1182.0" y="1114.0" type="line"/>
      <point x="802.0" y="1114.0" type="line"/>
      <point x="678.0" y="528.0" type="line"/>
      <point x="598.0" y="162.0" type="line"/>
      <point x="626.0" y="162.0" type="line"/>
      <point x="538.0" y="528.0" type="line"/>
      <point x="378.0" y="1114.0" type="line"/>
      <point x="-4.0" y="1114.0" type="line"/>
      <point x="380.0" y="0.0" type="line"/>
      <point x="538.0" y="0.0" type="line"/>
      <point x="524.0" y="28.0" type="line"/>
      <point x="478.0" y="-204.0"/>
      <point x="344.0" y="-218.0"/>
      <point x="240.0" y="-218.0" type="curve" smooth="yes"/>
      <point x="206.0" y="-218.0"/>
      <point x="140.0" y="-206.0"/>
      <point x="118.0" y="-198.0" type="curve"/>
    </contour>
  </outline>
</glyph>
<glyph name="z" format="2">
  <advance width="1068.0"/>
  <unicode hex="007A"/>
  <anchor x="526.0" y="0.0" name="bottom"/>
  <anchor x="528.0" y="-166.0" name="btm"/>
  <anchor x="526.0" y="558.0" name="center"/>
  <anchor x="552.0" y="1660.0" name="top"/>
  <outline>
    <contour>
      <point x="76.0" y="0.0" type="line"/>
      <point x="998.0" y="0.0" type="line"/>
      <point x="998.0" y="254.0" type="line"/>
      <point x="518.0" y="254.0" type="line"/>
      <point x="582.0" y="344.0" type="line"/>
      <point x="1034.0" y="1020.0" type="line"/>
      <point x="998.0" y="1114.0" type="line"/>
      <point x="118.0" y="1114.0" type="line"/>
      <point x="116.0" y="868.0" type="line"/>
      <point x="554.0" y="868.0" type="line"/>
      <point x="496.0" y="778.0" type="line"/>
      <point x="34.0" y="82.0" type="line"/>
    </contour>
  </outline>
</glyph>
<glyph name="braceleft" format="2">
  <advance width="974.0"/>
  <unicode hex="007B"/>
  <outline>
    <contour>
      <point x="320.0" y="58.0" type="line"/>
      <point x="320.0" y="-134.0"/>
      <point x="398.0" y="-216.0"/>
      <point x="548.0" y="-216.0" type="curve" smooth="yes"/>
      <point x="656.0" y="-216.0"/>
      <point x="784.0" y="-206.0"/>
      <point x="868.0" y="-182.0" type="curve"/>
      <point x="868.0" y="-12.0" type="line"/>
      <point x="626.0" y="-12.0" type="line"/>
      <point x="626.0" y="534.0" type="line" smooth="yes"/>
      <point x="626.0" y="580.0"/>
      <point x="614.0" y="616.0"/>
      <point x="588.0" y="642.0" type="curve" smooth="yes"/>
      <point x="540.0" y="700.0"/>
      <point x="430.0" y="742.0"/>
      <point x="348.0" y="768.0" type="curve"/>
      <point x="348.0" y="748.0" type="line"/>
      <point x="430.0" y="774.0"/>
      <point x="544.0" y="820.0"/>
      <point x="590.0" y="878.0" type="curve" smooth="yes"/>
      <point x="612.0" y="906.0"/>
      <point x="626.0" y="940.0"/>
      <point x="626.0" y="986.0" type="curve" smooth="yes"/>
      <point x="626.0" y="1514.0" type="line"/>
      <point x="868.0" y="1514.0" type="line"/>
      <point x="868.0" y="1696.0" type="line"/>
      <point x="784.0" y="1708.0"/>
      <point x="656.0" y="1720.0"/>
      <point x="548.0" y="1720.0" type="curve" smooth="yes"/>
      <point x="398.0" y="1720.0"/>
      <point x="320.0" y="1644.0"/>
      <point x="320.0" y="1452.0" type="curve" smooth="yes"/>
      <point x="320.0" y="994.0" type="line" smooth="yes"/>
      <point x="320.0" y="910.0"/>
      <point x="166.0" y="868.0"/>
      <point x="68.0" y="858.0" type="curve"/>
      <point x="68.0" y="660.0" type="line"/>
      <point x="166.0" y="650.0"/>
      <point x="320.0" y="598.0"/>
      <point x="320.0" y="516.0" type="curve" smooth="yes"/>
    </contour>
  </outline>
</glyph>
<glyph name="cent" format="2">
  <advance width="1172.0"/>
  <unicode hex="00A2"/>
  <anchor x="546.0" y="0.0" name="bottom"/>
  <anchor x="626.0" y="-166.0" name="btm"/>
  <anchor x="646.0" y="1662.0" name="top"/>
  <outline>
    <contour>
      <point x="568.0" y="1042.0" type="line"/>
      <point x="750.0" y="1042.0" type="line"/>
      <point x="756.0" y="1344.0" type="line"/>
      <point x="576.0" y="1344.0" type="line"/>
    </contour>
    <contour>
      <point x="538.0" y="-210.0" type="line"/>
      <point x="720.0" y="-210.0" type="line"/>
      <point x="726.0" y="90.0" type="line"/>
      <point x="544.0" y="90.0" type="line"/>
    </contour>
    <component base="c" xOffset="50.0"/>
  </outline>
</glyph>
<glyph name="sterling" format="2">
  <advance width="1578.0"/>
  <unicode hex="00A3"/>
  <outline>
    <contour>
      <point x="100.0" y="122.0" type="curve" smooth="yes"/>
      <point x="100.0" y="24.0"/>
      <point x="188.0" y="-8.0"/>
      <point x="256.0" y="-8.0" type="curve" smooth="yes"/>
      <point x="334.0" y="-8.0"/>
      <point x="426.0" y="44.0"/>
      <point x="466.0" y="84.0" type="curve"/>
      <point x="584.0" y="84.0"/>
      <point x="732.0" y="-16.0"/>
      <point x="1024.0" y="-16.0" type="curve" smooth="yes"/>
      <point x="1348.0" y="-16.0"/>
      <point x="1492.0" y="136.0"/>
      <point x="1492.0" y="346.0" type="curve" smooth="yes"/>
      <point x="1492.0" y="514.0"/>
      <point x="1384.0" y="590.0"/>
      <point x="1342.0" y="616.0" type="curve"/>
      <point x="1086.0" y="494.0" type="line"/>
      <point x="1114.0" y="476.0"/>
      <point x="1152.0" y="420.0"/>
      <point x="1152.0" y="358.0" type="curve" smooth="yes"/>
      <point x="1152.0" y="272.0"/>
      <point x="1082.0" y="216.0"/>
      <point x="942.0" y="216.0" type="curve" smooth="yes"/>
      <point x="830.0" y="216.0"/>
      <point x="754.0" y="246.0"/>
      <point x="664.0" y="268.0" type="curve"/>
      <point x="728.0" y="322.0"/>
      <point x="760.0" y="422.0"/>
      <point x="760.0" y="560.0" type="curve" smooth="yes"/>
      <point x="760.0" y="942.0" type="line" smooth="yes"/>
      <point x="760.0" y="1188.0"/>
      <point x="850.0" y="1216.0"/>
      <point x="974.0" y="1216.0" type="curve" smooth="yes"/>
      <point x="1066.0" y="1216.0"/>
      <point x="1150.0" y="1168.0"/>
      <point x="1188.0" y="1136.0" type="curve"/>
      <point x="1330.0" y="1402.0" type="line"/>
      <point x="1260.0" y="1446.0"/>
      <point x="1142.0" y="1502.0"/>
      <point x="952.0" y="1502.0" type="curve" smooth="yes"/>
      <point x="588.0" y="1502.0"/>
      <point x="394.0" y="1292.0"/>
      <point x="394.0" y="1002.0" type="curve" smooth="yes"/>
      <point x="394.0" y="538.0" type="line" smooth="yes"/>
      <point x="394.0" y="460.0"/>
      <point x="388.0" y="330.0"/>
      <point x="360.0" y="304.0" type="curve"/>
      <point x="238.0" y="298.0"/>
      <point x="100.0" y="236.0"/>
    </contour>
    <contour>
      <point x="224.0" y="672.0" type="line"/>
      <point x="1044.0" y="672.0" type="line"/>
      <point x="1044.0" y="870.0" type="line"/>
      <point x="224.0" y="870.0" type="line"/>
    </contour>
  </outline>
</glyph>
<glyph name="section" format="2">
  <advance width="1372.0"/>
  <unicode hex="00A7"/>
  <outline>
    <contour>
      <point x="234.0" y="1294.0" type="curve" smooth="yes"/>
      <point x="234.0" y="870.0"/>
      <point x="920.0" y="908.0"/>
      <point x="920.0" y="620.0" type="curve" smooth="yes"/>
      <point x="920.0" y="538.0"/>
      <point x="834.0" y="396.0"/>
      <point x="794.0" y="344.0" type="curve"/>
      <point x="922.0" y="298.0" type="line"/>
      <point x="1084.0" y="390.0"/>
      <point x="1206.0" y="518.0"/>
      <point x="1206.0" y="690.0" type="curve" smooth="yes"/>
      <point x="1206.0" y="1104.0"/>
      <point x="568.0" y="1114.0"/>
      <point x="568.0" y="1282.0" type="curve" smooth="yes"/>
      <point x="568.0" y="1358.0"/>
      <point x="642.0" y="1382.0"/>
      <point x="734.0" y="1382.0" type="curve" smooth="yes"/>
      <point x="894.0" y="1384.0"/>
      <point x="982.0" y="1332.0"/>
      <point x="1022.0" y="1302.0" type="curve"/>
      <point x="1072.0" y="1562.0" type="line"/>
      <point x="1012.0" y="1596.0"/>
      <point x="890.0" y="1634.0"/>
      <point x="702.0" y="1634.0" type="curve" smooth="yes"/>
      <point x="468.0" y="1634.0"/>
      <point x="234.0" y="1532.0"/>
    </contour>
    <contour>
      <point x="1150.0" y="176.0" type="curve" smooth="yes"/>
      <point x="1150.0" y="618.0"/>
      <point x="466.0" y="538.0"/>
      <point x="466.0" y="808.0" type="curve" smooth="yes"/>
      <point x="466.0" y="890.0"/>
      <point x="554.0" y="984.0"/>
      <point x="592.0" y="1036.0" type="curve"/>
      <point x="448.0" y="1094.0" type="line"/>
      <point x="290.0" y="1012.0"/>
      <point x="172.0" y="890.0"/>
      <point x="172.0" y="734.0" type="curve" smooth="yes"/>
      <point x="172.0" y="318.0"/>
      <point x="816.0" y="334.0"/>
      <point x="816.0" y="174.0" type="curve" smooth="yes"/>
      <point x="816.0" y="96.0"/>
      <point x="738.0" y="68.0"/>
      <point x="640.0" y="66.0" type="curve" smooth="yes"/>
      <point x="476.0" y="66.0"/>
      <point x="356.0" y="126.0"/>
      <point x="308.0" y="164.0" type="curve"/>
      <point x="258.0" y="-98.0" type="line"/>
      <point x="320.0" y="-140.0"/>
      <point x="484.0" y="-188.0"/>
      <point x="670.0" y="-188.0" type="curve" smooth="yes"/>
      <point x="908.0" y="-188.0"/>
      <point x="1150.0" y="-82.0"/>
    </contour>
  </outline>
</glyph>
<glyph name="guillemetleft" format="2">
  <advance width="1982.0"/>
  <unicode hex="00AB"/>
  <outline>
    <contour>
      <point x="216.0" y="462.0" type="line"/>
      <point x="844.0" y="54.0" type="line"/>
      <point x="928.0" y="302.0" type="line"/>
      <point x="480.0" y="664.0" type="line"/>
      <point x="480.0" y="538.0" type="line"/>
      <point x="928.0" y="900.0" type="line"/>
      <point x="844.0" y="1146.0" type="line"/>
      <point x="216.0" y="740.0" type="line"/>
    </contour>
    <contour>
      <point x="1014.0" y="462.0" type="line"/>
      <point x="1662.0" y="54.0" type="line"/>
      <point x="1746.0" y="302.0" type="line"/>
      <point x="1278.0" y="664.0" type="line"/>
      <point x="1278.0" y="538.0" type="line"/>
      <point x="1746.0" y="900.0" type="line"/>
      <point x="1662.0" y="1146.0" type="line"/>
      <point x="1014.0" y="740.0" type="line"/>
    </contour>
  </outline>
</glyph>
<glyph name="degree" format="2">
  <advance width="954.0"/>
  <unicode hex="00B0"/>
  <outline>
    <contour>
      <point x="96.0" y="1248.0" type="curve" smooth="yes"/>
      <point x="96.0" y="1038.0"/>
      <point x="262.0" y="872.0"/>
      <point x="476.0" y="872.0" type="curve" smooth="yes"/>
      <point x="700.0" y="872.0"/>
      <point x="858.0" y="1034.0"/>
      <point x="858.0" y="1248.0" type="curve" smooth="yes"/>
      <point x="858.0" y="1458.0"/>
      <point x="696.0" y="1622.0"/>
      <point x="476.0" y="1622.0" type="curve" smooth="yes"/>
      <point x="258.0" y="1622.0"/>
      <point x="96.0" y="1462.0"/>
    </contour>
    <contour>
      <point x="316.0" y="1248.0" type="curve" smooth="yes"/>
      <point x="316.0" y="1350.0"/>
      <point x="388.0" y="1414.0"/>
      <point x="476.0" y="1414.0" type="curve" smooth="yes"/>
      <point x="562.0" y="1414.0"/>
      <point x="638.0" y="1348.0"/>
      <point x="638.0" y="1248.0" type="curve" smooth="yes"/>
      <point x="638.0" y="1148.0"/>
      <point x="566.0" y="1082.0"/>
      <point x="476.0" y="1082.0" type="curve" smooth="yes"/>
      <point x="392.0" y="1082.0"/>
      <point x="316.0" y="1148.0"/>
    </contour>
  </outline>
</glyph>
<glyph name="plusminus" format="2">
  <advance width="1368.0"/>
  <unicode hex="00B1"/>
  <outline>
    <contour>
      <point x="228.0" y="0.0" type="line"/>
      <point x="1126.0" y="0.0" type="line"/>
      <point x="1126.0" y="228.0" type="line"/>
      <point x="228.0" y="228.0" type="line"/>
    </contour>
    <component base="plus"/>
  </outline>
</glyph>
<glyph name="acute" format="2">
  <advance width="684.0"/>
  <unicode hex="00B4"/>
  <anchor x="184.0" y="1662.0" name="_top"/>
  <outline>
    <contour>
      <point x="206.0" y="1208.0" type="line"/>
      <point x="292.0" y="1250.0"/>
      <point x="542.0" y="1450.0"/>
      <point x="604.0" y="1598.0" type="curve"/>
      <point x="368.0" y="1782.0" type="line"/>
      <point x="274.0" y="1632.0"/>
      <point x="126.0" y="1454.0"/>
      <point x="36.0" y="1364.0" type="curve"/>
    </contour>
  </outline>
</glyph>
<glyph name="micro" format="2">
  <advance width="1374.0"/>
  <unicode hex="00B5"/>
  <outline>
    <contour>
      <point x="146.0" y="-362.0" type="line"/>
      <point x="474.0" y="-362.0" type="line"/>
      <point x="438.0" y="158.0" type="line"/>
      <point x="380.0" y="148.0" type="line"/>
      <point x="426.0" y="22.0"/>
      <point x="510.0" y="-16.0"/>
      <point x="648.0" y="-16.0" type="curve" smooth="yes"/>
      <point x="790.0" y="-16.0"/>
      <point x="860.0" y="58.0"/>
      <point x="892.0" y="118.0" type="curve"/>
      <point x="902.0" y="24.0"/>
      <point x="972.0" y="-18.0"/>
      <point x="1070.0" y="-18.0" type="curve" smooth="yes"/>
      <point x="1230.0" y="-18.0"/>
      <point x="1332.0" y="64.0"/>
      <point x="1344.0" y="84.0" type="curve"/>
      <point x="1314.0" y="260.0" type="line"/>
      <point x="1278.0" y="238.0"/>
      <point x="1244.0" y="234.0"/>
      <point x="1232.0" y="234.0" type="curve" smooth="yes"/>
      <point x="1210.0" y="234.0"/>
      <point x="1184.0" y="248.0"/>
      <point x="1184.0" y="308.0" type="curve" smooth="yes"/>
      <point x="1184.0" y="1114.0" type="line"/>
      <point x="822.0" y="1114.0" type="line"/>
      <point x="822.0" y="302.0" type="line"/>
      <point x="784.0" y="266.0"/>
      <point x="718.0" y="250.0"/>
      <point x="674.0" y="250.0" type="curve" smooth="yes"/>
      <point x="556.0" y="250.0"/>
      <point x="508.0" y="320.0"/>
      <point x="508.0" y="478.0" type="curve" smooth="yes"/>
      <point x="508.0" y="1114.0" type="line"/>
      <point x="146.0" y="1114.0" type="line"/>
    </contour>
  </outline>
</glyph>
<glyph name="paragraph" format="2">
  <advance width="1500.0"/>
  <unicode hex="00B6"/>
  <outline>
    <contour>
      <point x="564.0" y="0.0" type="line"/>
      <point x="842.0" y="0.0" type="line"/>
      <point x="842.0" y="1460.0" type="line"/>
      <point x="1036.0" y="1460.0" type="line"/>
      <point x="1038.0" y="0.0" type="line"/>
      <point x="1314.0" y="0.0" type="line"/>
      <point x="1314.0" y="1652.0" type="line"/>
      <point x="1138.0" y="1654.0"/>
      <point x="882.0" y="1670.0"/>
      <point x="736.0" y="1670.0" type="curve" smooth="yes"/>
      <point x="324.0" y="1670.0"/>
      <point x="140.0" y="1502.0"/>
      <point x="140.0" y="1218.0" type="curve" smooth="yes"/>
      <point x="140.0" y="894.0"/>
      <point x="318.0" y="758.0"/>
      <point x="564.0" y="758.0" type="curve"/>
    </contour>
  </outline>
</glyph>
<glyph name="cedilla" format="2">
  <advance width="516.0"/>
  <unicode hex="00B8"/>
  <anchor x="298.0" y="-166.0" name="_btm"/>
  <outline>
    <contour>
      <point x="28.0" y="-426.0" type="line"/>
      <point x="54.0" y="-442.0"/>
      <point x="156.0" y="-454.0"/>
      <point x="214.0" y="-454.0" type="curve" smooth="yes"/>
      <point x="356.0" y="-454.0"/>
      <point x="472.0" y="-378.0"/>
      <point x="474.0" y="-210.0" type="curve" smooth="yes"/>
      <point x="474.0" y="-124.0"/>
      <point x="454.0" y="-8.0"/>
      <point x="410.0" y="30.0" type="curve"/>
      <point x="358.0" y="34.0" type="line"/>
      <point x="202.0" y="30.0" type="line"/>
      <point x="220.0" y="-2.0"/>
      <point x="240.0" y="-38.0"/>
      <point x="238.0" y="-116.0" type="curve" smooth="yes"/>
      <point x="236.0" y="-212.0"/>
      <point x="186.0" y="-262.0"/>
      <point x="124.0" y="-262.0" type="curve" smooth="yes"/>
      <point x="92.0" y="-262.0"/>
      <point x="68.0" y="-260.0"/>
      <point x="50.0" y="-250.0" type="curve"/>
    </contour>
  </outline>
</glyph>
<glyph name="guillemetright" format="2">
  <advance width="1990.0"/>
  <unicode hex="00BB"/>
  <outline>
    <contour>
      <point x="1766.0" y="462.0" type="line"/>
      <point x="1766.0" y="740.0" type="line"/>
      <point x="1118.0" y="1146.0" type="line"/>
      <point x="1034.0" y="900.0" type="line"/>
      <point x="1502.0" y="538.0" type="line"/>
      <point x="1502.0" y="664.0" type="line"/>
      <point x="1034.0" y="302.0" type="line"/>
      <point x="1118.0" y="54.0" type="line"/>
    </contour>
    <contour>
      <point x="940.0" y="462.0" type="line"/>
      <point x="940.0" y="740.0" type="line"/>
      <point x="312.0" y="1146.0" type="line"/>
      <point x="228.0" y="900.0" type="line"/>
      <point x="676.0" y="538.0" type="line"/>
      <point x="676.0" y="664.0" type="line"/>
      <point x="228.0" y="302.0" type="line"/>
      <point x="312.0" y="54.0" type="line"/>
    </contour>
  </outline>
</glyph>
<glyph name="AE" format="2">
  <advance width="1924.0"/>
  <unicode hex="00C6"/>
  <anchor x="962.0" y="0.0" name="bottom"/>
  <anchor x="1378.0" y="-166.0" name="btm"/>
  <anchor x="1032.0" y="1660.0" name="top"/>
  <outline>
    <contour>
      <point x="-116.0" y="0.0" type="line"/>
      <point x="284.0" y="0.0" type="line"/>
      <point x="874.0" y="1366.0" type="line"/>
      <point x="588.0" y="1486.0" type="line"/>
    </contour>
    <contour>
      <point x="846.0" y="1486.0" type="line"/>
      <point x="588.0" y="1486.0" type="line"/>
      <point x="636.0" y="1344.0" type="line"/>
      <point x="896.0" y="1344.0" type="line"/>
    </contour>
    <contour>
      <point x="280.0" y="310.0" type="line"/>
      <point x="1018.0" y="310.0" type="line"/>
      <point x="1002.0" y="566.0" type="line"/>
      <point x="326.0" y="566.0" type="line"/>
    </contour>
    <contour>
      <point x="846.0" y="0.0" type="line"/>
      <point x="1838.0" y="0.0" type="line"/>
      <point x="1838.0" y="284.0" type="line"/>
      <point x="1214.0" y="284.0" type="line"/>
      <point x="1214.0" y="626.0" type="line"/>
      <point x="1648.0" y="626.0" type="line"/>
      <point x="1648.0" y="898.0" type="line"/>
      <point x="1214.0" y="898.0" type="line"/>
      <point x="1214.0" y="1208.0" type="line"/>
      <point x="1780.0" y="1208.0" type="line"/>
      <point x="1780.0" y="1486.0" type="line"/>
      <point x="846.0" y="1486.0" type="line"/>
    </contour>
  </outline>
</glyph>
<glyph name="Eth" format="2">
  <advance width="1524.0"/>
  <unicode hex="00D0"/>
  <anchor x="754.0" y="0.0" name="bottom"/>
  <anchor x="704.0" y="-166.0" name="btm"/>
  <anchor x="754.0" y="744.0" name="center"/>
  <anchor x="750.0" y="1660.0" name="top"/>
  <outline>
    <contour>
      <point x="58.0" y="660.0" type="line"/>
      <point x="830.0" y="660.0" type="line"/>
      <point x="830.0" y="892.0" type="line"/>
      <point x="58.0" y="892.0" type="line"/>
    </contour>
    <component base="D"/>
  </outline>
</glyph>
<glyph name="multiply" format="2">
  <advance width="1370.0"/>
  <unicode hex="00D7"/>
  <outline>
    <contour>
      <point x="146.0" y="382.0" type="line"/>
      <point x="328.0" y="202.0" type="line"/>
      <point x="684.0" y="580.0" type="line"/>
      <point x="1042.0" y="202.0" type="line"/>
      <point x="1224.0" y="382.0" type="line"/>
      <point x="856.0" y="758.0" type="line"/>
      <point x="1226.0" y="1144.0" type="line"/>
      <point x="1044.0" y="1320.0" type="line"/>
      <point x="686.0" y="930.0" type="line"/>
      <point x="328.0" y="1320.0" type="line"/>
      <point x="146.0" y="1144.0" type="line"/>
      <point x="516.0" y="756.0" type="line"/>
    </contour>
  </outline>
</glyph>
<glyph name="Oslash" format="2">
  <advance width="1566.0"/>
  <unicode hex="00D8"/>
  <anchor x="784.0" y="0.0" name="bottom"/>
  <anchor x="764.0" y="1660.0" name="top"/>
  <outline>
    <contour>
      <point x="358.0" y="-228.0" type="line"/>
      <point x="1344.0" y="1742.0" type="line"/>
      <point x="1216.0" y="1768.0" type="line"/>
      <point x="230.0" y="-204.0" type="line"/>
    </contour>
    <contour>
      <point x="778.0" y="-16.0" type="curve" smooth="yes"/>
      <point x="1184.0" y="-8.0"/>
      <point x="1464.0" y="218.0"/>
      <point x="1474.0" y="746.0" type="curve" smooth="yes"/>
      <point x="1482.0" y="1216.0"/>
      <point x="1228.0" y="1514.0"/>
      <point x="806.0" y="1502.0" type="curve" smooth="yes"/>
      <point x="394.0" y="1490.0"/>
      <point x="100.0" y="1278.0"/>
      <point x="90.0" y="750.0" type="curve" smooth="yes"/>
      <point x="82.0" y="278.0"/>
      <point x="338.0" y="-24.0"/>
    </contour>
    <contour>
      <point x="784.0" y="256.0" type="curve" smooth="yes"/>
      <point x="576.0" y="256.0"/>
      <point x="474.0" y="458.0"/>
      <point x="474.0" y="740.0" type="curve" smooth="yes"/>
      <point x="474.0" y="1104.0"/>
      <point x="620.0" y="1222.0"/>
      <point x="800.0" y="1222.0" type="curve" smooth="yes"/>
      <point x="998.0" y="1222.0"/>
      <point x="1090.0" y="1034.0"/>
      <point x="1090.0" y="756.0" type="curve" smooth="yes"/>
      <point x="1090.0" y="398.0"/>
      <point x="974.0" y="256.0"/>
    </contour>
  </outline>
</glyph>
<glyph name="germandbls" format="2">
  <advance width="1380.0"/>
  <unicode hex="00DF"/>
  <anchor x="690.0" y="0.0" name="bottom"/>
  <anchor x="690.0" y="1114.0" name="top"/>
  <outline>
    <contour>
      <point x="172.0" y="0.0" type="line"/>
      <point x="538.0" y="0.0" type="line"/>
      <point x="538.0" y="930.0" type="line" smooth="yes"/>
      <point x="538.0" y="1218.0"/>
      <point x="624.0" y="1314.0"/>
      <point x="760.0" y="1314.0" type="curve" smooth="yes"/>
      <point x="850.0" y="1314.0"/>
      <point x="900.0" y="1264.0"/>
      <point x="900.0" y="1190.0" type="curve" smooth="yes"/>
      <point x="900.0" y="1022.0"/>
      <point x="712.0" y="1004.0"/>
      <point x="712.0" y="822.0" type="curve" smooth="yes"/>
      <point x="712.0" y="592.0"/>
      <point x="964.0" y="536.0"/>
      <point x="964.0" y="354.0" type="curve" smooth="yes"/>
      <point x="964.0" y="250.0"/>
      <point x="880.0" y="224.0"/>
      <point x="814.0" y="224.0" type="curve" smooth="yes"/>
      <point x="752.0" y="224.0"/>
      <point x="692.0" y="250.0"/>
      <point x="672.0" y="260.0" type="curve"/>
      <point x="672.0" y="20.0" type="line"/>
      <point x="702.0" y="2.0"/>
      <point x="802.0" y="-16.0"/>
      <point x="906.0" y="-16.0" type="curve" smooth="yes"/>
      <point x="1124.0" y="-16.0"/>
      <point x="1340.0" y="60.0"/>
      <point x="1340.0" y="362.0" type="curve" smooth="yes"/>
      <point x="1340.0" y="676.0"/>
      <point x="1030.0" y="760.0"/>
      <point x="1030.0" y="880.0" type="curve" smooth="yes"/>
      <point x="1030.0" y="998.0"/>
      <point x="1256.0" y="1004.0"/>
      <point x="1256.0" y="1242.0" type="curve" smooth="yes"/>
      <point x="1256.0" y="1412.0"/>
      <point x="1096.0" y="1542.0"/>
      <point x="810.0" y="1542.0" type="curve" smooth="yes"/>
      <point x="460.0" y="1542.0"/>
      <point x="172.0" y="1380.0"/>
      <point x="172.0" y="960.0" type="curve" smooth="yes"/>
    </contour>
    <contour>
      <point x="40.0" y="876.0" type="line"/>
      <point x="174.0" y="876.0" type="line"/>
      <point x="224.0" y="1010.0" type="line"/>
      <point x="196.0" y="1126.0" type="line"/>
      <point x="40.0" y="1094.0" type="line"/>
    </contour>
  </outline>
</glyph>
<glyph name="divide" format="2">
  <advance width="1384.0"/>
  <unicode hex="00F7"/>
  <outline>
    <contour>
      <point x="708.0" y="1004.0" type="curve" smooth="yes"/>
      <point x="832.0" y="1004.0"/>
      <point x="924.0" y="1108.0"/>
      <point x="924.0" y="1224.0" type="curve" smooth="yes"/>
      <point x="924.0" y="1340.0"/>
      <point x="850.0" y="1426.0"/>
      <point x="726.0" y="1426.0" type="curve" smooth="yes"/>
      <point x="604.0" y="1426.0"/>
      <point x="508.0" y="1324.0"/>
      <point x="506.0" y="1208.0" type="curve" smooth="yes"/>
      <point x="506.0" y="1092.0"/>
      <point x="588.0" y="1004.0"/>
    </contour>
    <contour>
      <point x="706.0" y="94.0" type="curve" smooth="yes"/>
      <point x="830.0" y="94.0"/>
      <point x="922.0" y="198.0"/>
      <point x="922.0" y="314.0" type="curve" smooth="yes"/>
      <point x="922.0" y="430.0"/>
      <point x="846.0" y="516.0"/>
      <point x="724.0" y="516.0" type="curve" smooth="yes"/>
      <point x="602.0" y="516.0"/>
      <point x="504.0" y="414.0"/>
      <point x="504.0" y="298.0" type="curve" smooth="yes"/>
      <point x="504.0" y="182.0"/>
      <point x="586.0" y="94.0"/>
    </contour>
    <contour>
      <point x="186.0" y="624.0" type="line"/>
      <point x="1198.0" y="624.0" type="line"/>
      <point x="1198.0" y="886.0" type="line"/>
      <point x="186.0" y="886.0" type="line"/>
    </contour>
  </outline>
</glyph>
<glyph name="oslash" format="2">
  <advance width="1304.0"/>
  <unicode hex="00F8"/>
  <anchor x="644.0" y="1660.0" name="top"/>
  <outline>
    <contour>
      <point x="306.0" y="-204.0" type="line"/>
      <point x="434.0" y="-228.0" type="line"/>
      <point x="998.0" y="1324.0" type="line"/>
      <point x="868.0" y="1352.0" type="line"/>
    </contour>
    <contour>
      <point x="640.0" y="-16.0" type="curve" smooth="yes"/>
      <point x="974.0" y="-16.0"/>
      <point x="1210.0" y="176.0"/>
      <point x="1214.0" y="534.0" type="curve" smooth="yes"/>
      <point x="1220.0" y="854.0"/>
      <point x="1072.0" y="1128.0"/>
      <point x="660.0" y="1128.0" type="curve" smooth="yes"/>
      <point x="326.0" y="1128.0"/>
      <point x="90.0" y="936.0"/>
      <point x="84.0" y="580.0" type="curve"/>
      <point x="80.0" y="260.0"/>
      <point x="228.0" y="-16.0"/>
    </contour>
    <contour>
      <point x="648.0" y="234.0" type="curve" smooth="yes"/>
      <point x="506.0" y="234.0"/>
      <point x="448.0" y="384.0"/>
      <point x="448.0" y="568.0" type="curve" smooth="yes"/>
      <point x="448.0" y="770.0"/>
      <point x="508.0" y="878.0"/>
      <point x="654.0" y="878.0" type="curve"/>
      <point x="794.0" y="878.0"/>
      <point x="852.0" y="730.0"/>
      <point x="852.0" y="550.0" type="curve" smooth="yes"/>
      <point x="852.0" y="338.0"/>
      <point x="790.0" y="234.0"/>
    </contour>
  </outline>
</glyph>
<glyph name="hbar" format="2">
  <advance width="1348.0"/>
  <unicode hex="0127"/>
  <anchor x="658.0" y="0.0" name="bottom"/>
  <anchor x="660.0" y="-166.0" name="btm"/>
  <anchor x="658.0" y="984.0" name="center"/>
  <anchor x="318.0" y="1738.0" name="top"/>
  <outline>
    <contour>
      <point x="30.0" y="1266.0" type="line"/>
      <point x="726.0" y="1266.0" type="line"/>
      <point x="726.0" y="1464.0" type="line"/>
      <point x="30.0" y="1464.0" type="line"/>
    </contour>
    <component base="h"/>
  </outline>
</glyph>
<glyph name="idotless" format="2">
  <advance width="329.0"/>
  <unicode hex="0131"/>
  <anchor x="165.0" y="0.0" name="bottom"/>
  <anchor x="164.0" y="-83.0" name="btm"/>
  <anchor x="236.0" y="25.0" name="ogonek"/>
  <anchor x="164.0" y="830.0" name="top"/>
  <outline>
    <contour>
      <point x="74.0" y="0.0" type="line"/>
      <point x="255.0" y="0.0" type="line"/>
      <point x="255.0" y="557.0" type="line"/>
      <point x="74.0" y="557.0" type="line"/>
    </contour>
  </outline>
</glyph>
<glyph name="Lslash" format="2">
  <advance width="544.0"/>
  <unicode hex="0141"/>
  <anchor x="270.0" y="0.0" name="bottom"/>
  <anchor x="291.0" y="-83.0" name="btm"/>
  <anchor x="270.0" y="372.0" name="center"/>
  <anchor x="174.0" y="830.0" name="top"/>
  <anchor x="524.0" y="743.0" name="topright"/>
  <outline>
    <contour>
      <point x="9.0" y="372.0" type="line"/>
      <point x="44.0" y="277.0" type="line"/>
      <point x="432.0" y="419.0" type="line"/>
      <point x="396.0" y="515.0" type="line"/>
    </contour>
    <component base="L"/>
  </outline>
</glyph>
<glyph name="lslash" format="2">
  <advance width="385.0"/>
  <unicode hex="0142"/>
  <anchor x="172.0" y="0.0" name="bottom"/>
  <anchor x="168.0" y="-83.0" name="btm"/>
  <anchor x="172.0" y="492.0" name="center"/>
  <anchor x="171.0" y="904.0" name="top"/>
  <anchor x="320.0" y="983.0" name="topright"/>
  <outline>
    <contour>
      <point x="25.0" y="327.0" type="line"/>
      <point x="360.0" y="449.0" type="line"/>
      <point x="360.0" y="564.0" type="line"/>
      <point x="25.0" y="437.0" type="line"/>
    </contour>
    <component base="l" xOffset="14.0"/>
  </outline>
</glyph>
<glyph name="oe" format="2">
  <advance width="1946.0"/>
  <unicode hex="0153"/>
  <anchor x="974.0" y="0.0" name="bottom"/>
  <anchor x="1042.0" y="-166.0" name="btm"/>
  <anchor x="1042.0" y="1660.0" name="top"/>
  <outline>
    <contour>
      <point x="1396.0" y="-16.0" type="curve" smooth="yes"/>
      <point x="1594.0" y="-16.0"/>
      <point x="1758.0" y="44.0"/>
      <point x="1832.0" y="104.0" type="curve"/>
      <point x="1778.0" y="300.0" type="line"/>
      <point x="1724.0" y="272.0"/>
      <point x="1586.0" y="244.0"/>
      <point x="1482.0" y="244.0" type="curve" smooth="yes"/>
      <point x="1306.0" y="244.0"/>
      <point x="1206.0" y="316.0"/>
      <point x="1202.0" y="510.0" type="curve"/>
      <point x="1200.0" y="808.0"/>
      <point x="1268.0" y="896.0"/>
      <point x="1392.0" y="896.0" type="curve" smooth="yes"/>
      <point x="1502.0" y="896.0"/>
      <point x="1542.0" y="814.0"/>
      <point x="1532.0" y="652.0" type="curve"/>
      <point x="1050.0" y="652.0" type="line"/>
      <point x="1032.0" y="476.0" type="line"/>
      <point x="1854.0" y="476.0" type="line"/>
      <point x="1860.0" y="524.0"/>
      <point x="1864.0" y="596.0"/>
      <point x="1864.0" y="676.0" type="curve" smooth="yes"/>
      <point x="1864.0" y="1034.0"/>
      <point x="1636.0" y="1128.0"/>
      <point x="1400.0" y="1128.0" type="curve" smooth="yes"/>
      <point x="1048.0" y="1128.0"/>
      <point x="852.0" y="886.0"/>
      <point x="852.0" y="562.0" type="curve" smooth="yes"/>
      <point x="852.0" y="200.0"/>
      <point x="1040.0" y="-16.0"/>
    </contour>
    <contour>
      <point x="646.0" y="234.0" type="curve" smooth="yes"/>
      <point x="506.0" y="234.0"/>
      <point x="462.0" y="384.0"/>
      <point x="462.0" y="568.0" type="curve" smooth="yes"/>
      <point x="462.0" y="770.0"/>
      <point x="506.0" y="878.0"/>
      <point x="652.0" y="878.0" type="curve"/>
      <point x="792.0" y="878.0"/>
      <point x="834.0" y="730.0"/>
      <point x="834.0" y="550.0" type="curve" smooth="yes"/>
      <point x="834.0" y="338.0"/>
      <point x="790.0" y="234.0"/>
    </contour>
    <contour>
      <point x="638.0" y="-16.0" type="curve" smooth="yes"/>
      <point x="972.0" y="-16.0"/>
      <point x="1198.0" y="176.0"/>
      <point x="1202.0" y="534.0" type="curve" smooth="yes"/>
      <point x="1208.0" y="854.0"/>
      <point x="1070.0" y="1128.0"/>
      <point x="660.0" y="1128.0" type="curve" smooth="yes"/>
      <point x="324.0" y="1128.0"/>
      <point x="88.0" y="936.0"/>
      <point x="84.0" y="580.0" type="curve" smooth="yes"/>
      <point x="80.0" y="260.0"/>
      <point x="226.0" y="-16.0"/>
    </contour>
  </outline>
</glyph>
<glyph name="Tbar" format="2">
  <advance width="1224.0"/>
  <unicode hex="0166"/>
  <anchor x="612.0" y="0.0" name="bottom"/>
  <anchor x="612.0" y="744.0" name="center"/>
  <anchor x="610.0" y="1660.0" name="top"/>
  <outline>
    <contour>
      <point x="172.0" y="544.0" type="line"/>
      <point x="1078.0" y="544.0" type="line"/>
      <point x="1078.0" y="778.0" type="line"/>
      <point x="172.0" y="778.0" type="line"/>
    </contour>
    <component base="T"/>
  </outline>
</glyph>
<glyph name="tbar" format="2">
  <advance width="904.0"/>
  <unicode hex="0167"/>
  <anchor x="444.0" y="0.0" name="bottom"/>
  <anchor x="488.0" y="-166.0" name="btm"/>
  <anchor x="444.0" y="558.0" name="center"/>
  <anchor x="424.0" y="1826.0" name="top"/>
  <anchor x="856.0" y="1114.0" name="topright"/>
  <outline>
    <contour>
      <point x="58.0" y="480.0" type="line"/>
      <point x="836.0" y="480.0" type="line"/>
      <point x="836.0" y="720.0" type="line"/>
      <point x="58.0" y="720.0" type="line"/>
    </contour>
    <component base="t"/>
  </outline>
</glyph>
<glyph name="Ezh" format="2">
  <advance width="604.0"/>
  <unicode hex="01B7"/>
  <anchor x="306.0" y="0.0" name="bottom"/>
  <anchor x="305.0" y="830.0" name="top"/>
  <outline>
    <contour>
      <point x="220.0" y="-11.0" type="curve" smooth="yes"/>
      <point x="433.0" y="-11.0"/>
      <point x="569.0" y="94.0"/>
      <point x="568.0" y="216.0" type="curve" smooth="yes"/>
      <point x="569.0" y="334.0"/>
      <point x="478.0" y="418.0"/>
      <point x="333.0" y="418.0" type="curve"/>
      <point x="530.0" y="604.0" type="line"/>
      <point x="528.0" y="743.0" type="line"/>
      <point x="56.0" y="743.0" type="line"/>
      <point x="55.0" y="604.0" type="line"/>
      <point x="346.0" y="604.0" type="line"/>
      <point x="305.0" y="573.0" type="line"/>
      <point x="161.0" y="433.0" type="line"/>
      <point x="162.0" y="291.0" type="line"/>
      <point x="187.0" y="320.0"/>
      <point x="228.0" y="336.0"/>
      <point x="266.0" y="335.0" type="curve" smooth="yes"/>
      <point x="317.0" y="334.0"/>
      <point x="364.0" y="303.0"/>
      <point x="364.0" y="234.0" type="curve" smooth="yes"/>
      <point x="364.0" y="161.0"/>
      <point x="305.0" y="118.0"/>
      <point x="172.0" y="118.0" type="curve" smooth="yes"/>
      <point x="150.0" y="118.0"/>
      <point x="93.0" y="123.0"/>
      <point x="55.0" y="135.0" type="curve"/>
      <point x="56.0" y="14.0" type="line"/>
      <point x="93.0" y="4.0"/>
      <point x="149.0" y="-11.0"/>
    </contour>
  </outline>
</glyph>
<glyph name="jdotless" format="2">
  <advance width="662.0"/>
  <unicode hex="0237"/>
  <anchor x="332.0" y="-546.0" name="bottom"/>
  <anchor x="342.0" y="1662.0" name="top"/>
  <outline>
    <contour>
      <point x="-102.0" y="-470.0" type="line"/>
      <point x="-72.0" y="-480.0"/>
      <point x="24.0" y="-496.0"/>
      <point x="90.0" y="-496.0" type="curve" smooth="yes"/>
      <point x="354.0" y="-496.0"/>
      <point x="518.0" y="-356.0"/>
      <point x="518.0" y="80.0" type="curve" smooth="yes"/>
      <point x="518.0" y="1114.0" type="line"/>
      <point x="164.0" y="1114.0" type="line"/>
      <point x="164.0" y="2.0" type="line" smooth="yes"/>
      <point x="164.0" y="-202.0"/>
      <point x="118.0" y="-262.0"/>
      <point x="30.0" y="-262.0" type="curve" smooth="yes"/>
      <point x="-20.0" y="-262.0"/>
      <point x="-86.0" y="-250.0"/>
      <point x="-102.0" y="-242.0" type="curve"/>
    </contour>
  </outline>
</glyph>
<glyph name="schwa" format="2">
  <advance width="1192.0"/>
  <unicode hex="0259"/>
  <anchor x="554.0" y="-547.0" name="bottom"/>
  <anchor x="558.0" y="-166.0" name="btm"/>
  <anchor x="560.0" y="1662.0" name="top"/>
  <outline>
    <contour>
      <point x="554.0" y="1130.0" type="curve" smooth="yes"/>
      <point x="356.0" y="1130.0"/>
      <point x="188.0" y="1070.0"/>
      <point x="114.0" y="1010.0" type="curve"/>
      <point x="170.0" y="818.0" type="line"/>
      <point x="224.0" y="846.0"/>
      <point x="362.0" y="874.0"/>
      <point x="470.0" y="874.0" type="curve" smooth="yes"/>
      <point x="644.0" y="874.0"/>
      <point x="746.0" y="798.0"/>
      <point x="750.0" y="604.0" type="curve" smooth="yes"/>
      <point x="754.0" y="306.0"/>
      <point x="684.0" y="218.0"/>
      <point x="558.0" y="218.0" type="curve" smooth="yes"/>
      <point x="448.0" y="218.0"/>
      <point x="408.0" y="300.0"/>
      <point x="418.0" y="462.0" type="curve"/>
      <point x="902.0" y="462.0" type="line"/>
      <point x="922.0" y="642.0" type="line"/>
      <point x="94.0" y="642.0" type="line"/>
      <point x="88.0" y="594.0"/>
      <point x="82.0" y="518.0"/>
      <point x="82.0" y="438.0" type="curve" smooth="yes"/>
      <point x="86.0" y="80.0"/>
      <point x="314.0" y="-14.0"/>
      <point x="550.0" y="-14.0" type="curve" smooth="yes"/>
      <point x="904.0" y="-14.0"/>
      <point x="1108.0" y="228.0"/>
      <point x="1108.0" y="552.0" type="curve" smooth="yes"/>
      <point x="1108.0" y="914.0"/>
      <point x="914.0" y="1130.0"/>
    </contour>
  </outline>
</glyph>
<glyph name="ezh" format="2">
  <advance width="1004.0"/>
  <unicode hex="0292"/>
  <anchor x="484.0" y="0.0" name="bottom"/>
  <anchor x="432.0" y="1662.0" name="top"/>
  <outline>
    <contour>
      <point x="268.0" y="-300.0" type="curve" smooth="yes"/>
      <point x="730.0" y="-300.0"/>
      <point x="910.0" y="-64.0"/>
      <point x="910.0" y="182.0" type="curve" smooth="yes"/>
      <point x="910.0" y="352.0"/>
      <point x="794.0" y="512.0"/>
      <point x="562.0" y="532.0" type="curve"/>
      <point x="944.0" y="980.0" type="line"/>
      <point x="868.0" y="1114.0" type="line"/>
      <point x="70.0" y="1114.0" type="line"/>
      <point x="70.0" y="852.0" type="line"/>
      <point x="534.0" y="852.0" type="line"/>
      <point x="416.0" y="736.0" type="line"/>
      <point x="188.0" y="496.0" type="line"/>
      <point x="334.0" y="326.0" type="line"/>
      <point x="454.0" y="356.0"/>
      <point x="590.0" y="292.0"/>
      <point x="590.0" y="178.0" type="curve" smooth="yes"/>
      <point x="590.0" y="66.0"/>
      <point x="526.0" y="-26.0"/>
      <point x="234.0" y="-26.0" type="curve" smooth="yes"/>
      <point x="188.0" y="-26.0"/>
      <point x="138.0" y="-24.0"/>
      <point x="88.0" y="-6.0" type="curve"/>
      <point x="86.0" y="-286.0" type="line"/>
      <point x="146.0" y="-290.0"/>
      <point x="206.0" y="-300.0"/>
    </contour>
  </outline>
</glyph>
<glyph name="ringhalfleft" format="2">
  <unicode hex="02BF"/>
  <anchor x="0.0" y="1660.0" name="_top"/>
  <outline>
    <contour>
      <point x="0.0" y="1266.0" type="curve"/>
      <point x="0.0" y="1430.0" type="line"/>
      <point x="-90.0" y="1430.0"/>
      <point x="-154.0" y="1488.0"/>
      <point x="-154.0" y="1570.0" type="curve" smooth="yes"/>
      <point x="-154.0" y="1644.0"/>
      <point x="-98.0" y="1702.0"/>
      <point x="0.0" y="1702.0" type="curve"/>
      <point x="0.0" y="1862.0" type="line"/>
      <point x="-174.0" y="1860.0"/>
      <point x="-350.0" y="1782.0"/>
      <point x="-354.0" y="1572.0" type="curve" smooth="yes"/>
      <point x="-358.0" y="1376.0"/>
      <point x="-218.0" y="1266.0"/>
    </contour>
  </outline>
</glyph>
<glyph name="caron" format="2">
  <advance width="810.0"/>
  <unicode hex="02C7"/>
  <anchor x="440.0" y="1654.0" name="_top"/>
  <outline>
    <contour>
      <point x="30.0" y="1582.0" type="line"/>
      <point x="328.0" y="1220.0" type="line"/>
      <point x="546.0" y="1220.0" type="line"/>
      <point x="842.0" y="1580.0" type="line"/>
      <point x="670.0" y="1692.0" type="line"/>
      <point x="436.0" y="1470.0" type="line"/>
      <point x="202.0" y="1692.0" type="line"/>
    </contour>
  </outline>
</glyph>
<glyph name="firsttonechinese" format="2">
  <advance width="684.0"/>
  <unicode hex="02C9"/>
  <anchor x="326.0" y="1662.0" name="_top"/>
  <outline>
    <contour>
      <point x="40.0" y="1680.0" type="line"/>
      <point x="644.0" y="1680.0" type="line"/>
      <point x="644.0" y="1920.0" type="line"/>
      <point x="40.0" y="1920.0" type="line"/>
    </contour>
  </outline>
</glyph>
<glyph name="breve" format="2">
  <unicode hex="02D8"/>
  <anchor x="404.0" y="1662.0" name="_top"/>
  <outline>
    <contour>
      <point x="404.0" y="1256.0" type="curve" smooth="yes"/>
      <point x="640.0" y="1256.0"/>
      <point x="782.0" y="1422.0"/>
      <point x="780.0" y="1648.0" type="curve"/>
      <point x="560.0" y="1648.0" type="line"/>
      <point x="552.0" y="1602.0"/>
      <point x="540.0" y="1494.0"/>
      <point x="404.0" y="1494.0" type="curve" smooth="yes"/>
      <point x="264.0" y="1494.0"/>
      <point x="254.0" y="1602.0"/>
      <point x="250.0" y="1648.0" type="curve"/>
      <point x="28.0" y="1648.0" type="line"/>
      <point x="24.0" y="1422.0"/>
      <point x="156.0" y="1256.0"/>
    </contour>
  </outline>
</glyph>
<glyph name="dotaccent" format="2">
  <advance width="520.0"/>
  <unicode hex="02D9"/>
  <anchor x="268.0" y="1662.0" name="_top"/>
  <outline>
    <contour>
      <point x="252.0" y="1250.0" type="curve" smooth="yes"/>
      <point x="372.0" y="1250.0"/>
      <point x="468.0" y="1342.0"/>
      <point x="468.0" y="1452.0" type="curve" smooth="yes"/>
      <point x="468.0" y="1562.0"/>
      <point x="388.0" y="1638.0"/>
      <point x="270.0" y="1638.0" type="curve" smooth="yes"/>
      <point x="152.0" y="1638.0"/>
      <point x="52.0" y="1546.0"/>
      <point x="52.0" y="1436.0" type="curve" smooth="yes"/>
      <point x="52.0" y="1328.0"/>
      <point x="136.0" y="1250.0"/>
    </contour>
  </outline>
</glyph>
<glyph name="tilde" format="2">
  <advance width="912.0"/>
  <unicode hex="02DC"/>
  <anchor x="460.0" y="1662.0" name="_top"/>
  <outline>
    <contour>
      <point x="138.0" y="1302.0" type="line"/>
      <point x="170.0" y="1346.0"/>
      <point x="232.0" y="1400.0"/>
      <point x="296.0" y="1400.0" type="curve" smooth="yes"/>
      <point x="412.0" y="1400.0"/>
      <point x="430.0" y="1270.0"/>
      <point x="610.0" y="1270.0" type="curve" smooth="yes"/>
      <point x="768.0" y="1270.0"/>
      <point x="876.0" y="1386.0"/>
      <point x="906.0" y="1500.0" type="curve"/>
      <point x="782.0" y="1632.0" type="line"/>
      <point x="750.0" y="1588.0"/>
      <point x="688.0" y="1530.0"/>
      <point x="620.0" y="1530.0" type="curve" smooth="yes"/>
      <point x="512.0" y="1530.0"/>
      <point x="506.0" y="1658.0"/>
      <point x="312.0" y="1658.0" type="curve" smooth="yes"/>
      <point x="150.0" y="1658.0"/>
      <point x="38.0" y="1544.0"/>
      <point x="8.0" y="1432.0" type="curve"/>
    </contour>
  </outline>
</glyph>
<glyph name="gravecomb" format="2">
  <unicode hex="0300"/>
  <anchor x="0.0" y="1662.0" name="_top"/>
  <anchor x="-158.0" y="1782.0" name="top"/>
  <outline>
    <contour>
      <point x="98.0" y="1348.0" type="line"/>
      <point x="-2.0" y="1440.0"/>
      <point x="-154.0" y="1646.0"/>
      <point x="-236.0" y="1782.0" type="curve"/>
      <point x="-444.0" y="1598.0" type="line"/>
      <point x="-376.0" y="1446.0"/>
      <point x="-126.0" y="1238.0"/>
      <point x="-36.0" y="1194.0" type="curve"/>
    </contour>
  </outline>
</glyph>
<glyph name="acutecomb" format="2">
  <unicode hex="0301"/>
  <anchor x="0.0" y="831.0" name="_top"/>
  <anchor x="-118.0" y="1024.0" name="top"/>
  <outline>
    <contour>
      <point x="-26.0" y="640.0" type="line"/>
      <point x="17.0" y="661.0"/>
      <point x="140.0" y="759.0"/>
      <point x="171.0" y="833.0" type="curve"/>
      <point x="53.0" y="925.0" type="line"/>
      <point x="6.0" y="850.0"/>
      <point x="-66.0" y="763.0"/>
      <point x="-111.0" y="718.0" type="curve"/>
    </contour>
  </outline>
</glyph>
<glyph name="circumflexcomb" format="2">
  <unicode hex="0302"/>
  <anchor x="0.0" y="1660.0" name="_top"/>
  <anchor x="0.0" y="2154.0" name="top"/>
  <outline>
    <contour>
      <point x="-234.0" y="1232.0" type="line"/>
      <point x="0.0" y="1442.0" type="line"/>
      <point x="234.0" y="1232.0" type="line"/>
      <point x="406.0" y="1332.0" type="line"/>
      <point x="110.0" y="1692.0" type="line"/>
      <point x="-108.0" y="1692.0" type="line"/>
      <point x="-406.0" y="1332.0" type="line"/>
    </contour>
  </outline>
</glyph>
<glyph name="macroncomb" format="2">
  <unicode hex="0304"/>
  <anchor x="0.0" y="1662.0" name="_top"/>
  <anchor x="0.0" y="2088.0" name="top"/>
  <outline>
    <contour>
      <point x="-302.0" y="1320.0" type="line"/>
      <point x="302.0" y="1320.0" type="line"/>
      <point x="302.0" y="1552.0" type="line"/>
      <point x="-302.0" y="1552.0" type="line"/>
    </contour>
  </outline>
</glyph>
<glyph name="brevecomb" format="2">
  <unicode hex="0306"/>
  <anchor x="0.0" y="1662.0" name="_top"/>
  <anchor x="0.0" y="1966.0" name="top"/>
  <outline>
    <contour>
      <point x="0.0" y="1256.0" type="curve" smooth="yes"/>
      <point x="236.0" y="1256.0"/>
      <point x="378.0" y="1422.0"/>
      <point x="376.0" y="1648.0" type="curve"/>
      <point x="156.0" y="1648.0" type="line"/>
      <point x="148.0" y="1602.0"/>
      <point x="136.0" y="1494.0"/>
      <point x="0.0" y="1494.0" type="curve" smooth="yes"/>
      <point x="-140.0" y="1494.0"/>
      <point x="-150.0" y="1602.0"/>
      <point x="-154.0" y="1648.0" type="curve"/>
      <point x="-376.0" y="1648.0" type="line"/>
      <point x="-380.0" y="1422.0"/>
      <point x="-248.0" y="1256.0"/>
    </contour>
  </outline>
</glyph>
<glyph name="hookabovecomb" format="2">
  <unicode hex="0309"/>
  <anchor x="0.0" y="1660.0" name="_top"/>
  <anchor x="0.0" y="1966.0" name="top"/>
  <outline>
    <contour>
      <point x="-92.0" y="1276.0" type="curve"/>
      <point x="92.0" y="1276.0" type="line"/>
      <point x="78.0" y="1334.0"/>
      <point x="94.0" y="1386.0"/>
      <point x="132.0" y="1416.0" type="curve" smooth="yes"/>
      <point x="182.0" y="1454.0"/>
      <point x="236.0" y="1516.0"/>
      <point x="236.0" y="1602.0" type="curve" smooth="yes"/>
      <point x="236.0" y="1708.0"/>
      <point x="140.0" y="1788.0"/>
      <point x="-20.0" y="1788.0" type="curve" smooth="yes"/>
      <point x="-112.0" y="1788.0"/>
      <point x="-204.0" y="1770.0"/>
      <point x="-248.0" y="1748.0" type="curve"/>
      <point x="-244.0" y="1580.0" type="line"/>
      <point x="-220.0" y="1598.0"/>
      <point x="-172.0" y="1616.0"/>
      <point x="-122.0" y="1616.0" type="curve" smooth="yes"/>
      <point x="-42.0" y="1616.0"/>
      <point x="-20.0" y="1582.0"/>
      <point x="-20.0" y="1542.0" type="curve" smooth="yes"/>
      <point x="-20.0" y="1466.0"/>
      <point x="-118.0" y="1448.0"/>
      <point x="-118.0" y="1364.0" type="curve" smooth="yes"/>
      <point x="-118.0" y="1324.0"/>
      <point x="-108.0" y="1304.0"/>
    </contour>
  </outline>
</glyph>
<glyph name="ringcomb" format="2">
  <unicode hex="030A"/>
  <anchor x="0.0" y="1660.0" name="_top"/>
  <anchor x="226.0" y="2074.0" name="top"/>
  <outline>
    <contour>
      <point x="-4.0" y="1266.0" type="curve" smooth="yes"/>
      <point x="180.0" y="1266.0"/>
      <point x="352.0" y="1354.0"/>
      <point x="354.0" y="1566.0" type="curve" smooth="yes"/>
      <point x="356.0" y="1758.0"/>
      <point x="222.0" y="1862.0"/>
      <point x="6.0" y="1862.0" type="curve" smooth="yes"/>
      <point x="-168.0" y="1862.0"/>
      <point x="-350.0" y="1784.0"/>
      <point x="-354.0" y="1572.0" type="curve" smooth="yes"/>
      <point x="-358.0" y="1384.0"/>
      <point x="-226.0" y="1266.0"/>
    </contour>
    <contour>
      <point x="0.0" y="1430.0" type="curve" smooth="yes"/>
      <point x="-90.0" y="1430.0"/>
      <point x="-154.0" y="1488.0"/>
      <point x="-154.0" y="1570.0" type="curve" smooth="yes"/>
      <point x="-154.0" y="1670.0"/>
      <point x="-82.0" y="1704.0"/>
      <point x="0.0" y="1702.0" type="curve" smooth="yes"/>
      <point x="90.0" y="1700.0"/>
      <point x="154.0" y="1650.0"/>
      <point x="154.0" y="1562.0" type="curve" smooth="yes"/>
      <point x="154.0" y="1460.0"/>
      <point x="94.0" y="1430.0"/>
    </contour>
  </outline>
</glyph>
<glyph name="caroncomb" format="2">
  <unicode hex="030C"/>
  <anchor x="0.0" y="1660.0" name="_top"/>
  <anchor x="0.0" y="2092.0" name="top"/>
  <outline>
    <contour>
      <point x="-410.0" y="1622.0" type="line"/>
      <point x="-112.0" y="1260.0" type="line"/>
      <point x="106.0" y="1260.0" type="line"/>
      <point x="402.0" y="1620.0" type="line"/>
      <point x="230.0" y="1732.0" type="line"/>
      <point x="-4.0" y="1510.0" type="line"/>
      <point x="-238.0" y="1732.0" type="line"/>
    </contour>
  </outline>
</glyph>
<glyph name="dblgravecomb" format="2">
  <unicode hex="030F"/>
  <anchor x="0.0" y="1654.0" name="_top"/>
  <anchor x="-116.0" y="1966.0" name="top"/>
  <outline>
    <contour>
      <point x="276.0" y="1250.0" type="curve"/>
      <point x="416.0" y="1352.0" type="line"/>
      <point x="342.0" y="1452.0"/>
      <point x="142.0" y="1768.0"/>
      <point x="124.0" y="1794.0" type="curve"/>
      <point x="-86.0" y="1650.0" type="line"/>
      <point x="-20.0" y="1522.0"/>
      <point x="182.0" y="1304.0"/>
    </contour>
    <contour>
      <point x="-188.0" y="1250.0" type="curve"/>
      <point x="-52.0" y="1352.0" type="line"/>
      <point x="-110.0" y="1428.0"/>
      <point x="-330.0" y="1760.0"/>
      <point x="-350.0" y="1788.0" type="curve"/>
      <point x="-560.0" y="1644.0" type="line"/>
      <point x="-494.0" y="1520.0"/>
      <point x="-286.0" y="1298.0"/>
    </contour>
  </outline>
</glyph>
<glyph name="horncomb" format="2">
  <unicode hex="031B"/>
  <anchor x="-2.0" y="557.0" name="_topright"/>
  <anchor x="105.0" y="557.0" name="topright"/>
  <outline>
    <contour>
      <point x="-13.0" y="447.0" type="line"/>
      <point x="144.0" y="448.0"/>
      <point x="248.0" y="517.0"/>
      <point x="248.0" y="661.0" type="curve" smooth="yes"/>
      <point x="248.0" y="679.0"/>
      <point x="247.0" y="692.0"/>
      <point x="246.0" y="700.0" type="curve"/>
      <point x="128.0" y="700.0" type="line"/>
      <point x="129.0" y="696.0"/>
      <point x="129.0" y="690.0"/>
      <point x="129.0" y="672.0" type="curve" smooth="yes"/>
      <point x="129.0" y="628.0"/>
      <point x="111.0" y="558.0"/>
      <point x="-13.0" y="557.0" type="curve"/>
    </contour>
  </outline>
</glyph>
<glyph name="dotbelowcomb" format="2">
  <unicode hex="0323"/>
  <anchor x="0.0" y="0.0" name="_bottom"/>
  <anchor x="0.0" y="-83.0" name="_btm"/>
  <anchor x="0.0" y="-243.0" name="bottom"/>
  <outline>
    <contour>
      <point x="-4.0" y="-267.0" type="curve" smooth="yes"/>
      <point x="56.0" y="-267.0"/>
      <point x="104.0" y="-221.0"/>
      <point x="104.0" y="-166.0" type="curve" smooth="yes"/>
      <point x="104.0" y="-111.0"/>
      <point x="64.0" y="-73.0"/>
      <point x="5.0" y="-73.0" type="curve" smooth="yes"/>
      <point x="-54.0" y="-73.0"/>
      <point x="-104.0" y="-119.0"/>
      <point x="-104.0" y="-174.0" type="curve" smooth="yes"/>
      <point x="-104.0" y="-228.0"/>
      <point x="-62.0" y="-267.0"/>
    </contour>
  </outline>
</glyph>
<glyph name="cedillacomb" format="2">
  <unicode hex="0327"/>
  <anchor x="-23.0" y="0.0" name="_bottom"/>
  <anchor x="0.0" y="-83.0" name="_btm"/>
  <anchor x="-23.0" y="-227.0" name="bottom"/>
  <outline>
    <contour>
      <point x="-175.0" y="-213.0" type="line"/>
      <point x="-162.0" y="-221.0"/>
      <point x="-111.0" y="-227.0"/>
      <point x="-82.0" y="-227.0" type="curve" smooth="yes"/>
      <point x="-11.0" y="-227.0"/>
      <point x="46.0" y="-189.0"/>
      <point x="48.0" y="-105.0" type="curve" smooth="yes"/>
      <point x="49.0" y="-62.0"/>
      <point x="38.0" y="-4.0"/>
      <point x="16.0" y="15.0" type="curve"/>
      <point x="-10.0" y="17.0" type="line"/>
      <point x="-88.0" y="15.0" type="line"/>
      <point x="-79.0" y="-1.0"/>
      <point x="-69.0" y="-19.0"/>
      <point x="-70.0" y="-58.0" type="curve" smooth="yes"/>
      <point x="-71.0" y="-106.0"/>
      <point x="-96.0" y="-131.0"/>
      <point x="-127.0" y="-131.0" type="curve" smooth="yes"/>
      <point x="-143.0" y="-131.0"/>
      <point x="-155.0" y="-130.0"/>
      <point x="-164.0" y="-125.0" type="curve"/>
    </contour>
  </outline>
</glyph>
<glyph name="slashshortcomb" format="2">
  <unicode hex="0337"/>
  <anchor x="0.0" y="456.0" name="_center"/>
  <outline>
    <contour>
      <point x="220.0" y="1114.0" type="line"/>
      <point x="-440.0" y="-196.0" type="line"/>
      <point x="-222.0" y="-204.0" type="line"/>
      <point x="440.0" y="1112.0" type="line"/>
    </contour>
  </outline>
</glyph>
<glyph name="Germandbls" format="2">
  <advance width="1490.0"/>
  <unicode hex="1E9E"/>
  <anchor x="746.0" y="0.0" name="bottom"/>
  <anchor x="746.0" y="1486.0" name="top"/>
  <outline>
    <contour>
      <point x="100.0" y="0.0" type="line"/>
      <point x="478.0" y="0.0" type="line"/>
      <point x="478.0" y="848.0" type="line" smooth="yes"/>
      <point x="478.0" y="1114.0"/>
      <point x="596.0" y="1248.0"/>
      <point x="846.0" y="1248.0" type="curve" smooth="yes"/>
      <point x="928.0" y="1248.0"/>
      <point x="988.0" y="1234.0"/>
      <point x="1026.0" y="1214.0" type="curve"/>
      <point x="738.0" y="882.0" type="line"/>
      <point x="734.0" y="686.0" type="line"/>
      <point x="1004.0" y="686.0"/>
      <point x="1114.0" y="610.0"/>
      <point x="1114.0" y="444.0" type="curve" smooth="yes"/>
      <point x="1114.0" y="290.0"/>
      <point x="1000.0" y="232.0"/>
      <point x="902.0" y="232.0" type="curve" smooth="yes"/>
      <point x="800.0" y="232.0"/>
      <point x="726.0" y="274.0"/>
      <point x="682.0" y="298.0" type="curve"/>
      <point x="594.0" y="54.0" type="line"/>
      <point x="666.0" y="18.0"/>
      <point x="764.0" y="-22.0"/>
      <point x="974.0" y="-22.0" type="curve" smooth="yes"/>
      <point x="1284.0" y="-22.0"/>
      <point x="1500.0" y="166.0"/>
      <point x="1500.0" y="474.0" type="curve" smooth="yes"/>
      <point x="1500.0" y="742.0"/>
      <point x="1266.0" y="870.0"/>
      <point x="1154.0" y="870.0" type="curve"/>
      <point x="1398.0" y="1108.0" type="line"/>
      <point x="1398.0" y="1408.0" type="line"/>
      <point x="1298.0" y="1408.0"/>
      <point x="1106.0" y="1502.0"/>
      <point x="840.0" y="1502.0" type="curve" smooth="yes"/>
      <point x="362.0" y="1502.0"/>
      <point x="100.0" y="1212.0"/>
      <point x="100.0" y="736.0" type="curve" smooth="yes"/>
    </contour>
  </outline>
</glyph>
<glyph name="quoteleft" format="2">
  <advance width="610.0"/>
  <unicode hex="2018"/>
  <outline>
    <contour>
      <point x="296.0" y="894.0" type="curve"/>
      <point x="488.0" y="1042.0" type="line"/>
      <point x="488.0" y="1120.0" type="line"/>
      <point x="452.0" y="1142.0"/>
      <point x="400.0" y="1226.0"/>
      <point x="400.0" y="1350.0" type="curve" smooth="yes"/>
      <point x="400.0" y="1456.0"/>
      <point x="424.0" y="1554.0"/>
      <point x="456.0" y="1594.0" type="curve"/>
      <point x="456.0" y="1622.0" type="line"/>
      <point x="306.0" y="1714.0" type="line"/>
      <point x="248.0" y="1672.0"/>
      <point x="108.0" y="1534.0"/>
      <point x="108.0" y="1260.0" type="curve" smooth="yes"/>
      <point x="108.0" y="1062.0"/>
      <point x="210.0" y="926.0"/>
    </contour>
  </outline>
</glyph>
<glyph name="quotereversed" format="2">
  <advance width="610.0"/>
  <unicode hex="201B"/>
  <outline>
    <contour>
      <point x="296.0" y="1714.0" type="line"/>
      <point x="210.0" y="1684.0"/>
      <point x="108.0" y="1548.0"/>
      <point x="108.0" y="1350.0" type="curve" smooth="yes"/>
      <point x="108.0" y="1076.0"/>
      <point x="248.0" y="938.0"/>
      <point x="306.0" y="894.0" type="curve"/>
      <point x="456.0" y="988.0" type="line"/>
      <point x="456.0" y="1016.0" type="line"/>
      <point x="424.0" y="1056.0"/>
      <point x="400.0" y="1154.0"/>
      <point x="400.0" y="1260.0" type="curve" smooth="yes"/>
      <point x="400.0" y="1384.0"/>
      <point x="452.0" y="1468.0"/>
      <point x="488.0" y="1490.0" type="curve"/>
      <point x="488.0" y="1566.0" type="line"/>
    </contour>
  </outline>
</glyph>
<glyph name="daggerdbl" format="2">
  <advance width="1014.0"/>
  <unicode hex="2021"/>
  <outline>
    <contour>
      <point x="378.0" y="-348.0" type="line"/>
      <point x="626.0" y="-348.0" type="line"/>
      <point x="646.0" y="382.0" type="line"/>
      <point x="924.0" y="382.0" type="line"/>
      <point x="924.0" y="624.0" type="line"/>
      <point x="646.0" y="626.0" type="line"/>
      <point x="646.0" y="1016.0" type="line"/>
      <point x="924.0" y="1016.0" type="line"/>
      <point x="924.0" y="1258.0" type="line"/>
      <point x="646.0" y="1258.0" type="line"/>
      <point x="648.0" y="1620.0" type="line"/>
      <point x="362.0" y="1620.0" type="line"/>
      <point x="362.0" y="1258.0" type="line"/>
      <point x="90.0" y="1258.0" type="line"/>
      <point x="90.0" y="1016.0" type="line"/>
      <point x="362.0" y="1016.0" type="line"/>
      <point x="362.0" y="626.0" type="line"/>
      <point x="90.0" y="624.0" type="line"/>
      <point x="90.0" y="382.0" type="line"/>
      <point x="362.0" y="382.0" type="line"/>
    </contour>
  </outline>
</glyph>
<glyph name="bullet" format="2">
  <advance width="890.0"/>
  <unicode hex="2022"/>
  <outline>
    <contour>
      <point x="436.0" y="430.0" type="curve" smooth="yes"/>
      <point x="598.0" y="430.0"/>
      <point x="732.0" y="568.0"/>
      <point x="732.0" y="724.0" type="curve" smooth="yes"/>
      <point x="732.0" y="884.0"/>
      <point x="620.0" y="998.0"/>
      <point x="458.0" y="998.0" type="curve" smooth="yes"/>
      <point x="296.0" y="998.0"/>
      <point x="158.0" y="862.0"/>
      <point x="158.0" y="704.0" type="curve" smooth="yes"/>
      <point x="156.0" y="546.0"/>
      <point x="274.0" y="430.0"/>
    </contour>
  </outline>
</glyph>
<glyph name="ellipsis" format="2">
  <advance width="1948.0"/>
  <unicode hex="2026"/>
  <outline>
    <contour>
      <point x="320.0" y="-22.0" type="curve" smooth="yes"/>
      <point x="442.0" y="-22.0"/>
      <point x="536.0" y="84.0"/>
      <point x="536.0" y="202.0" type="curve" smooth="yes"/>
      <point x="536.0" y="318.0"/>
      <point x="458.0" y="406.0"/>
      <point x="336.0" y="406.0" type="curve" smooth="yes"/>
      <point x="212.0" y="406.0"/>
      <point x="118.0" y="302.0"/>
      <point x="118.0" y="184.0" type="curve" smooth="yes"/>
      <point x="118.0" y="68.0"/>
      <point x="200.0" y="-22.0"/>
    </contour>
    <contour>
      <point x="966.0" y="-22.0" type="curve" smooth="yes"/>
      <point x="1090.0" y="-22.0"/>
      <point x="1182.0" y="84.0"/>
      <point x="1182.0" y="202.0" type="curve" smooth="yes"/>
      <point x="1182.0" y="318.0"/>
      <point x="1106.0" y="406.0"/>
      <point x="984.0" y="406.0" type="curve" smooth="yes"/>
      <point x="860.0" y="406.0"/>
      <point x="764.0" y="302.0"/>
      <point x="764.0" y="184.0" type="curve" smooth="yes"/>
      <point x="766.0" y="68.0"/>
      <point x="846.0" y="-22.0"/>
    </contour>
    <contour>
      <point x="1614.0" y="-22.0" type="curve" smooth="yes"/>
      <point x="1736.0" y="-22.0"/>
      <point x="1830.0" y="84.0"/>
      <point x="1830.0" y="202.0" type="curve" smooth="yes"/>
      <point x="1830.0" y="318.0"/>
      <point x="1752.0" y="406.0"/>
      <point x="1630.0" y="406.0" type="curve" smooth="yes"/>
      <point x="1506.0" y="406.0"/>
      <point x="1412.0" y="302.0"/>
      <point x="1412.0" y="184.0" type="curve" smooth="yes"/>
      <point x="1412.0" y="68.0"/>
      <point x="1494.0" y="-22.0"/>
    </contour>
  </outline>
</glyph>
<glyph name="guilsinglleft" format="2">
  <advance width="1184.0"/>
  <unicode hex="2039"/>
  <outline>
    <contour>
      <point x="216.0" y="462.0" type="line"/>
      <point x="864.0" y="54.0" type="line"/>
      <point x="948.0" y="302.0" type="line"/>
      <point x="480.0" y="664.0" type="line"/>
      <point x="480.0" y="538.0" type="line"/>
      <point x="948.0" y="900.0" type="line"/>
      <point x="864.0" y="1146.0" type="line"/>
      <point x="216.0" y="740.0" type="line"/>
    </contour>
  </outline>
</glyph>
<glyph name="colonsign" format="2">
  <advance width="1528.0"/>
  <unicode hex="20A1"/>
  <outline>
    <contour>
      <point x="610.0" y="-346.0" type="line"/>
      <point x="724.0" y="-346.0" type="line"/>
      <point x="746.0" y="0.0" type="line"/>
      <point x="788.0" y="-8.0"/>
      <point x="834.0" y="-10.0"/>
      <point x="880.0" y="-14.0" type="curve"/>
      <point x="858.0" y="-346.0" type="line"/>
      <point x="972.0" y="-346.0" type="line"/>
      <point x="994.0" y="-14.0" type="line"/>
      <point x="1140.0" y="-6.0"/>
      <point x="1244.0" y="34.0"/>
      <point x="1306.0" y="62.0" type="curve"/>
      <point x="1306.0" y="398.0" type="line"/>
      <point x="1258.0" y="352.0"/>
      <point x="1134.0" y="306.0"/>
      <point x="1016.0" y="300.0" type="curve"/>
      <point x="1072.0" y="1170.0" type="line"/>
      <point x="1188.0" y="1158.0"/>
      <point x="1256.0" y="1112.0"/>
      <point x="1278.0" y="1092.0" type="curve"/>
      <point x="1330.0" y="1442.0" type="line"/>
      <point x="1272.0" y="1454.0"/>
      <point x="1206.0" y="1482.0"/>
      <point x="1094.0" y="1494.0" type="curve"/>
      <point x="1112.0" y="1772.0" type="line"/>
      <point x="998.0" y="1772.0" type="line"/>
      <point x="980.0" y="1502.0" type="line"/>
      <point x="934.0" y="1502.0"/>
      <point x="906.0" y="1502.0"/>
      <point x="846.0" y="1498.0" type="curve"/>
      <point x="864.0" y="1772.0" type="line"/>
      <point x="750.0" y="1772.0" type="line"/>
      <point x="730.0" y="1480.0" type="line"/>
      <point x="372.0" y="1410.0"/>
      <point x="114.0" y="1168.0"/>
      <point x="114.0" y="740.0" type="curve" smooth="yes"/>
      <point x="114.0" y="370.0"/>
      <point x="288.0" y="114.0"/>
      <point x="634.0" y="22.0" type="curve"/>
    </contour>
    <contour>
      <point x="770.0" y="342.0" type="curve"/>
      <point x="824.0" y="1152.0" type="line"/>
      <point x="866.0" y="1166.0"/>
      <point x="910.0" y="1172.0"/>
      <point x="958.0" y="1174.0" type="curve"/>
      <point x="900.0" y="306.0" type="line"/>
      <point x="852.0" y="314.0"/>
      <point x="808.0" y="326.0"/>
    </contour>
    <contour>
      <point x="660.0" y="414.0" type="line"/>
      <point x="578.0" y="496.0"/>
      <point x="540.0" y="612.0"/>
      <point x="540.0" y="764.0" type="curve" smooth="yes"/>
      <point x="540.0" y="920.0"/>
      <point x="602.0" y="1032.0"/>
      <point x="706.0" y="1100.0" type="curve"/>
    </contour>
  </outline>
</glyph>
<glyph name="naira" format="2">
  <advance width="855.0"/>
  <unicode hex="20A6"/>
  <anchor x="415.0" y="0.0" name="bottom"/>
  <anchor x="398.0" y="-83.0" name="btm"/>
  <anchor x="418.0" y="830.0" name="top"/>
  <outline>
    <contour>
      <point x="47.0" y="171.0" type="line"/>
      <point x="226.0" y="171.0" type="line"/>
      <point x="225.0" y="272.0" type="line"/>
      <point x="46.0" y="272.0" type="line"/>
    </contour>
    <contour>
      <point x="219.0" y="557.0" type="line"/>
      <point x="41.0" y="557.0" type="line"/>
      <point x="42.0" y="457.0" type="line"/>
      <point x="220.0" y="457.0" type="line"/>
    </contour>
    <contour>
      <point x="628.0" y="170.0" type="line"/>
      <point x="807.0" y="170.0" type="line"/>
      <point x="806.0" y="271.0" type="line"/>
      <point x="627.0" y="271.0" type="line"/>
    </contour>
    <contour>
      <point x="800.0" y="556.0" type="line"/>
      <point x="622.0" y="556.0" type="line"/>
      <point x="623.0" y="456.0" type="line"/>
      <point x="801.0" y="456.0" type="line"/>
    </contour>
    <component base="N" xOffset="21.0"/>
  </outline>
</glyph>
<glyph name="peseta" format="2">
  <advance width="1768.0"/>
  <unicode hex="20A7"/>
  <outline>
    <contour>
      <point x="360.0" y="0.0" type="line"/>
      <point x="734.0" y="0.0" type="line"/>
      <point x="734.0" y="310.0" type="line"/>
      <point x="766.0" y="310.0"/>
      <point x="808.0" y="308.0"/>
      <point x="886.0" y="308.0" type="curve" smooth="yes"/>
      <point x="1282.0" y="308.0"/>
      <point x="1496.0" y="546.0"/>
      <point x="1496.0" y="918.0" type="curve" smooth="yes"/>
      <point x="1496.0" y="1304.0"/>
      <point x="1302.0" y="1502.0"/>
      <point x="924.0" y="1502.0" type="curve" smooth="yes"/>
      <point x="776.0" y="1502.0"/>
      <point x="642.0" y="1486.0"/>
      <point x="506.0" y="1486.0" type="curve" smooth="yes"/>
      <point x="360.0" y="1486.0" type="line"/>
    </contour>
    <contour>
      <point x="734.0" y="584.0" type="curve"/>
      <point x="734.0" y="1232.0" type="line"/>
      <point x="776.0" y="1238.0"/>
      <point x="832.0" y="1240.0"/>
      <point x="878.0" y="1242.0" type="curve" smooth="yes"/>
      <point x="1072.0" y="1248.0"/>
      <point x="1132.0" y="1080.0"/>
      <point x="1132.0" y="920.0" type="curve" smooth="yes"/>
      <point x="1132.0" y="692.0"/>
      <point x="1026.0" y="576.0"/>
      <point x="886.0" y="576.0" type="curve" smooth="yes"/>
      <point x="824.0" y="576.0"/>
      <point x="776.0" y="580.0"/>
    </contour>
    <contour>
      <point x="180.0" y="846.0" type="line"/>
      <point x="1652.0" y="846.0" type="line"/>
      <point x="1652.0" y="990.0" type="line"/>
      <point x="180.0" y="990.0" type="line"/>
    </contour>
  </outline>
</glyph>
<glyph name="won" format="2">
  <advance width="1199.0"/>
  <unicode hex="20A9"/>
  <anchor x="599.0" y="0.0" name="bottom"/>
  <anchor x="593.0" y="-83.0" name="btm"/>
  <anchor x="593.0" y="830.0" name="top"/>
  <outline>
    <contour>
      <point x="112.0" y="171.0" type="line"/>
      <point x="286.0" y="171.0" type="line"/>
      <point x="285.0" y="272.0" type="line"/>
      <point x="111.0" y="272.0" type="line"/>
    </contour>
    <contour>
      <point x="279.0" y="557.0" type="line"/>
      <point x="90.0" y="557.0" type="line"/>
      <point x="91.0" y="457.0" type="line"/>
      <point x="280.0" y="457.0" type="line"/>
    </contour>
    <contour>
      <point x="916.0" y="170.0" type="line"/>
      <point x="1090.0" y="170.0" type="line"/>
      <point x="1089.0" y="271.0" type="line"/>
      <point x="915.0" y="271.0" type="line"/>
    </contour>
    <contour>
      <point x="1108.0" y="556.0" type="line"/>
      <point x="910.0" y="556.0" type="line"/>
      <point x="911.0" y="456.0" type="line"/>
      <point x="1109.0" y="456.0" type="line"/>
    </contour>
    <component base="W" xOffset="111.0"/>
  </outline>
</glyph>
<glyph name="sheqel" format="2">
  <advance width="1035.0"/>
  <unicode hex="20AA"/>
  <outline>
    <contour>
      <point x="528.0" y="0.0" type="curve" smooth="yes"/>
      <point x="935.0" y="0.0" type="line"/>
      <point x="935.0" y="743.0" type="line"/>
      <point x="785.0" y="743.0" type="line"/>
      <point x="785.0" y="120.0" type="line"/>
      <point x="600.0" y="120.0" type="line" smooth="yes"/>
      <point x="495.0" y="120.0"/>
      <point x="476.0" y="139.0"/>
      <point x="476.0" y="208.0" type="curve" smooth="yes"/>
      <point x="476.0" y="536.0" type="line"/>
      <point x="322.0" y="536.0" type="line"/>
      <point x="322.0" y="207.0" type="line" smooth="yes"/>
      <point x="322.0" y="56.0"/>
      <point x="395.0" y="0.0"/>
    </contour>
    <contour>
      <point x="100.0" y="0.0" type="line"/>
      <point x="251.0" y="0.0" type="line"/>
      <point x="251.0" y="614.0" type="line"/>
      <point x="489.0" y="614.0" type="line" smooth="yes"/>
      <point x="573.0" y="614.0"/>
      <point x="569.0" y="576.0"/>
      <point x="569.0" y="507.0" type="curve" smooth="yes"/>
      <point x="569.0" y="193.0" type="line"/>
      <point x="719.0" y="193.0" type="line"/>
      <point x="719.0" y="537.0" type="line" smooth="yes"/>
      <point x="719.0" y="689.0"/>
      <point x="679.0" y="743.0"/>
      <point x="556.0" y="743.0" type="curve" smooth="yes"/>
      <point x="100.0" y="743.0" type="line"/>
    </contour>
  </outline>
</glyph>
<glyph name="euro" format="2">
  <advance width="1444.0"/>
  <unicode hex="20AC"/>
  <outline>
    <contour>
      <point x="936.0" y="-28.0" type="curve" smooth="yes"/>
      <point x="1208.0" y="-28.0"/>
      <point x="1266.0" y="32.0"/>
      <point x="1348.0" y="42.0" type="curve"/>
      <point x="1290.0" y="314.0" type="line"/>
      <point x="1230.0" y="274.0"/>
      <point x="1114.0" y="240.0"/>
      <point x="992.0" y="240.0" type="curve" smooth="yes"/>
      <point x="706.0" y="240.0"/>
      <point x="626.0" y="458.0"/>
      <point x="626.0" y="778.0" type="curve" smooth="yes"/>
      <point x="626.0" y="1100.0"/>
      <point x="782.0" y="1228.0"/>
      <point x="988.0" y="1228.0" type="curve" smooth="yes"/>
      <point x="1140.0" y="1226.0"/>
      <point x="1202.0" y="1202.0"/>
      <point x="1270.0" y="1162.0" type="curve"/>
      <point x="1322.0" y="1442.0" type="line"/>
      <point x="1238.0" y="1460.0"/>
      <point x="1160.0" y="1510.0"/>
      <point x="936.0" y="1502.0" type="curve" smooth="yes"/>
      <point x="520.0" y="1488.0"/>
      <point x="260.0" y="1218.0"/>
      <point x="260.0" y="704.0" type="curve" smooth="yes"/>
      <point x="260.0" y="248.0"/>
      <point x="484.0" y="-28.0"/>
    </contour>
    <contour>
      <point x="112.0" y="824.0" type="line"/>
      <point x="1142.0" y="824.0" type="line"/>
      <point x="1142.0" y="1024.0" type="line"/>
      <point x="112.0" y="1024.0" type="line"/>
    </contour>
    <contour>
      <point x="82.0" y="460.0" type="line"/>
      <point x="1098.0" y="460.0" type="line"/>
      <point x="1098.0" y="662.0" type="line"/>
      <point x="82.0" y="662.0" type="line"/>
    </contour>
  </outline>
</glyph>
<glyph name="tugrik" format="2">
  <advance width="764.0"/>
  <unicode hex="20AE"/>
  <anchor x="382.0" y="0.0" name="bottom"/>
  <anchor x="382.0" y="372.0" name="center"/>
  <anchor x="381.0" y="830.0" name="top"/>
  <outline>
    <contour>
      <point x="168.0" y="280.0" type="line"/>
      <point x="599.0" y="420.0" type="line"/>
      <point x="601.0" y="543.0" type="line"/>
      <point x="170.0" y="402.0" type="line"/>
    </contour>
    <contour>
      <point x="164.0" y="73.0" type="line"/>
      <point x="595.0" y="213.0" type="line"/>
      <point x="597.0" y="335.0" type="line"/>
      <point x="166.0" y="195.0" type="line"/>
    </contour>
    <component base="T" xOffset="76.0"/>
  </outline>
</glyph>
<glyph name="peso" format="2">
  <advance width="1792.0"/>
  <unicode hex="20B1"/>
  <anchor x="872.0" y="0.0" name="bottom"/>
  <anchor x="878.0" y="-166.0" name="btm"/>
  <anchor x="942.0" y="1662.0" name="top"/>
  <outline>
    <contour>
      <point x="360.0" y="0.0" type="line"/>
      <point x="734.0" y="0.0" type="line"/>
      <point x="734.0" y="310.0" type="line"/>
      <point x="766.0" y="310.0"/>
      <point x="808.0" y="308.0"/>
      <point x="886.0" y="308.0" type="curve" smooth="yes"/>
      <point x="1282.0" y="308.0"/>
      <point x="1496.0" y="546.0"/>
      <point x="1496.0" y="918.0" type="curve" smooth="yes"/>
      <point x="1496.0" y="1304.0"/>
      <point x="1302.0" y="1502.0"/>
      <point x="924.0" y="1502.0" type="curve" smooth="yes"/>
      <point x="776.0" y="1502.0"/>
      <point x="642.0" y="1486.0"/>
      <point x="506.0" y="1486.0" type="curve" smooth="yes"/>
      <point x="360.0" y="1486.0" type="line"/>
    </contour>
    <contour>
      <point x="734.0" y="584.0" type="curve"/>
      <point x="734.0" y="1232.0" type="line"/>
      <point x="776.0" y="1238.0"/>
      <point x="832.0" y="1240.0"/>
      <point x="878.0" y="1242.0" type="curve" smooth="yes"/>
      <point x="1072.0" y="1248.0"/>
      <point x="1132.0" y="1080.0"/>
      <point x="1132.0" y="920.0" type="curve" smooth="yes"/>
      <point x="1132.0" y="692.0"/>
      <point x="1026.0" y="576.0"/>
      <point x="886.0" y="576.0" type="curve" smooth="yes"/>
      <point x="824.0" y="576.0"/>
      <point x="776.0" y="580.0"/>
    </contour>
    <contour>
      <point x="180.0" y="972.0" type="line"/>
      <point x="1652.0" y="972.0" type="line"/>
      <point x="1652.0" y="1116.0" type="line"/>
      <point x="180.0" y="1116.0" type="line"/>
    </contour>
    <contour>
      <point x="180.0" y="708.0" type="line"/>
      <point x="1652.0" y="708.0" type="line"/>
      <point x="1652.0" y="852.0" type="line"/>
      <point x="180.0" y="852.0" type="line"/>
    </contour>
  </outline>
</glyph>
<glyph name="guarani" format="2">
  <advance width="1610.0"/>
  <unicode hex="20B2"/>
  <outline>
    <contour>
      <point x="114.0" y="736.0" type="curve" smooth="yes"/>
      <point x="114.0" y="304.0"/>
      <point x="356.0" y="46.0"/>
      <point x="712.0" y="-4.0" type="curve"/>
      <point x="710.0" y="-252.0" type="line"/>
      <point x="912.0" y="-252.0" type="line"/>
      <point x="914.0" y="-14.0" type="line"/>
      <point x="1214.0" y="-4.0"/>
      <point x="1278.0" y="78.0"/>
      <point x="1412.0" y="82.0" type="curve"/>
      <point x="1412.0" y="852.0" type="line"/>
      <point x="842.0" y="852.0" type="line"/>
      <point x="842.0" y="572.0" type="line"/>
      <point x="1048.0" y="550.0" type="line"/>
      <point x="1048.0" y="312.0" type="line"/>
      <point x="1008.0" y="290.0"/>
      <point x="946.0" y="284.0"/>
      <point x="856.0" y="284.0" type="curve" smooth="yes"/>
      <point x="656.0" y="284.0"/>
      <point x="528.0" y="476.0"/>
      <point x="528.0" y="762.0" type="curve" smooth="yes"/>
      <point x="528.0" y="1024.0"/>
      <point x="668.0" y="1186.0"/>
      <point x="924.0" y="1186.0" type="curve" smooth="yes"/>
      <point x="1108.0" y="1186.0"/>
      <point x="1260.0" y="1144.0"/>
      <point x="1322.0" y="1106.0" type="curve"/>
      <point x="1332.0" y="1442.0" type="line"/>
      <point x="1246.0" y="1458.0"/>
      <point x="1134.0" y="1494.0"/>
      <point x="962.0" y="1500.0" type="curve"/>
      <point x="962.0" y="1720.0" type="line"/>
      <point x="758.0" y="1720.0" type="line"/>
      <point x="758.0" y="1494.0" type="line"/>
      <point x="390.0" y="1452.0"/>
      <point x="114.0" y="1232.0"/>
    </contour>
  </outline>
</glyph>
<glyph name="hryvnia" format="2">
  <advance width="689.0"/>
  <unicode hex="20B4"/>
  <anchor x="337.0" y="-83.0" name="btm"/>
  <anchor x="365.0" y="830.0" name="top"/>
  <outline>
    <contour>
      <point x="41.0" y="331.0" type="line"/>
      <point x="41.0" y="230.0" type="line"/>
      <point x="103.0" y="230.0" type="line"/>
      <point x="102.0" y="224.0"/>
      <point x="102.0" y="218.0"/>
      <point x="102.0" y="212.0" type="curve" smooth="yes"/>
      <point x="102.0" y="79.0"/>
      <point x="198.0" y="-8.0"/>
      <point x="373.0" y="-8.0" type="curve" smooth="yes"/>
      <point x="479.0" y="-8.0"/>
      <point x="560.0" y="20.0"/>
      <point x="589.0" y="38.0" type="curve"/>
      <point x="566.0" y="183.0" type="line"/>
      <point x="529.0" y="162.0"/>
      <point x="466.0" y="135.0"/>
      <point x="388.0" y="135.0" type="curve" smooth="yes"/>
      <point x="318.0" y="135.0"/>
      <point x="288.0" y="154.0"/>
      <point x="288.0" y="198.0" type="curve" smooth="yes"/>
      <point x="288.0" y="210.0"/>
      <point x="291.0" y="221.0"/>
      <point x="296.0" y="230.0" type="curve"/>
      <point x="641.0" y="230.0" type="line"/>
      <point x="641.0" y="331.0" type="line"/>
    </contour>
    <contour>
      <point x="641.0" y="412.0" type="line"/>
      <point x="641.0" y="512.0" type="line"/>
      <point x="581.0" y="512.0" type="line"/>
      <point x="582.0" y="523.0"/>
      <point x="583.0" y="535.0"/>
      <point x="583.0" y="547.0" type="curve" smooth="yes"/>
      <point x="583.0" y="683.0"/>
      <point x="475.0" y="751.0"/>
      <point x="318.0" y="751.0" type="curve" smooth="yes"/>
      <point x="206.0" y="751.0"/>
      <point x="135.0" y="724.0"/>
      <point x="108.0" y="708.0" type="curve"/>
      <point x="137.0" y="569.0" type="line"/>
      <point x="167.0" y="592.0"/>
      <point x="237.0" y="616.0"/>
      <point x="302.0" y="616.0" type="curve" smooth="yes"/>
      <point x="372.0" y="616.0"/>
      <point x="404.0" y="591.0"/>
      <point x="404.0" y="554.0" type="curve" smooth="yes"/>
      <point x="404.0" y="538.0"/>
      <point x="399.0" y="525.0"/>
      <point x="389.0" y="512.0" type="curve"/>
      <point x="42.0" y="512.0" type="line"/>
      <point x="42.0" y="412.0" type="line"/>
    </contour>
  </outline>
</glyph>
<glyph name="cedi" format="2">
  <advance width="1466.0"/>
  <unicode hex="20B5"/>
  <outline>
    <contour>
      <point x="666.0" y="-346.0" type="line"/>
      <point x="810.0" y="-346.0" type="line"/>
      <point x="838.0" y="-14.0" type="line"/>
      <point x="856.0" y="-14.0"/>
      <point x="872.0" y="-16.0"/>
      <point x="888.0" y="-16.0" type="curve" smooth="yes"/>
      <point x="1056.0" y="-16.0"/>
      <point x="1176.0" y="32.0"/>
      <point x="1244.0" y="62.0" type="curve"/>
      <point x="1244.0" y="398.0" type="line"/>
      <point x="1196.0" y="352.0"/>
      <point x="1062.0" y="300.0"/>
      <point x="938.0" y="300.0" type="curve" smooth="yes"/>
      <point x="914.0" y="300.0"/>
      <point x="890.0" y="302.0"/>
      <point x="868.0" y="304.0" type="curve"/>
      <point x="946.0" y="1176.0" type="line"/>
      <point x="1102.0" y="1172.0"/>
      <point x="1190.0" y="1116.0"/>
      <point x="1216.0" y="1092.0" type="curve"/>
      <point x="1268.0" y="1442.0" type="line"/>
      <point x="1202.0" y="1458.0"/>
      <point x="1120.0" y="1492.0"/>
      <point x="974.0" y="1500.0" type="curve"/>
      <point x="1000.0" y="1772.0" type="line"/>
      <point x="856.0" y="1772.0" type="line"/>
      <point x="832.0" y="1500.0" type="line"/>
      <point x="426.0" y="1476.0"/>
      <point x="114.0" y="1228.0"/>
      <point x="114.0" y="740.0" type="curve" smooth="yes"/>
      <point x="114.0" y="334.0"/>
      <point x="310.0" y="62.0"/>
      <point x="696.0" y="0.0" type="curve"/>
    </contour>
    <contour>
      <point x="728.0" y="346.0" type="line"/>
      <point x="598.0" y="416.0"/>
      <point x="540.0" y="562.0"/>
      <point x="540.0" y="764.0" type="curve" smooth="yes"/>
      <point x="540.0" y="980.0"/>
      <point x="644.0" y="1110.0"/>
      <point x="800.0" y="1158.0" type="curve"/>
    </contour>
  </outline>
</glyph>
<glyph name="tenge" format="2">
  <advance width="1528.0"/>
  <unicode hex="20B8"/>
  <anchor x="762.0" y="-166.0" name="btm"/>
  <anchor x="762.0" y="1660.0" name="top"/>
  <outline>
    <contour>
      <point x="576.0" y="0.0" type="line"/>
      <point x="952.0" y="0.0" type="line"/>
      <point x="952.0" y="828.0" type="line"/>
      <point x="1348.0" y="828.0" type="line"/>
      <point x="1348.0" y="1114.0" type="line"/>
      <point x="180.0" y="1114.0" type="line"/>
      <point x="180.0" y="828.0" type="line"/>
      <point x="576.0" y="828.0" type="line"/>
    </contour>
    <contour>
      <point x="180.0" y="1200.0" type="line"/>
      <point x="1348.0" y="1200.0" type="line"/>
      <point x="1348.0" y="1486.0" type="line"/>
      <point x="180.0" y="1486.0" type="line"/>
    </contour>
  </outline>
</glyph>
<glyph name="rupeeIndian" format="2">
  <advance width="1466.0"/>
  <unicode hex="20B9"/>
  <outline>
    <contour>
      <point x="1306.0" y="0.0" type="line"/>
      <point x="1150.0" y="180.0"/>
      <point x="1098.0" y="460.0"/>
      <point x="928.0" y="588.0" type="curve"/>
      <point x="1036.0" y="658.0"/>
      <point x="1104.0" y="744.0"/>
      <point x="1134.0" y="904.0" type="curve"/>
      <point x="1370.0" y="904.0" type="line"/>
      <point x="1370.0" y="1096.0" type="line"/>
      <point x="1148.0" y="1096.0" type="line"/>
      <point x="1144.0" y="1170.0"/>
      <point x="1098.0" y="1272.0"/>
      <point x="1036.0" y="1296.0" type="curve"/>
      <point x="1370.0" y="1296.0" type="line"/>
      <point x="1370.0" y="1486.0" type="line"/>
      <point x="180.0" y="1486.0" type="line"/>
      <point x="180.0" y="1296.0" type="line"/>
      <point x="496.0" y="1296.0" type="line"/>
      <point x="696.0" y="1296.0"/>
      <point x="724.0" y="1202.0"/>
      <point x="732.0" y="1096.0" type="curve"/>
      <point x="180.0" y="1096.0" type="line"/>
      <point x="180.0" y="904.0" type="line"/>
      <point x="732.0" y="904.0" type="line"/>
      <point x="710.0" y="780.0"/>
      <point x="604.0" y="724.0"/>
      <point x="496.0" y="718.0" type="curve" smooth="yes"/>
      <point x="324.0" y="708.0"/>
      <point x="222.0" y="716.0"/>
      <point x="180.0" y="720.0" type="curve"/>
      <point x="180.0" y="502.0" type="line"/>
      <point x="284.0" y="492.0"/>
      <point x="392.0" y="494.0"/>
      <point x="562.0" y="504.0" type="curve"/>
      <point x="692.0" y="386.0"/>
      <point x="802.0" y="0.0"/>
      <point x="882.0" y="0.0" type="curve" smooth="yes"/>
    </contour>
  </outline>
</glyph>
<glyph name="liraTurkish" format="2">
  <advance width="1442.0"/>
  <unicode hex="20BA"/>
  <outline>
    <contour>
      <point x="274.0" y="0.0" type="line"/>
      <point x="644.0" y="0.0" type="line" smooth="yes"/>
      <point x="1082.0" y="0.0"/>
      <point x="1346.0" y="250.0"/>
      <point x="1346.0" y="648.0" type="curve" smooth="yes"/>
      <point x="1346.0" y="702.0" type="line"/>
      <point x="1018.0" y="702.0" type="line"/>
      <point x="1010.0" y="432.0"/>
      <point x="922.0" y="280.0"/>
      <point x="644.0" y="280.0" type="curve"/>
      <point x="644.0" y="670.0" type="line"/>
      <point x="1024.0" y="828.0" type="line"/>
      <point x="1024.0" y="992.0" type="line"/>
      <point x="644.0" y="834.0" type="line"/>
      <point x="644.0" y="1024.0" type="line"/>
      <point x="1046.0" y="1194.0" type="line"/>
      <point x="1046.0" y="1366.0" type="line"/>
      <point x="644.0" y="1198.0" type="line"/>
      <point x="644.0" y="1502.0" type="line"/>
      <point x="274.0" y="1502.0" type="line"/>
      <point x="274.0" y="1042.0" type="line"/>
      <point x="82.0" y="960.0" type="line"/>
      <point x="82.0" y="788.0" type="line"/>
      <point x="274.0" y="868.0" type="line"/>
      <point x="274.0" y="678.0" type="line"/>
      <point x="92.0" y="604.0" type="line"/>
      <point x="92.0" y="440.0" type="line"/>
      <point x="274.0" y="516.0" type="line"/>
    </contour>
  </outline>
</glyph>
<glyph name="ruble" format="2">
  <advance width="733.0"/>
  <unicode hex="20BD"/>
  <anchor x="376.0" y="-83.0" name="btm"/>
  <anchor x="408.0" y="831.0" name="top"/>
  <outline>
    <contour>
      <point x="117.0" y="0.0" type="line"/>
      <point x="304.0" y="0.0" type="line"/>
      <point x="304.0" y="291.0" type="line"/>
      <point x="320.0" y="291.0"/>
      <point x="341.0" y="290.0"/>
      <point x="380.0" y="290.0" type="curve" smooth="yes"/>
      <point x="578.0" y="290.0"/>
      <point x="685.0" y="379.0"/>
      <point x="685.0" y="519.0" type="curve" smooth="yes"/>
      <point x="685.0" y="692.0"/>
      <point x="578.0" y="751.0"/>
      <point x="399.0" y="751.0" type="curve" smooth="yes"/>
      <point x="325.0" y="751.0"/>
      <point x="258.0" y="743.0"/>
      <point x="190.0" y="743.0" type="curve" smooth="yes"/>
      <point x="117.0" y="743.0" type="line"/>
    </contour>
    <contour>
      <point x="304.0" y="428.0" type="curve"/>
      <point x="304.0" y="616.0" type="line"/>
      <point x="325.0" y="619.0"/>
      <point x="353.0" y="621.0"/>
      <point x="376.0" y="621.0" type="curve" smooth="yes"/>
      <point x="463.0" y="624.0"/>
      <point x="503.0" y="580.0"/>
      <point x="503.0" y="520.0" type="curve" smooth="yes"/>
      <point x="503.0" y="452.0"/>
      <point x="450.0" y="424.0"/>
      <point x="380.0" y="424.0" type="curve" smooth="yes"/>
      <point x="349.0" y="424.0"/>
      <point x="325.0" y="426.0"/>
    </contour>
    <contour>
      <point x="41.0" y="87.0" type="line"/>
      <point x="535.0" y="87.0" type="line"/>
      <point x="535.0" y="212.0" type="line"/>
      <point x="41.0" y="212.0" type="line"/>
    </contour>
  </outline>
</glyph>
<glyph name="Ohm" format="2">
  <advance width="1786.0"/>
  <unicode hex="2126"/>
  <outline>
    <contour>
      <point x="792.0" y="208.0" type="line"/>
      <point x="698.0" y="258.0"/>
      <point x="540.0" y="472.0"/>
      <point x="540.0" y="802.0" type="curve" smooth="yes"/>
      <point x="540.0" y="1084.0"/>
      <point x="700.0" y="1212.0"/>
      <point x="900.0" y="1212.0" type="curve" smooth="yes"/>
      <point x="1084.0" y="1212.0"/>
      <point x="1242.0" y="1082.0"/>
      <point x="1242.0" y="800.0" type="curve" smooth="yes"/>
      <point x="1242.0" y="470.0"/>
      <point x="1104.0" y="258.0"/>
      <point x="1016.0" y="208.0" type="curve"/>
      <point x="1016.0" y="0.0" type="line"/>
      <point x="1020.0" y="0.0"/>
      <point x="1176.0" y="166.0"/>
      <point x="1182.0" y="166.0" type="curve"/>
      <point x="1404.0" y="234.0"/>
      <point x="1612.0" y="514.0"/>
      <point x="1616.0" y="830.0" type="curve" smooth="yes"/>
      <point x="1620.0" y="1304.0"/>
      <point x="1322.0" y="1508.0"/>
      <point x="900.0" y="1508.0" type="curve" smooth="yes"/>
      <point x="524.0" y="1508.0"/>
      <point x="172.0" y="1322.0"/>
      <point x="164.0" y="834.0" type="curve" smooth="yes"/>
      <point x="160.0" y="504.0"/>
      <point x="412.0" y="224.0"/>
      <point x="588.0" y="166.0" type="curve"/>
      <point x="792.0" y="0.0" type="line"/>
    </contour>
    <contour>
      <point x="154.0" y="0.0" type="line"/>
      <point x="792.0" y="0.0" type="line"/>
      <point x="584.0" y="246.0" type="line"/>
      <point x="154.0" y="246.0" type="line"/>
    </contour>
    <contour>
      <point x="1638.0" y="0.0" type="line"/>
      <point x="1638.0" y="246.0" type="line"/>
      <point x="1138.0" y="246.0" type="line"/>
      <point x="1016.0" y="0.0" type="line"/>
    </contour>
  </outline>
</glyph>
<glyph name="estimated" format="2">
  <advance width="1348.0"/>
  <unicode hex="212E"/>
  <outline>
    <contour>
      <point x="718.0" y="-16.0" type="curve" smooth="yes"/>
      <point x="908.0" y="-16.0"/>
      <point x="1086.0" y="52.0"/>
      <point x="1168.0" y="112.0" type="curve"/>
      <point x="1100.0" y="260.0" type="line"/>
      <point x="1030.0" y="206.0"/>
      <point x="892.0" y="144.0"/>
      <point x="732.0" y="144.0" type="curve" smooth="yes"/>
      <point x="618.0" y="144.0"/>
      <point x="514.0" y="170.0"/>
      <point x="440.0" y="236.0" type="curve"/>
      <point x="440.0" y="598.0" type="line"/>
      <point x="1232.0" y="598.0" type="line"/>
      <point x="1244.0" y="648.0"/>
      <point x="1244.0" y="728.0"/>
      <point x="1244.0" y="812.0" type="curve"/>
      <point x="1232.0" y="1134.0"/>
      <point x="1006.0" y="1330.0"/>
      <point x="718.0" y="1324.0" type="curve" smooth="yes"/>
      <point x="302.0" y="1318.0"/>
      <point x="106.0" y="1038.0"/>
      <point x="106.0" y="656.0" type="curve" smooth="yes"/>
      <point x="106.0" y="236.0"/>
      <point x="330.0" y="-16.0"/>
    </contour>
    <contour>
      <point x="440.0" y="750.0" type="line"/>
      <point x="440.0" y="1072.0" type="line"/>
      <point x="508.0" y="1138.0"/>
      <point x="600.0" y="1166.0"/>
      <point x="704.0" y="1166.0" type="curve" smooth="yes"/>
      <point x="804.0" y="1166.0"/>
      <point x="876.0" y="1144.0"/>
      <point x="926.0" y="1110.0" type="curve"/>
      <point x="926.0" y="750.0" type="line"/>
    </contour>
  </outline>
</glyph>
<glyph name="rightArrow" format="2">
  <advance width="1200.0"/>
  <unicode hex="2192"/>
  <outline>
    <contour>
      <point x="836.0" y="178.0" type="line"/>
      <point x="1428.0" y="770.0" type="line"/>
      <point x="836.0" y="1362.0" type="line"/>
      <point x="670.0" y="1198.0" type="line"/>
      <point x="990.0" y="876.0" type="line"/>
      <point x="818.0" y="896.0" type="line"/>
      <point x="120.0" y="896.0" type="line"/>
      <point x="120.0" y="646.0" type="line"/>
      <point x="818.0" y="646.0" type="line"/>
      <point x="992.0" y="664.0" type="line"/>
      <point x="670.0" y="342.0" type="line"/>
    </contour>
  </outline>
</glyph>
<glyph name="partialdiff" format="2">
  <advance width="1392.0"/>
  <unicode hex="2202"/>
  <outline>
    <contour>
      <point x="644.0" y="-30.0" type="curve" smooth="yes"/>
      <point x="1084.0" y="-30.0"/>
      <point x="1292.0" y="248.0"/>
      <point x="1292.0" y="778.0" type="curve" smooth="yes"/>
      <point x="1292.0" y="1242.0"/>
      <point x="1060.0" y="1692.0"/>
      <point x="528.0" y="1692.0" type="curve" smooth="yes"/>
      <point x="376.0" y="1692.0"/>
      <point x="222.0" y="1640.0"/>
      <point x="106.0" y="1550.0" type="curve"/>
      <point x="222.0" y="1354.0" type="line"/>
      <point x="290.0" y="1402.0"/>
      <point x="394.0" y="1432.0"/>
      <point x="482.0" y="1432.0" type="curve" smooth="yes"/>
      <point x="774.0" y="1432.0"/>
      <point x="938.0" y="1196.0"/>
      <point x="940.0" y="858.0" type="curve" smooth="yes"/>
      <point x="940.0" y="804.0"/>
      <point x="938.0" y="726.0"/>
      <point x="938.0" y="640.0" type="curve" smooth="yes"/>
      <point x="938.0" y="520.0"/>
      <point x="914.0" y="210.0"/>
      <point x="708.0" y="210.0" type="curve" smooth="yes"/>
      <point x="526.0" y="210.0"/>
      <point x="472.0" y="346.0"/>
      <point x="468.0" y="522.0" type="curve" smooth="yes"/>
      <point x="464.0" y="744.0"/>
      <point x="542.0" y="854.0"/>
      <point x="712.0" y="854.0" type="curve" smooth="yes"/>
      <point x="834.0" y="854.0"/>
      <point x="912.0" y="808.0"/>
      <point x="1000.0" y="728.0" type="curve"/>
      <point x="1002.0" y="810.0"/>
      <point x="1002.0" y="892.0"/>
      <point x="1004.0" y="974.0" type="curve"/>
      <point x="926.0" y="1022.0"/>
      <point x="856.0" y="1072.0"/>
      <point x="696.0" y="1072.0" type="curve" smooth="yes"/>
      <point x="404.0" y="1072.0"/>
      <point x="98.0" y="932.0"/>
      <point x="104.0" y="510.0" type="curve" smooth="yes"/>
      <point x="108.0" y="212.0"/>
      <point x="354.0" y="-30.0"/>
    </contour>
  </outline>
</glyph>
<glyph name="emptyset" format="2">
  <advance width="680.0"/>
  <unicode hex="2205"/>
  <outline>
    <contour>
      <point x="50.0" y="283.0" type="curve" smooth="yes"/>
      <point x="48.0" y="122.0"/>
      <point x="179.0" y="-7.0"/>
      <point x="340.0" y="-7.0" type="curve"/>
      <point x="500.0" y="-7.0"/>
      <point x="631.0" y="122.0"/>
      <point x="630.0" y="283.0" type="curve" smooth="yes"/>
      <point x="629.0" y="444.0"/>
      <point x="500.0" y="573.0"/>
      <point x="340.0" y="573.0" type="curve" smooth="yes"/>
      <point x="180.0" y="573.0"/>
      <point x="52.0" y="444.0"/>
    </contour>
    <contour>
      <point x="172.0" y="280.0" type="curve" smooth="yes"/>
      <point x="172.0" y="373.0"/>
      <point x="246.0" y="451.0"/>
      <point x="339.0" y="451.0" type="curve" smooth="yes"/>
      <point x="432.0" y="451.0"/>
      <point x="504.0" y="373.0"/>
      <point x="503.0" y="280.0" type="curve" smooth="yes"/>
      <point x="502.0" y="188.0"/>
      <point x="432.0" y="111.0"/>
      <point x="339.0" y="111.0" type="curve" smooth="yes"/>
      <point x="246.0" y="111.0"/>
      <point x="172.0" y="188.0"/>
    </contour>
    <contour>
      <point x="576.0" y="623.0" type="line"/>
      <point x="65.0" y="-9.0" type="line"/>
      <point x="115.0" y="-48.0" type="line"/>
      <point x="627.0" y="584.0" type="line"/>
    </contour>
  </outline>
</glyph>
<glyph name="product" format="2">
  <advance width="1676.0"/>
  <unicode hex="220F"/>
  <outline>
    <contour>
      <point x="656.0" y="-168.0" type="line"/>
      <point x="656.0" y="1232.0" type="line"/>
      <point x="638.0" y="1216.0" type="line"/>
      <point x="1030.0" y="1216.0" type="line"/>
      <point x="1014.0" y="1232.0" type="line"/>
      <point x="1014.0" y="-168.0" type="line"/>
      <point x="1382.0" y="-168.0" type="line"/>
      <point x="1382.0" y="1230.0" type="line"/>
      <point x="1366.0" y="1216.0" type="line"/>
      <point x="1608.0" y="1216.0" type="line"/>
      <point x="1608.0" y="1486.0" type="line"/>
      <point x="68.0" y="1486.0" type="line"/>
      <point x="68.0" y="1216.0" type="line"/>
      <point x="304.0" y="1216.0" type="line"/>
      <point x="288.0" y="1232.0" type="line"/>
      <point x="288.0" y="-168.0" type="line"/>
    </contour>
  </outline>
</glyph>
<glyph name="summation" format="2">
  <advance width="1468.0"/>
  <unicode hex="2211"/>
  <outline>
    <contour>
      <point x="168.0" y="-166.0" type="line"/>
      <point x="1302.0" y="-166.0" type="line"/>
      <point x="1302.0" y="94.0" type="line"/>
      <point x="528.0" y="94.0" type="line"/>
      <point x="536.0" y="-90.0" type="line"/>
      <point x="1038.0" y="672.0" type="line"/>
      <point x="512.0" y="1416.0" type="line"/>
      <point x="504.0" y="1214.0" type="line"/>
      <point x="1246.0" y="1214.0" type="line"/>
      <point x="1246.0" y="1486.0" type="line"/>
      <point x="172.0" y="1486.0" type="line"/>
      <point x="144.0" y="1408.0" type="line"/>
      <point x="678.0" y="666.0" type="line"/>
      <point x="144.0" y="-96.0" type="line"/>
    </contour>
  </outline>
</glyph>
<glyph name="minus" format="2">
  <advance width="1326.0"/>
  <unicode hex="2212"/>
  <outline>
    <contour>
      <point x="248.0" y="612.0" type="line"/>
      <point x="1078.0" y="612.0" type="line"/>
      <point x="1078.0" y="882.0" type="line"/>
      <point x="248.0" y="882.0" type="line"/>
    </contour>
  </outline>
</glyph>
<glyph name="integral" format="2">
  <advance width="1062.0"/>
  <unicode hex="222B"/>
  <outline>
    <contour>
      <point x="414.0" y="-506.0" type="curve" smooth="yes"/>
      <point x="762.0" y="-506.0"/>
      <point x="904.0" y="-250.0"/>
      <point x="900.0" y="-2.0" type="curve" smooth="yes"/>
      <point x="892.0" y="416.0"/>
      <point x="488.0" y="790.0"/>
      <point x="482.0" y="1168.0" type="curve" smooth="yes"/>
      <point x="480.0" y="1324.0"/>
      <point x="552.0" y="1414.0"/>
      <point x="688.0" y="1414.0" type="curve" smooth="yes"/>
      <point x="772.0" y="1414.0"/>
      <point x="846.0" y="1362.0"/>
      <point x="860.0" y="1332.0" type="curve"/>
      <point x="988.0" y="1510.0" type="line"/>
      <point x="940.0" y="1592.0"/>
      <point x="802.0" y="1644.0"/>
      <point x="670.0" y="1644.0" type="curve" smooth="yes"/>
      <point x="318.0" y="1644.0"/>
      <point x="164.0" y="1424.0"/>
      <point x="168.0" y="1154.0" type="curve" smooth="yes"/>
      <point x="174.0" y="740.0"/>
      <point x="578.0" y="356.0"/>
      <point x="584.0" y="-24.0" type="curve" smooth="yes"/>
      <point x="586.0" y="-164.0"/>
      <point x="546.0" y="-268.0"/>
      <point x="394.0" y="-268.0" type="curve" smooth="yes"/>
      <point x="312.0" y="-268.0"/>
      <point x="214.0" y="-208.0"/>
      <point x="190.0" y="-170.0" type="curve"/>
      <point x="88.0" y="-378.0" type="line"/>
      <point x="136.0" y="-452.0"/>
      <point x="294.0" y="-506.0"/>
    </contour>
  </outline>
</glyph>
<glyph name="notequal" format="2">
  <advance width="1396.0"/>
  <unicode hex="2260"/>
  <outline>
    <contour>
      <point x="400.0" y="174.0" type="line"/>
      <point x="604.0" y="174.0" type="line"/>
      <point x="718.0" y="522.0" type="line"/>
      <point x="724.0" y="538.0" type="line"/>
      <point x="876.0" y="1006.0" type="line"/>
      <point x="884.0" y="1020.0" type="line"/>
      <point x="986.0" y="1314.0" type="line"/>
      <point x="780.0" y="1314.0" type="line"/>
      <point x="686.0" y="1020.0" type="line"/>
      <point x="678.0" y="1006.0" type="line"/>
      <point x="524.0" y="538.0" type="line"/>
      <point x="518.0" y="524.0" type="line"/>
    </contour>
    <component base="equal"/>
  </outline>
</glyph>
<glyph name="lessequal" format="2">
  <advance width="1344.0"/>
  <unicode hex="2264"/>
  <outline>
    <contour>
      <point x="164.0" y="-2.0" type="line"/>
      <point x="1110.0" y="-2.0" type="line"/>
      <point x="1110.0" y="228.0" type="line"/>
      <point x="164.0" y="228.0" type="line"/>
    </contour>
    <contour>
      <point x="1110.0" y="304.0" type="line"/>
      <point x="1110.0" y="590.0" type="line"/>
      <point x="546.0" y="792.0" type="line"/>
      <point x="546.0" y="778.0" type="line"/>
      <point x="1110.0" y="984.0" type="line"/>
      <point x="1110.0" y="1280.0" type="line"/>
      <point x="164.0" y="870.0" type="line"/>
      <point x="164.0" y="710.0" type="line"/>
    </contour>
  </outline>
</glyph>
<glyph name="leftWhiteTriangle" format="2">
  <advance width="1186.0"/>
  <unicode hex="25C1"/>
  <outline>
    <contour>
      <point x="1006.0" y="1034.0" type="line"/>
      <point x="50.0" y="446.0" type="line"/>
      <point x="1006.0" y="-144.0" type="line"/>
    </contour>
    <contour>
      <point x="886.0" y="84.0" type="line"/>
      <point x="252.0" y="450.0" type="line"/>
      <point x="888.0" y="820.0" type="line"/>
    </contour>
  </outline>
</glyph>
<glyph name="leftanglebracket-math" format="2">
  <advance width="900.0"/>
  <unicode hex="27E8"/>
  <outline>
    <contour>
      <point x="580.0" y="1802.0" type="line"/>
      <point x="82.0" y="638.0" type="line"/>
      <point x="616.0" y="-508.0" type="line"/>
      <point x="818.0" y="-508.0" type="line"/>
      <point x="300.0" y="634.0" type="line"/>
      <point x="806.0" y="1802.0" type="line"/>
    </contour>
  </outline>
</glyph>
<glyph name="a.sc" format="2">
  <advance width="1366.0"/>
  <anchor x="684.0" y="0.0" name="bottom"/>
  <anchor x="680.0" y="-218.0" name="btm"/>
  <anchor x="1266.0" y="0.0" name="ogonek"/>
  <anchor x="672.0" y="1800.0" name="top"/>
  <outline>
    <contour>
      <point x="362.0" y="0.0" type="line"/>
      <point x="624.0" y="862.0" type="line"/>
      <point x="672.0" y="1050.0" type="line"/>
      <point x="720.0" y="862.0" type="line"/>
      <point x="1000.0" y="0.0" type="line"/>
      <point x="1382.0" y="0.0" type="line"/>
      <point x="894.0" y="1300.0" type="line"/>
      <point x="466.0" y="1300.0" type="line"/>
      <point x="-16.0" y="0.0" type="line"/>
    </contour>
    <contour>
      <point x="290.0" y="210.0" type="line"/>
      <point x="1024.0" y="210.0" type="line"/>
      <point x="986.0" y="468.0" type="line"/>
      <point x="332.0" y="468.0" type="line"/>
    </contour>
  </outline>
</glyph>
<glyph name="breve.case" format="2">
  <advance width="806.0"/>
  <anchor x="404.0" y="1662.0" name="_top"/>
  <outline>
    <contour>
      <point x="404.0" y="1558.0" type="curve" smooth="yes"/>
      <point x="646.0" y="1558.0"/>
      <point x="780.0" y="1702.0"/>
      <point x="778.0" y="1918.0" type="curve"/>
      <point x="564.0" y="1918.0" type="line"/>
      <point x="556.0" y="1872.0"/>
      <point x="538.0" y="1782.0"/>
      <point x="404.0" y="1782.0" type="curve" smooth="yes"/>
      <point x="268.0" y="1782.0"/>
      <point x="250.0" y="1872.0"/>
      <point x="246.0" y="1918.0" type="curve"/>
      <point x="28.0" y="1918.0" type="line"/>
      <point x="24.0" y="1702.0"/>
      <point x="150.0" y="1558.0"/>
    </contour>
  </outline>
</glyph>
<glyph name="brevecomb.case" format="2">
  <anchor x="0.0" y="1660.0" name="_top"/>
  <anchor x="0.0" y="2046.0" name="top"/>
  <outline>
    <contour>
      <point x="0.0" y="1602.0" type="curve" smooth="yes"/>
      <point x="236.0" y="1602.0"/>
      <point x="378.0" y="1768.0"/>
      <point x="376.0" y="1976.0" type="curve"/>
      <point x="156.0" y="1976.0" type="line"/>
      <point x="148.0" y="1930.0"/>
      <point x="136.0" y="1840.0"/>
      <point x="0.0" y="1840.0" type="curve" smooth="yes"/>
      <point x="-140.0" y="1840.0"/>
      <point x="-150.0" y="1930.0"/>
      <point x="-154.0" y="1976.0" type="curve"/>
      <point x="-376.0" y="1976.0" type="line"/>
      <point x="-380.0" y="1768.0"/>
      <point x="-248.0" y="1602.0"/>
    </contour>
  </outline>
</glyph>
<glyph name="brevecomb_acutecomb.case" format="2">
  <anchor x="0.0" y="1660.0" name="_top"/>
  <anchor x="24.0" y="2354.0" name="top"/>
  <outline>
    <contour>
      <point x="26.0" y="1558.0" type="curve" smooth="yes"/>
      <point x="268.0" y="1558.0"/>
      <point x="402.0" y="1702.0"/>
      <point x="400.0" y="1918.0" type="curve"/>
      <point x="186.0" y="1918.0" type="line"/>
      <point x="178.0" y="1872.0"/>
      <point x="160.0" y="1782.0"/>
      <point x="26.0" y="1782.0" type="curve" smooth="yes"/>
      <point x="-110.0" y="1782.0"/>
      <point x="-128.0" y="1872.0"/>
      <point x="-132.0" y="1918.0" type="curve"/>
      <point x="-350.0" y="1918.0" type="line"/>
      <point x="-354.0" y="1702.0"/>
      <point x="-228.0" y="1558.0"/>
    </contour>
    <contour>
      <point x="0.0" y="1910.0" type="line"/>
      <point x="88.0" y="1938.0"/>
      <point x="260.0" y="2106.0"/>
      <point x="342.0" y="2226.0" type="curve"/>
      <point x="86.0" y="2354.0" type="line"/>
      <point x="60.0" y="2276.0"/>
      <point x="-128.0" y="2078.0"/>
      <point x="-168.0" y="2038.0" type="curve"/>
    </contour>
  </outline>
</glyph>
<glyph name="brevecomb_gravecomb.case" format="2">
  <anchor x="0.0" y="1660.0" name="_top"/>
  <anchor x="0.0" y="2346.0" name="top"/>
  <outline>
    <contour>
      <point x="2.0" y="1558.0" type="curve" smooth="yes"/>
      <point x="244.0" y="1558.0"/>
      <point x="378.0" y="1702.0"/>
      <point x="376.0" y="1918.0" type="curve"/>
      <point x="162.0" y="1918.0" type="line"/>
      <point x="154.0" y="1872.0"/>
      <point x="136.0" y="1782.0"/>
      <point x="2.0" y="1782.0" type="curve" smooth="yes"/>
      <point x="-134.0" y="1782.0"/>
      <point x="-152.0" y="1872.0"/>
      <point x="-156.0" y="1918.0" type="curve"/>
      <point x="-374.0" y="1918.0" type="line"/>
      <point x="-378.0" y="1702.0"/>
      <point x="-252.0" y="1558.0"/>
    </contour>
    <contour>
      <point x="172.0" y="2030.0" type="line"/>
      <point x="132.0" y="2070.0"/>
      <point x="-56.0" y="2268.0"/>
      <point x="-82.0" y="2346.0" type="curve"/>
      <point x="-338.0" y="2218.0" type="line"/>
      <point x="-262.0" y="2100.0"/>
      <point x="-78.0" y="1928.0"/>
      <point x="2.0" y="1902.0" type="curve"/>
    </contour>
  </outline>
</glyph>
<glyph name="brevecomb_hookabovecomb.case" format="2">
  <anchor x="0.0" y="1660.0" name="_top"/>
  <anchor x="28.0" y="2382.0" name="top"/>
  <outline>
    <contour>
      <point x="26.0" y="1558.0" type="curve" smooth="yes"/>
      <point x="268.0" y="1558.0"/>
      <point x="402.0" y="1702.0"/>
      <point x="400.0" y="1918.0" type="curve"/>
      <point x="186.0" y="1918.0" type="line"/>
      <point x="178.0" y="1872.0"/>
      <point x="160.0" y="1782.0"/>
      <point x="26.0" y="1782.0" type="curve" smooth="yes"/>
      <point x="-110.0" y="1782.0"/>
      <point x="-128.0" y="1872.0"/>
      <point x="-132.0" y="1918.0" type="curve"/>
      <point x="-350.0" y="1918.0" type="line"/>
      <point x="-354.0" y="1702.0"/>
      <point x="-228.0" y="1558.0"/>
    </contour>
    <contour>
      <point x="-60.0" y="1952.0" type="curve"/>
      <point x="116.0" y="1952.0" type="line"/>
      <point x="102.0" y="2010.0"/>
      <point x="116.0" y="2062.0"/>
      <point x="156.0" y="2092.0" type="curve" smooth="yes"/>
      <point x="204.0" y="2128.0"/>
      <point x="264.0" y="2192.0"/>
      <point x="264.0" y="2278.0" type="curve" smooth="yes"/>
      <point x="264.0" y="2384.0"/>
      <point x="142.0" y="2464.0"/>
      <point x="-18.0" y="2464.0" type="curve" smooth="yes"/>
      <point x="-110.0" y="2464.0"/>
      <point x="-176.0" y="2446.0"/>
      <point x="-220.0" y="2424.0" type="curve"/>
      <point x="-216.0" y="2262.0" type="line"/>
      <point x="-192.0" y="2280.0"/>
      <point x="-144.0" y="2298.0"/>
      <point x="-94.0" y="2298.0" type="curve" smooth="yes"/>
      <point x="-14.0" y="2298.0"/>
      <point x="8.0" y="2264.0"/>
      <point x="8.0" y="2224.0" type="curve"/>
      <point x="8.0" y="2148.0"/>
      <point x="-86.0" y="2130.0"/>
      <point x="-86.0" y="2040.0" type="curve"/>
      <point x="-86.0" y="2000.0"/>
      <point x="-76.0" y="1980.0"/>
    </contour>
  </outline>
</glyph>
<glyph name="brevecomb_tildecomb.case" format="2">
  <anchor x="0.0" y="1660.0" name="_top"/>
  <anchor x="24.0" y="2516.0" name="top"/>
  <outline>
    <contour>
      <point x="26.0" y="1598.0" type="curve" smooth="yes"/>
      <point x="254.0" y="1598.0"/>
      <point x="380.0" y="1738.0"/>
      <point x="378.0" y="1928.0" type="curve"/>
      <point x="176.0" y="1928.0" type="line"/>
      <point x="170.0" y="1882.0"/>
      <point x="152.0" y="1796.0"/>
      <point x="26.0" y="1796.0" type="curve" smooth="yes"/>
      <point x="-102.0" y="1796.0"/>
      <point x="-120.0" y="1882.0"/>
      <point x="-122.0" y="1928.0" type="curve"/>
      <point x="-328.0" y="1928.0" type="line"/>
      <point x="-332.0" y="1738.0"/>
      <point x="-214.0" y="1598.0"/>
    </contour>
    <contour>
      <point x="142.0" y="2034.0" type="curve" smooth="yes"/>
      <point x="248.0" y="2034.0"/>
      <point x="364.0" y="2138.0"/>
      <point x="364.0" y="2284.0" type="curve"/>
      <point x="252.0" y="2324.0" type="line"/>
      <point x="224.0" y="2248.0"/>
      <point x="190.0" y="2230.0"/>
      <point x="148.0" y="2230.0" type="curve" smooth="yes"/>
      <point x="72.0" y="2230.0"/>
      <point x="24.0" y="2356.0"/>
      <point x="-102.0" y="2356.0" type="curve" smooth="yes"/>
      <point x="-208.0" y="2356.0"/>
      <point x="-324.0" y="2254.0"/>
      <point x="-324.0" y="2108.0" type="curve"/>
      <point x="-212.0" y="2068.0" type="line"/>
      <point x="-184.0" y="2138.0"/>
      <point x="-154.0" y="2162.0"/>
      <point x="-108.0" y="2162.0" type="curve" smooth="yes"/>
      <point x="-30.0" y="2162.0"/>
      <point x="16.0" y="2034.0"/>
    </contour>
  </outline>
</glyph>
<glyph name="breveinvertedcomb.case" format="2">
  <anchor x="0.0" y="1660.0" name="_top"/>
  <anchor x="0.0" y="2086.0" name="top"/>
  <outline>
    <contour>
      <point x="0.0" y="2002.0" type="curve" smooth="yes"/>
      <point x="-248.0" y="2002.0"/>
      <point x="-380.0" y="1836.0"/>
      <point x="-376.0" y="1628.0" type="curve"/>
      <point x="-154.0" y="1628.0" type="line"/>
      <point x="-150.0" y="1674.0"/>
      <point x="-140.0" y="1764.0"/>
      <point x="0.0" y="1764.0" type="curve" smooth="yes"/>
      <point x="136.0" y="1764.0"/>
      <point x="148.0" y="1674.0"/>
      <point x="156.0" y="1628.0" type="curve"/>
      <point x="376.0" y="1628.0" type="line"/>
      <point x="378.0" y="1836.0"/>
      <point x="236.0" y="2002.0"/>
    </contour>
  </outline>
</glyph>
<glyph name="caroncomb.alt" format="2">
  <anchor x="32.0" y="556.0" name="_topright"/>
  <outline>
    <contour>
      <point x="136.0" y="571.0" type="line"/>
      <point x="149.0" y="607.0"/>
      <point x="171.0" y="655.0"/>
      <point x="171.0" y="733.0" type="curve" smooth="yes"/>
      <point x="171.0" y="775.0"/>
      <point x="168.0" y="797.0"/>
      <point x="162.0" y="811.0" type="curve"/>
      <point x="26.0" y="811.0" type="line"/>
      <point x="22.0" y="788.0" type="line"/>
      <point x="29.0" y="769.0"/>
      <point x="36.0" y="741.0"/>
      <point x="36.0" y="696.0" type="curve" smooth="yes"/>
      <point x="36.0" y="639.0"/>
      <point x="34.0" y="608.0"/>
      <point x="29.0" y="585.0" type="curve"/>
      <point x="33.0" y="572.0" type="line"/>
    </contour>
  </outline>
</glyph>
<glyph name="circumflexcomb.case" format="2">
  <anchor x="0.0" y="1662.0" name="_top"/>
  <anchor x="0.0" y="2096.0" name="top"/>
  <outline>
    <contour>
      <point x="-220.0" y="1576.0" type="line"/>
      <point x="-2.0" y="1764.0" type="line"/>
      <point x="220.0" y="1576.0" type="line"/>
      <point x="394.0" y="1690.0" type="line"/>
      <point x="114.0" y="1988.0" type="line"/>
      <point x="-116.0" y="1988.0" type="line"/>
      <point x="-394.0" y="1688.0" type="line"/>
    </contour>
  </outline>
</glyph>
<glyph name="circumflexcomb_acutecomb.case" format="2">
  <anchor x="40.0" y="1662.0" name="_top"/>
  <anchor x="218.0" y="2178.0" name="top"/>
  <outline>
    <contour>
      <point x="-178.0" y="1506.0" type="line"/>
      <point x="40.0" y="1694.0" type="line"/>
      <point x="260.0" y="1506.0" type="line"/>
      <point x="434.0" y="1620.0" type="line"/>
      <point x="154.0" y="1918.0" type="line"/>
      <point x="-74.0" y="1918.0" type="line"/>
      <point x="-352.0" y="1618.0" type="line"/>
    </contour>
    <contour>
      <point x="446.0" y="1734.0" type="line"/>
      <point x="534.0" y="1762.0"/>
      <point x="706.0" y="1930.0"/>
      <point x="788.0" y="2050.0" type="curve"/>
      <point x="532.0" y="2178.0" type="line"/>
      <point x="506.0" y="2100.0"/>
      <point x="318.0" y="1902.0"/>
      <point x="278.0" y="1862.0" type="curve"/>
    </contour>
  </outline>
</glyph>
<glyph name="circumflexcomb_gravecomb.case" format="2">
  <anchor x="0.0" y="1662.0" name="_top"/>
  <anchor x="76.0" y="2242.0" name="top"/>
  <outline>
    <contour>
      <point x="-218.0" y="1506.0" type="line"/>
      <point x="0.0" y="1694.0" type="line"/>
      <point x="220.0" y="1506.0" type="line"/>
      <point x="394.0" y="1620.0" type="line"/>
      <point x="114.0" y="1918.0" type="line"/>
      <point x="-114.0" y="1918.0" type="line"/>
      <point x="-392.0" y="1618.0" type="line"/>
    </contour>
    <contour>
      <point x="544.0" y="1926.0" type="line"/>
      <point x="504.0" y="1966.0"/>
      <point x="316.0" y="2164.0"/>
      <point x="290.0" y="2242.0" type="curve"/>
      <point x="34.0" y="2114.0" type="line"/>
      <point x="110.0" y="1996.0"/>
      <point x="294.0" y="1824.0"/>
      <point x="374.0" y="1798.0" type="curve"/>
    </contour>
  </outline>
</glyph>
<glyph name="circumflexcomb_gravecomb" format="2">
  <anchor x="0.0" y="1660.0" name="_top"/>
  <anchor x="118.0" y="1948.0" name="top"/>
  <outline>
    <contour>
      <point x="-234.0" y="1234.0" type="line"/>
      <point x="0.0" y="1392.0" type="line"/>
      <point x="234.0" y="1234.0" type="line"/>
      <point x="406.0" y="1334.0" type="line"/>
      <point x="110.0" y="1642.0" type="line"/>
      <point x="-108.0" y="1642.0" type="line"/>
      <point x="-406.0" y="1334.0" type="line"/>
    </contour>
    <contour>
      <point x="506.0" y="1506.0" type="curve"/>
      <point x="642.0" y="1626.0" type="line"/>
      <point x="552.0" y="1716.0"/>
      <point x="482.0" y="1806.0"/>
      <point x="380.0" y="1948.0" type="curve"/>
      <point x="206.0" y="1798.0" type="line"/>
      <point x="296.0" y="1650.0"/>
      <point x="420.0" y="1548.0"/>
    </contour>
  </outline>
</glyph>
<glyph name="circumflexcomb_hookabovecomb.case" format="2">
  <anchor x="-2.0" y="1662.0" name="_top"/>
  <anchor x="350.0" y="2282.0" name="top"/>
  <outline>
    <contour>
      <point x="-220.0" y="1506.0" type="line"/>
      <point x="-2.0" y="1694.0" type="line"/>
      <point x="218.0" y="1506.0" type="line"/>
      <point x="392.0" y="1620.0" type="line"/>
      <point x="112.0" y="1918.0" type="line"/>
      <point x="-116.0" y="1918.0" type="line"/>
      <point x="-394.0" y="1618.0" type="line"/>
    </contour>
    <contour>
      <point x="262.0" y="1852.0" type="curve"/>
      <point x="438.0" y="1852.0" type="line"/>
      <point x="424.0" y="1910.0"/>
      <point x="438.0" y="1962.0"/>
      <point x="478.0" y="1992.0" type="curve" smooth="yes"/>
      <point x="526.0" y="2028.0"/>
      <point x="586.0" y="2092.0"/>
      <point x="586.0" y="2178.0" type="curve" smooth="yes"/>
      <point x="586.0" y="2284.0"/>
      <point x="464.0" y="2364.0"/>
      <point x="304.0" y="2364.0" type="curve" smooth="yes"/>
      <point x="212.0" y="2364.0"/>
      <point x="146.0" y="2346.0"/>
      <point x="102.0" y="2324.0" type="curve"/>
      <point x="106.0" y="2162.0" type="line"/>
      <point x="130.0" y="2180.0"/>
      <point x="178.0" y="2198.0"/>
      <point x="228.0" y="2198.0" type="curve" smooth="yes"/>
      <point x="308.0" y="2198.0"/>
      <point x="330.0" y="2164.0"/>
      <point x="330.0" y="2124.0" type="curve"/>
      <point x="330.0" y="2048.0"/>
      <point x="236.0" y="2030.0"/>
      <point x="236.0" y="1940.0" type="curve"/>
      <point x="236.0" y="1900.0"/>
      <point x="246.0" y="1880.0"/>
    </contour>
  </outline>
</glyph>
<glyph name="circumflexcomb_tildecomb" format="2">
  <anchor x="0.0" y="1660.0" name="_top"/>
  <anchor x="0.0" y="2094.0" name="top"/>
  <outline>
    <contour>
      <point x="-234.0" y="1234.0" type="line"/>
      <point x="0.0" y="1392.0" type="line"/>
      <point x="234.0" y="1234.0" type="line"/>
      <point x="406.0" y="1334.0" type="line"/>
      <point x="110.0" y="1642.0" type="line"/>
      <point x="-108.0" y="1642.0" type="line"/>
      <point x="-406.0" y="1334.0" type="line"/>
    </contour>
    <contour>
      <point x="142.0" y="1772.0" type="curve" smooth="yes"/>
      <point x="248.0" y="1772.0"/>
      <point x="364.0" y="1876.0"/>
      <point x="364.0" y="2022.0" type="curve"/>
      <point x="252.0" y="2062.0" type="line"/>
      <point x="224.0" y="1986.0"/>
      <point x="190.0" y="1968.0"/>
      <point x="148.0" y="1968.0" type="curve" smooth="yes"/>
      <point x="72.0" y="1968.0"/>
      <point x="24.0" y="2094.0"/>
      <point x="-102.0" y="2094.0" type="curve" smooth="yes"/>
      <point x="-208.0" y="2094.0"/>
      <point x="-324.0" y="1992.0"/>
      <point x="-324.0" y="1846.0" type="curve"/>
      <point x="-212.0" y="1806.0" type="line"/>
      <point x="-184.0" y="1876.0"/>
      <point x="-154.0" y="1900.0"/>
      <point x="-108.0" y="1900.0" type="curve" smooth="yes"/>
      <point x="-30.0" y="1900.0"/>
      <point x="16.0" y="1772.0"/>
    </contour>
  </outline>
</glyph>
<glyph name="dblgravecomb.case" format="2">
  <anchor x="-60.0" y="1660.0" name="_top"/>
  <anchor x="44.0" y="2032.0" name="top"/>
  <outline>
    <contour>
      <point x="198.0" y="1616.0" type="curve"/>
      <point x="372.0" y="1740.0" type="line"/>
      <point x="332.0" y="1778.0"/>
      <point x="192.0" y="1960.0"/>
      <point x="158.0" y="2038.0" type="curve"/>
      <point x="-94.0" y="1922.0" type="line"/>
      <point x="-14.0" y="1800.0"/>
      <point x="134.0" y="1644.0"/>
    </contour>
    <contour>
      <point x="-310.0" y="1616.0" type="curve"/>
      <point x="-132.0" y="1740.0" type="line"/>
      <point x="-172.0" y="1778.0"/>
      <point x="-316.0" y="1960.0"/>
      <point x="-352.0" y="2036.0" type="curve"/>
      <point x="-602.0" y="1920.0" type="line"/>
      <point x="-526.0" y="1804.0"/>
      <point x="-376.0" y="1644.0"/>
    </contour>
  </outline>
</glyph>
<glyph name="delta.sc" format="2">
  <advance width="1552.0"/>
  <outline>
    <contour>
      <point x="74.0" y="0.0" type="line"/>
      <point x="1476.0" y="0.0" type="line"/>
      <point x="1492.0" y="26.0" type="line"/>
      <point x="774.0" y="1300.0" type="line"/>
      <point x="734.0" y="1300.0" type="line"/>
      <point x="60.0" y="22.0" type="line"/>
    </contour>
    <contour>
      <point x="506.0" y="304.0" type="line"/>
      <point x="748.0" y="760.0" type="line"/>
      <point x="1008.0" y="304.0" type="line"/>
    </contour>
  </outline>
</glyph>
<glyph name="dieresiscomb.case" format="2">
  <anchor x="0.0" y="1660.0" name="_top"/>
  <anchor x="0.0" y="2106.0" name="top"/>
  <outline>
    <contour>
      <point x="-270.0" y="1626.0" type="curve" smooth="yes"/>
      <point x="-160.0" y="1626.0"/>
      <point x="-78.0" y="1710.0"/>
      <point x="-78.0" y="1814.0" type="curve" smooth="yes"/>
      <point x="-78.0" y="1916.0"/>
      <point x="-144.0" y="1984.0"/>
      <point x="-254.0" y="1984.0" type="curve" smooth="yes"/>
      <point x="-362.0" y="1984.0"/>
      <point x="-448.0" y="1902.0"/>
      <point x="-448.0" y="1798.0" type="curve" smooth="yes"/>
      <point x="-448.0" y="1696.0"/>
      <point x="-378.0" y="1626.0"/>
    </contour>
    <contour>
      <point x="256.0" y="1626.0" type="curve" smooth="yes"/>
      <point x="366.0" y="1626.0"/>
      <point x="448.0" y="1710.0"/>
      <point x="448.0" y="1814.0" type="curve" smooth="yes"/>
      <point x="448.0" y="1916.0"/>
      <point x="384.0" y="1984.0"/>
      <point x="274.0" y="1984.0" type="curve" smooth="yes"/>
      <point x="164.0" y="1984.0"/>
      <point x="78.0" y="1902.0"/>
      <point x="78.0" y="1798.0" type="curve" smooth="yes"/>
      <point x="78.0" y="1696.0"/>
      <point x="150.0" y="1626.0"/>
    </contour>
  </outline>
</glyph>
<glyph name="dotaccentcomb.case" format="2">
  <anchor x="0.0" y="1660.0" name="_top"/>
  <anchor x="0.0" y="2072.0" name="top"/>
  <outline>
    <contour>
      <point x="-8.0" y="1618.0" type="curve" smooth="yes"/>
      <point x="112.0" y="1618.0"/>
      <point x="196.0" y="1696.0"/>
      <point x="196.0" y="1806.0" type="curve" smooth="yes"/>
      <point x="196.0" y="1916.0"/>
      <point x="128.0" y="1976.0"/>
      <point x="10.0" y="1976.0" type="curve" smooth="yes"/>
      <point x="-108.0" y="1976.0"/>
      <point x="-196.0" y="1900.0"/>
      <point x="-196.0" y="1792.0" type="curve" smooth="yes"/>
      <point x="-196.0" y="1682.0"/>
      <point x="-124.0" y="1618.0"/>
    </contour>
  </outline>
</glyph>
<glyph name="dotbelowcomb.case" format="2">
  <anchor x="0.0" y="0.0" name="_bottom"/>
  <anchor x="0.0" y="-166.0" name="_btm"/>
  <anchor x="0.0" y="-486.0" name="bottom"/>
  <outline>
    <contour>
      <point x="-8.0" y="-522.0" type="curve" smooth="yes"/>
      <point x="112.0" y="-522.0"/>
      <point x="208.0" y="-430.0"/>
      <point x="208.0" y="-320.0" type="curve" smooth="yes"/>
      <point x="208.0" y="-210.0"/>
      <point x="128.0" y="-134.0"/>
      <point x="10.0" y="-134.0" type="curve" smooth="yes"/>
      <point x="-108.0" y="-134.0"/>
      <point x="-208.0" y="-226.0"/>
      <point x="-208.0" y="-336.0" type="curve" smooth="yes"/>
      <point x="-208.0" y="-444.0"/>
      <point x="-124.0" y="-522.0"/>
    </contour>
  </outline>
</glyph>
<glyph name="e.sc" format="2">
  <advance width="591.0"/>
  <anchor x="320.0" y="0.0" name="bottom"/>
  <anchor x="321.0" y="-72.0" name="btm"/>
  <anchor x="499.0" y="0.0" name="ogonek"/>
  <anchor x="306.0" y="896.0" name="top"/>
  <anchor x="9.0" y="646.0" name="topleft"/>
  <outline>
    <contour>
      <point x="70.0" y="0.0" type="line"/>
      <point x="553.0" y="0.0" type="line"/>
      <point x="553.0" y="143.0" type="line"/>
      <point x="254.0" y="143.0" type="line"/>
      <point x="254.0" y="262.0" type="line"/>
      <point x="466.0" y="262.0" type="line"/>
      <point x="466.0" y="396.0" type="line"/>
      <point x="254.0" y="396.0" type="line"/>
      <point x="254.0" y="507.0" type="line"/>
      <point x="526.0" y="507.0" type="line"/>
      <point x="526.0" y="646.0" type="line"/>
      <point x="70.0" y="646.0" type="line"/>
    </contour>
  </outline>
</glyph>
<glyph name="eight.dnom" format="2">
  <advance width="1046.0"/>
  <outline>
    <contour>
      <point x="530.0" y="-12.0" type="curve" smooth="yes"/>
      <point x="780.0" y="-12.0"/>
      <point x="960.0" y="108.0"/>
      <point x="958.0" y="314.0" type="curve" smooth="yes"/>
      <point x="956.0" y="626.0"/>
      <point x="386.0" y="650.0"/>
      <point x="386.0" y="852.0" type="curve" smooth="yes"/>
      <point x="386.0" y="904.0"/>
      <point x="442.0" y="950.0"/>
      <point x="518.0" y="950.0" type="curve" smooth="yes"/>
      <point x="608.0" y="950.0"/>
      <point x="660.0" y="900.0"/>
      <point x="662.0" y="854.0" type="curve" smooth="yes"/>
      <point x="666.0" y="774.0"/>
      <point x="620.0" y="706.0"/>
      <point x="512.0" y="674.0" type="curve"/>
      <point x="606.0" y="562.0" type="line"/>
      <point x="816.0" y="600.0"/>
      <point x="910.0" y="740.0"/>
      <point x="910.0" y="868.0" type="curve" smooth="yes"/>
      <point x="910.0" y="1020.0"/>
      <point x="772.0" y="1130.0"/>
      <point x="516.0" y="1130.0" type="curve" smooth="yes"/>
      <point x="256.0" y="1130.0"/>
      <point x="122.0" y="994.0"/>
      <point x="122.0" y="832.0" type="curve" smooth="yes"/>
      <point x="122.0" y="454.0"/>
      <point x="674.0" y="462.0"/>
      <point x="674.0" y="286.0" type="curve" smooth="yes"/>
      <point x="674.0" y="214.0"/>
      <point x="608.0" y="168.0"/>
      <point x="528.0" y="168.0" type="curve" smooth="yes"/>
      <point x="402.0" y="168.0"/>
      <point x="356.0" y="250.0"/>
      <point x="356.0" y="304.0" type="curve" smooth="yes"/>
      <point x="356.0" y="400.0"/>
      <point x="424.0" y="448.0"/>
      <point x="514.0" y="488.0" type="curve"/>
      <point x="412.0" y="606.0" type="line"/>
      <point x="162.0" y="526.0"/>
      <point x="88.0" y="398.0"/>
      <point x="88.0" y="290.0" type="curve" smooth="yes"/>
      <point x="88.0" y="108.0"/>
      <point x="248.0" y="-12.0"/>
    </contour>
  </outline>
</glyph>
<glyph name="eight.osf" format="2">
  <advance width="1386.0"/>
  <outline>
    <contour>
      <point x="704.0" y="-16.0" type="curve" smooth="yes"/>
      <point x="1028.0" y="-16.0"/>
      <point x="1270.0" y="142.0"/>
      <point x="1266.0" y="416.0" type="curve" smooth="yes"/>
      <point x="1262.0" y="846.0"/>
      <point x="502.0" y="876.0"/>
      <point x="502.0" y="1166.0" type="curve" smooth="yes"/>
      <point x="502.0" y="1242.0"/>
      <point x="574.0" y="1308.0"/>
      <point x="692.0" y="1308.0" type="curve" smooth="yes"/>
      <point x="814.0" y="1308.0"/>
      <point x="882.0" y="1246.0"/>
      <point x="882.0" y="1160.0" type="curve" smooth="yes"/>
      <point x="886.0" y="1042.0"/>
      <point x="828.0" y="940.0"/>
      <point x="684.0" y="896.0" type="curve"/>
      <point x="806.0" y="756.0" type="line"/>
      <point x="1090.0" y="820.0"/>
      <point x="1200.0" y="1000.0"/>
      <point x="1200.0" y="1174.0" type="curve" smooth="yes"/>
      <point x="1200.0" y="1378.0"/>
      <point x="1022.0" y="1528.0"/>
      <point x="686.0" y="1528.0" type="curve" smooth="yes"/>
      <point x="350.0" y="1528.0"/>
      <point x="166.0" y="1352.0"/>
      <point x="166.0" y="1136.0" type="curve" smooth="yes"/>
      <point x="166.0" y="632.0"/>
      <point x="902.0" y="646.0"/>
      <point x="902.0" y="378.0" type="curve" smooth="yes"/>
      <point x="902.0" y="282.0"/>
      <point x="810.0" y="222.0"/>
      <point x="700.0" y="222.0" type="curve" smooth="yes"/>
      <point x="528.0" y="222.0"/>
      <point x="460.0" y="306.0"/>
      <point x="460.0" y="404.0" type="curve" smooth="yes"/>
      <point x="460.0" y="538.0"/>
      <point x="548.0" y="608.0"/>
      <point x="670.0" y="664.0" type="curve"/>
      <point x="546.0" y="812.0" type="line"/>
      <point x="232.0" y="722.0"/>
      <point x="120.0" y="558.0"/>
      <point x="120.0" y="388.0" type="curve" smooth="yes"/>
      <point x="120.0" y="142.0"/>
      <point x="338.0" y="-16.0"/>
    </contour>
  </outline>
</glyph>
